%TF.GenerationSoftware,KiCad,Pcbnew,9.0.7*%
%TF.CreationDate,2026-04-05T19:33:01-07:00*%
%TF.ProjectId,SplitKeyboardCAD,53706c69-744b-4657-9962-6f6172644341,rev?*%
%TF.SameCoordinates,Original*%
%TF.FileFunction,Copper,L2,Bot*%
%TF.FilePolarity,Positive*%
%FSLAX46Y46*%
G04 Gerber Fmt 4.6, Leading zero omitted, Abs format (unit mm)*
G04 Created by KiCad (PCBNEW 9.0.7) date 2026-04-05 19:33:01*
%MOMM*%
%LPD*%
G01*
G04 APERTURE LIST*
G04 Aperture macros list*
%AMRoundRect*
0 Rectangle with rounded corners*
0 $1 Rounding radius*
0 $2 $3 $4 $5 $6 $7 $8 $9 X,Y pos of 4 corners*
0 Add a 4 corners polygon primitive as box body*
4,1,4,$2,$3,$4,$5,$6,$7,$8,$9,$2,$3,0*
0 Add four circle primitives for the rounded corners*
1,1,$1+$1,$2,$3*
1,1,$1+$1,$4,$5*
1,1,$1+$1,$6,$7*
1,1,$1+$1,$8,$9*
0 Add four rect primitives between the rounded corners*
20,1,$1+$1,$2,$3,$4,$5,0*
20,1,$1+$1,$4,$5,$6,$7,0*
20,1,$1+$1,$6,$7,$8,$9,0*
20,1,$1+$1,$8,$9,$2,$3,0*%
G04 Aperture macros list end*
%TA.AperFunction,ComponentPad*%
%ADD10RoundRect,0.750000X0.750000X0.750000X-0.750000X0.750000X-0.750000X-0.750000X0.750000X-0.750000X0*%
%TD*%
%TA.AperFunction,ComponentPad*%
%ADD11C,2.000000*%
%TD*%
%TA.AperFunction,SMDPad,CuDef*%
%ADD12RoundRect,0.150000X0.200000X-0.150000X0.200000X0.150000X-0.200000X0.150000X-0.200000X-0.150000X0*%
%TD*%
%TA.AperFunction,SMDPad,CuDef*%
%ADD13C,2.000000*%
%TD*%
%TA.AperFunction,SMDPad,CuDef*%
%ADD14RoundRect,0.250000X0.450000X-0.262500X0.450000X0.262500X-0.450000X0.262500X-0.450000X-0.262500X0*%
%TD*%
%TA.AperFunction,SMDPad,CuDef*%
%ADD15RoundRect,0.250000X-0.450000X0.262500X-0.450000X-0.262500X0.450000X-0.262500X0.450000X0.262500X0*%
%TD*%
%TA.AperFunction,ViaPad*%
%ADD16C,0.600000*%
%TD*%
%TA.AperFunction,Conductor*%
%ADD17C,0.200000*%
%TD*%
G04 APERTURE END LIST*
D10*
%TO.P,U1,15,BAT*%
%TO.N,VBAT*%
X261245000Y-102478500D03*
%TO.P,U1,16,GND*%
%TO.N,GND*%
X261245000Y-99078500D03*
%TD*%
D11*
%TO.P,SW10,1,1*%
%TO.N,Column2*%
X208250000Y-81330000D03*
%TO.P,SW10,2,2*%
%TO.N,Net-(D10-A)*%
X203250000Y-79230000D03*
%TD*%
%TO.P,SW9,1,1*%
%TO.N,Column2*%
X208140000Y-62850000D03*
%TO.P,SW9,2,2*%
%TO.N,Net-(D9-A)*%
X203140000Y-60750000D03*
%TD*%
%TO.P,SW32,1,1*%
%TO.N,Column2*%
X100905000Y-101475000D03*
%TO.P,SW32,2,2*%
%TO.N,Net-(D32-A)*%
X95905000Y-99375000D03*
%TD*%
%TO.P,SW12,1,1*%
%TO.N,Column2*%
X208050000Y-119250000D03*
%TO.P,SW12,2,2*%
%TO.N,Net-(D12-A)*%
X203050000Y-117150000D03*
%TD*%
%TO.P,SW26,1,1*%
%TO.N,Column1*%
X118845000Y-65605000D03*
%TO.P,SW26,2,2*%
%TO.N,Net-(D26-A)*%
X113845000Y-63505000D03*
%TD*%
%TO.P,SW38,1,1*%
%TO.N,Column4*%
X67685000Y-71125000D03*
%TO.P,SW38,2,2*%
%TO.N,Net-(D38-A)*%
X62685000Y-69025000D03*
%TD*%
%TO.P,SW14,1,1*%
%TO.N,Column3*%
X225850000Y-86340000D03*
%TO.P,SW14,2,2*%
%TO.N,Net-(D14-A)*%
X220850000Y-84240000D03*
%TD*%
%TO.P,SW24,1,1*%
%TO.N,Column0*%
X138165000Y-109715000D03*
%TO.P,SW24,2,2*%
%TO.N,Net-(D24-A)*%
X133165000Y-107615000D03*
%TD*%
%TO.P,SW28,1,1*%
%TO.N,Column1*%
X118445000Y-105175000D03*
%TO.P,SW28,2,2*%
%TO.N,Net-(D28-A)*%
X113445000Y-103075000D03*
%TD*%
%TO.P,SW5,1,1*%
%TO.N,Column1*%
X190780000Y-66470000D03*
%TO.P,SW5,2,2*%
%TO.N,Net-(D5-A)*%
X185780000Y-64370000D03*
%TD*%
%TO.P,SW7,1,1*%
%TO.N,Column1*%
X190770000Y-105300000D03*
%TO.P,SW7,2,2*%
%TO.N,Net-(D7-A)*%
X185770000Y-103200000D03*
%TD*%
%TO.P,SW6,1,1*%
%TO.N,Column1*%
X190780000Y-85880000D03*
%TO.P,SW6,2,2*%
%TO.N,Net-(D6-A)*%
X185780000Y-83780000D03*
%TD*%
%TO.P,SW29,1,1*%
%TO.N,Column1*%
X118505000Y-124175000D03*
%TO.P,SW29,2,2*%
%TO.N,Net-(D29-A)*%
X113505000Y-122075000D03*
%TD*%
%TO.P,SW27,1,1*%
%TO.N,Column1*%
X118525000Y-85465000D03*
%TO.P,SW27,2,2*%
%TO.N,Net-(D27-A)*%
X113525000Y-83365000D03*
%TD*%
%TO.P,SW41,1,1*%
%TO.N,Column4*%
X67115000Y-130065000D03*
%TO.P,SW41,2,2*%
%TO.N,Net-(D41-A)*%
X62115000Y-127965000D03*
%TD*%
%TO.P,SW22,1,1*%
%TO.N,Column0*%
X137865000Y-70915000D03*
%TO.P,SW22,2,2*%
%TO.N,Net-(D22-A)*%
X132865000Y-68815000D03*
%TD*%
%TO.P,SW30,1,1*%
%TO.N,Column2*%
X101395000Y-62245000D03*
%TO.P,SW30,2,2*%
%TO.N,Net-(D30-A)*%
X96395000Y-60145000D03*
%TD*%
%TO.P,SW37,1,1*%
%TO.N,Column3*%
X84095000Y-125575000D03*
%TO.P,SW37,2,2*%
%TO.N,Net-(D37-A)*%
X79095000Y-123475000D03*
%TD*%
D10*
%TO.P,U2,15,BAT*%
%TO.N,VBAT*%
X30905000Y-102655000D03*
%TO.P,U2,16,GND*%
%TO.N,GND*%
X30905000Y-99255000D03*
%TD*%
D11*
%TO.P,SW21,1,1*%
%TO.N,Column4*%
X263130000Y-121840000D03*
%TO.P,SW21,2,2*%
%TO.N,Net-(D21-A)*%
X258130000Y-119740000D03*
%TD*%
%TO.P,SW42,1,1*%
%TO.N,Column4*%
X47155000Y-121375000D03*
%TO.P,SW42,2,2*%
%TO.N,Net-(D42-A)*%
X42155000Y-119275000D03*
%TD*%
%TO.P,SW35,1,1*%
%TO.N,Column3*%
X84255000Y-86175000D03*
%TO.P,SW35,2,2*%
%TO.N,Net-(D35-A)*%
X79255000Y-84075000D03*
%TD*%
%TO.P,SW23,1,1*%
%TO.N,Column0*%
X138205000Y-90615000D03*
%TO.P,SW23,2,2*%
%TO.N,Net-(D23-A)*%
X133205000Y-88515000D03*
%TD*%
%TO.P,SW18,1,1*%
%TO.N,Column4*%
X243400000Y-91030000D03*
%TO.P,SW18,2,2*%
%TO.N,Net-(D18-A)*%
X238400000Y-88930000D03*
%TD*%
%TO.P,SW4,1,1*%
%TO.N,Column0*%
X172410000Y-129400000D03*
%TO.P,SW4,2,2*%
%TO.N,Net-(D4-A)*%
X167410000Y-127300000D03*
%TD*%
%TO.P,SW16,1,1*%
%TO.N,Column3*%
X225570000Y-123680000D03*
%TO.P,SW16,2,2*%
%TO.N,Net-(D16-A)*%
X220570000Y-121580000D03*
%TD*%
%TO.P,SW8,1,1*%
%TO.N,Column1*%
X190960000Y-123980000D03*
%TO.P,SW8,2,2*%
%TO.N,Net-(D8-A)*%
X185960000Y-121880000D03*
%TD*%
%TO.P,SW20,1,1*%
%TO.N,Column4*%
X242990000Y-129580000D03*
%TO.P,SW20,2,2*%
%TO.N,Net-(D20-A)*%
X237990000Y-127480000D03*
%TD*%
%TO.P,SW33,1,1*%
%TO.N,Column2*%
X100815000Y-121235000D03*
%TO.P,SW33,2,2*%
%TO.N,Net-(D33-A)*%
X95815000Y-119135000D03*
%TD*%
%TO.P,SW36,1,1*%
%TO.N,Column3*%
X84135000Y-106015000D03*
%TO.P,SW36,2,2*%
%TO.N,Net-(D36-A)*%
X79135000Y-103915000D03*
%TD*%
%TO.P,SW34,1,1*%
%TO.N,Column3*%
X84255000Y-66035000D03*
%TO.P,SW34,2,2*%
%TO.N,Net-(D34-A)*%
X79255000Y-63935000D03*
%TD*%
%TO.P,SW19,1,1*%
%TO.N,Column4*%
X243200000Y-110210000D03*
%TO.P,SW19,2,2*%
%TO.N,Net-(D19-A)*%
X238200000Y-108110000D03*
%TD*%
%TO.P,SW39,1,1*%
%TO.N,Column4*%
X67575000Y-90685000D03*
%TO.P,SW39,2,2*%
%TO.N,Net-(D39-A)*%
X62575000Y-88585000D03*
%TD*%
%TO.P,SW13,1,1*%
%TO.N,Column3*%
X225490000Y-66510000D03*
%TO.P,SW13,2,2*%
%TO.N,Net-(D13-A)*%
X220490000Y-64410000D03*
%TD*%
%TO.P,SW11,1,1*%
%TO.N,Column2*%
X208140000Y-100190000D03*
%TO.P,SW11,2,2*%
%TO.N,Net-(D11-A)*%
X203140000Y-98090000D03*
%TD*%
%TO.P,SW3,1,1*%
%TO.N,Column0*%
X172410000Y-109970000D03*
%TO.P,SW3,2,2*%
%TO.N,Net-(D3-A)*%
X167410000Y-107870000D03*
%TD*%
%TO.P,SW17,1,1*%
%TO.N,Column4*%
X243600000Y-72060000D03*
%TO.P,SW17,2,2*%
%TO.N,Net-(D17-A)*%
X238600000Y-69960000D03*
%TD*%
%TO.P,SW31,1,1*%
%TO.N,Column2*%
X101135000Y-82025000D03*
%TO.P,SW31,2,2*%
%TO.N,Net-(D31-A)*%
X96135000Y-79925000D03*
%TD*%
%TO.P,SW15,1,1*%
%TO.N,Column3*%
X225850000Y-105390000D03*
%TO.P,SW15,2,2*%
%TO.N,Net-(D15-A)*%
X220850000Y-103290000D03*
%TD*%
%TO.P,SW1,1,1*%
%TO.N,Column0*%
X172090000Y-71780000D03*
%TO.P,SW1,2,2*%
%TO.N,Net-(D1-A)*%
X167090000Y-69680000D03*
%TD*%
%TO.P,SW2,1,1*%
%TO.N,Column0*%
X172100000Y-91010000D03*
%TO.P,SW2,2,2*%
%TO.N,Net-(D2-A)*%
X167100000Y-88910000D03*
%TD*%
%TO.P,SW40,1,1*%
%TO.N,Column4*%
X67395000Y-110385000D03*
%TO.P,SW40,2,2*%
%TO.N,Net-(D40-A)*%
X62395000Y-108285000D03*
%TD*%
%TO.P,SW25,1,1*%
%TO.N,Column0*%
X138165000Y-129245000D03*
%TO.P,SW25,2,2*%
%TO.N,Net-(D25-A)*%
X133165000Y-127145000D03*
%TD*%
D12*
%TO.P,D40,1,K*%
%TO.N,Row2*%
X53275000Y-107815000D03*
%TO.P,D40,2,A*%
%TO.N,Net-(D40-A)*%
X53275000Y-109215000D03*
%TD*%
%TO.P,D11,1,K*%
%TO.N,Row2*%
X195170000Y-99380000D03*
%TO.P,D11,2,A*%
%TO.N,Net-(D11-A)*%
X195170000Y-100780000D03*
%TD*%
%TO.P,D22,1,K*%
%TO.N,Row0*%
X123605000Y-68465000D03*
%TO.P,D22,2,A*%
%TO.N,Net-(D22-A)*%
X123605000Y-69865000D03*
%TD*%
%TO.P,D26,1,K*%
%TO.N,Row0*%
X104635000Y-63035000D03*
%TO.P,D26,2,A*%
%TO.N,Net-(D26-A)*%
X104635000Y-64435000D03*
%TD*%
%TO.P,D15,1,K*%
%TO.N,Row2*%
X212810000Y-104000000D03*
%TO.P,D15,2,A*%
%TO.N,Net-(D15-A)*%
X212810000Y-105400000D03*
%TD*%
%TO.P,D2,1,K*%
%TO.N,Row1*%
X158510000Y-90282500D03*
%TO.P,D2,2,A*%
%TO.N,Net-(D2-A)*%
X158510000Y-91682500D03*
%TD*%
%TO.P,D6,1,K*%
%TO.N,Row1*%
X177760000Y-84430000D03*
%TO.P,D6,2,A*%
%TO.N,Net-(D6-A)*%
X177760000Y-85830000D03*
%TD*%
%TO.P,D14,1,K*%
%TO.N,Row1*%
X212610000Y-85150000D03*
%TO.P,D14,2,A*%
%TO.N,Net-(D14-A)*%
X212610000Y-86550000D03*
%TD*%
%TO.P,D21,1,K*%
%TO.N,Row4*%
X250430000Y-120940000D03*
%TO.P,D21,2,A*%
%TO.N,Net-(D21-A)*%
X250430000Y-122340000D03*
%TD*%
%TO.P,D35,1,K*%
%TO.N,Row1*%
X70175000Y-83677500D03*
%TO.P,D35,2,A*%
%TO.N,Net-(D35-A)*%
X70175000Y-85077500D03*
%TD*%
%TO.P,D36,1,K*%
%TO.N,Row2*%
X70005000Y-103635000D03*
%TO.P,D36,2,A*%
%TO.N,Net-(D36-A)*%
X70005000Y-105035000D03*
%TD*%
%TO.P,D33,1,K*%
%TO.N,Row3*%
X86755000Y-118735000D03*
%TO.P,D33,2,A*%
%TO.N,Net-(D33-A)*%
X86755000Y-120135000D03*
%TD*%
%TO.P,D39,1,K*%
%TO.N,Row1*%
X53905000Y-87965000D03*
%TO.P,D39,2,A*%
%TO.N,Net-(D39-A)*%
X53905000Y-89365000D03*
%TD*%
%TO.P,D10,1,K*%
%TO.N,Row1*%
X195130000Y-80612500D03*
%TO.P,D10,2,A*%
%TO.N,Net-(D10-A)*%
X195130000Y-82012500D03*
%TD*%
%TO.P,D16,1,K*%
%TO.N,Row3*%
X212660000Y-122630000D03*
%TO.P,D16,2,A*%
%TO.N,Net-(D16-A)*%
X212660000Y-124030000D03*
%TD*%
%TO.P,D9,1,K*%
%TO.N,Row0*%
X195170000Y-61890000D03*
%TO.P,D9,2,A*%
%TO.N,Net-(D9-A)*%
X195170000Y-63290000D03*
%TD*%
D13*
%TO.P,TP2,1,1*%
%TO.N,GND*%
X254010000Y-107545000D03*
%TD*%
D12*
%TO.P,D19,1,K*%
%TO.N,Row2*%
X230160000Y-109270000D03*
%TO.P,D19,2,A*%
%TO.N,Net-(D19-A)*%
X230160000Y-110670000D03*
%TD*%
D14*
%TO.P,R1,1*%
%TO.N,VBAT*%
X249630000Y-100230000D03*
%TO.P,R1,2*%
%TO.N,BT_PIN*%
X249630000Y-98405000D03*
%TD*%
D12*
%TO.P,D42,1,K*%
%TO.N,Row4*%
X32955000Y-118895000D03*
%TO.P,D42,2,A*%
%TO.N,Net-(D42-A)*%
X32955000Y-120295000D03*
%TD*%
D15*
%TO.P,R2,1*%
%TO.N,BT_PIN*%
X253100000Y-95900000D03*
%TO.P,R2,2*%
%TO.N,GND*%
X253100000Y-97725000D03*
%TD*%
%TO.P,R3,1*%
%TO.N,VBAT*%
X47465000Y-100035000D03*
%TO.P,R3,2*%
%TO.N,BT_PIN*%
X47465000Y-101860000D03*
%TD*%
D12*
%TO.P,D41,1,K*%
%TO.N,Row3*%
X53145000Y-127505000D03*
%TO.P,D41,2,A*%
%TO.N,Net-(D41-A)*%
X53145000Y-128905000D03*
%TD*%
%TO.P,D30,1,K*%
%TO.N,Row0*%
X87405000Y-59665000D03*
%TO.P,D30,2,A*%
%TO.N,Net-(D30-A)*%
X87405000Y-61065000D03*
%TD*%
D15*
%TO.P,R4,1*%
%TO.N,BT_PIN*%
X53765000Y-98085000D03*
%TO.P,R4,2*%
%TO.N,GND*%
X53765000Y-99910000D03*
%TD*%
D12*
%TO.P,D31,1,K*%
%TO.N,Row1*%
X87055000Y-79477500D03*
%TO.P,D31,2,A*%
%TO.N,Net-(D31-A)*%
X87055000Y-80877500D03*
%TD*%
%TO.P,D32,1,K*%
%TO.N,Row2*%
X86855000Y-98985000D03*
%TO.P,D32,2,A*%
%TO.N,Net-(D32-A)*%
X86855000Y-100385000D03*
%TD*%
%TO.P,D8,1,K*%
%TO.N,Row3*%
X177620000Y-123030000D03*
%TO.P,D8,2,A*%
%TO.N,Net-(D8-A)*%
X177620000Y-124430000D03*
%TD*%
%TO.P,D17,1,K*%
%TO.N,Row0*%
X230510000Y-70610000D03*
%TO.P,D17,2,A*%
%TO.N,Net-(D17-A)*%
X230510000Y-72010000D03*
%TD*%
%TO.P,D7,1,K*%
%TO.N,Row2*%
X177810000Y-104100000D03*
%TO.P,D7,2,A*%
%TO.N,Net-(D7-A)*%
X177810000Y-105500000D03*
%TD*%
%TO.P,D28,1,K*%
%TO.N,Row2*%
X104405000Y-102665000D03*
%TO.P,D28,2,A*%
%TO.N,Net-(D28-A)*%
X104405000Y-104065000D03*
%TD*%
D13*
%TO.P,TP4,1,1*%
%TO.N,GND*%
X53545000Y-92845000D03*
%TD*%
D12*
%TO.P,D24,1,K*%
%TO.N,Row2*%
X124205000Y-107137500D03*
%TO.P,D24,2,A*%
%TO.N,Net-(D24-A)*%
X124205000Y-108537500D03*
%TD*%
%TO.P,D29,1,K*%
%TO.N,Row3*%
X104435000Y-121555000D03*
%TO.P,D29,2,A*%
%TO.N,Net-(D29-A)*%
X104435000Y-122955000D03*
%TD*%
%TO.P,D23,1,K*%
%TO.N,Row1*%
X124155000Y-88165000D03*
%TO.P,D23,2,A*%
%TO.N,Net-(D23-A)*%
X124155000Y-89565000D03*
%TD*%
D13*
%TO.P,TP3,1,1*%
%TO.N,VBAT*%
X48355000Y-91295000D03*
%TD*%
D12*
%TO.P,D25,1,K*%
%TO.N,Row3*%
X124195000Y-126677500D03*
%TO.P,D25,2,A*%
%TO.N,Net-(D25-A)*%
X124195000Y-128077500D03*
%TD*%
%TO.P,D5,1,K*%
%TO.N,Row0*%
X178070000Y-64920000D03*
%TO.P,D5,2,A*%
%TO.N,Net-(D5-A)*%
X178070000Y-66320000D03*
%TD*%
%TO.P,D1,1,K*%
%TO.N,Row0*%
X158660000Y-69720000D03*
%TO.P,D1,2,A*%
%TO.N,Net-(D1-A)*%
X158660000Y-71120000D03*
%TD*%
D13*
%TO.P,TP1,1,1*%
%TO.N,VBAT*%
X250200000Y-107485000D03*
%TD*%
D12*
%TO.P,D38,1,K*%
%TO.N,Row0*%
X53755000Y-68495000D03*
%TO.P,D38,2,A*%
%TO.N,Net-(D38-A)*%
X53755000Y-69895000D03*
%TD*%
%TO.P,D20,1,K*%
%TO.N,Row3*%
X230510000Y-128320000D03*
%TO.P,D20,2,A*%
%TO.N,Net-(D20-A)*%
X230510000Y-129720000D03*
%TD*%
%TO.P,D18,1,K*%
%TO.N,Row1*%
X230510000Y-89960000D03*
%TO.P,D18,2,A*%
%TO.N,Net-(D18-A)*%
X230510000Y-91360000D03*
%TD*%
%TO.P,D4,1,K*%
%TO.N,Row3*%
X159460000Y-127472500D03*
%TO.P,D4,2,A*%
%TO.N,Net-(D4-A)*%
X159460000Y-128872500D03*
%TD*%
%TO.P,D34,1,K*%
%TO.N,Row0*%
X70265000Y-63427500D03*
%TO.P,D34,2,A*%
%TO.N,Net-(D34-A)*%
X70265000Y-64827500D03*
%TD*%
%TO.P,D12,1,K*%
%TO.N,Row3*%
X194930000Y-118490000D03*
%TO.P,D12,2,A*%
%TO.N,Net-(D12-A)*%
X194930000Y-119890000D03*
%TD*%
%TO.P,D13,1,K*%
%TO.N,Row0*%
X212760000Y-65020000D03*
%TO.P,D13,2,A*%
%TO.N,Net-(D13-A)*%
X212760000Y-66420000D03*
%TD*%
%TO.P,D27,1,K*%
%TO.N,Row1*%
X104495000Y-82875000D03*
%TO.P,D27,2,A*%
%TO.N,Net-(D27-A)*%
X104495000Y-84275000D03*
%TD*%
%TO.P,D37,1,K*%
%TO.N,Row3*%
X70005000Y-123005000D03*
%TO.P,D37,2,A*%
%TO.N,Net-(D37-A)*%
X70005000Y-124405000D03*
%TD*%
%TO.P,D3,1,K*%
%TO.N,Row2*%
X159140000Y-109450000D03*
%TO.P,D3,2,A*%
%TO.N,Net-(D3-A)*%
X159140000Y-110850000D03*
%TD*%
D16*
%TO.N,GND*%
X35755000Y-101895000D03*
X51685000Y-101455000D03*
%TO.N,BT_PIN*%
X51865000Y-97945000D03*
X254180000Y-94375000D03*
X29725000Y-93595000D03*
X49245000Y-96575000D03*
%TO.N,Row0*%
X268550000Y-102260000D03*
X45215000Y-102245000D03*
%TO.N,Row1*%
X50935000Y-104745000D03*
X267610000Y-102460000D03*
%TO.N,Row2*%
X193010000Y-102091000D03*
X271610000Y-115100000D03*
X192540000Y-99460000D03*
X46605000Y-107805000D03*
%TO.N,Row3*%
X264490000Y-116890000D03*
X46405000Y-112385000D03*
%TO.N,Row4*%
X254110000Y-117490000D03*
X27295000Y-114495000D03*
%TO.N,Column0*%
X119145000Y-75875000D03*
X244870000Y-98938500D03*
X65885000Y-79115000D03*
X188380000Y-100410000D03*
%TO.N,Column1*%
X243340000Y-99010000D03*
X101925000Y-76965000D03*
X64445000Y-84485000D03*
X206010000Y-99140000D03*
%TO.N,Column2*%
X243400000Y-99940000D03*
X64395000Y-101825000D03*
X223770000Y-100080000D03*
X84745000Y-101635000D03*
%TO.N,Column3*%
X65355000Y-106075000D03*
X241260000Y-105420000D03*
X67915000Y-106075000D03*
X243800000Y-105350000D03*
%TD*%
D17*
%TO.N,GND*%
X54766000Y-98909000D02*
X54766000Y-94066000D01*
X53765000Y-99910000D02*
X54766000Y-98909000D01*
X259891500Y-97725000D02*
X261245000Y-99078500D01*
X54766000Y-94066000D02*
X53545000Y-92845000D01*
X254010000Y-107545000D02*
X254010000Y-98635000D01*
X53230000Y-99910000D02*
X51685000Y-101455000D01*
X254010000Y-98635000D02*
X253100000Y-97725000D01*
X253100000Y-97725000D02*
X259891500Y-97725000D01*
X53765000Y-99910000D02*
X53230000Y-99910000D01*
X33115000Y-99255000D02*
X30905000Y-99255000D01*
X35755000Y-101895000D02*
X33115000Y-99255000D01*
%TO.N,BT_PIN*%
X38976000Y-102846000D02*
X29725000Y-93595000D01*
X49245000Y-100080000D02*
X47465000Y-101860000D01*
X253100000Y-95900000D02*
X253100000Y-95455000D01*
X52005000Y-98085000D02*
X51865000Y-97945000D01*
X53765000Y-98085000D02*
X52005000Y-98085000D01*
X253100000Y-95455000D02*
X254180000Y-94375000D01*
X252135000Y-95900000D02*
X249630000Y-98405000D01*
X46479000Y-102846000D02*
X38976000Y-102846000D01*
X47465000Y-101860000D02*
X46479000Y-102846000D01*
X49245000Y-96575000D02*
X49245000Y-100080000D01*
X253100000Y-95900000D02*
X252135000Y-95900000D01*
%TO.N,Net-(D1-A)*%
X165650000Y-71120000D02*
X158660000Y-71120000D01*
X167090000Y-69680000D02*
X165650000Y-71120000D01*
%TO.N,Row0*%
X88335000Y-58735000D02*
X100335000Y-58735000D01*
X100335000Y-58735000D02*
X104635000Y-63035000D01*
X53755000Y-68495000D02*
X45215000Y-77035000D01*
X221028892Y-63109000D02*
X214671000Y-63109000D01*
X214671000Y-63109000D02*
X212760000Y-65020000D01*
X227711000Y-67811000D02*
X224653108Y-67811000D01*
X245660000Y-85290000D02*
X251580000Y-85290000D01*
X230510000Y-70610000D02*
X232461000Y-68659000D01*
X197611000Y-59449000D02*
X195170000Y-61890000D01*
X163460000Y-64920000D02*
X158660000Y-69720000D01*
X181100000Y-61890000D02*
X178070000Y-64920000D01*
X207189000Y-59449000D02*
X197611000Y-59449000D01*
X221791000Y-64948892D02*
X221791000Y-63871108D01*
X195170000Y-61890000D02*
X181100000Y-61890000D01*
X221791000Y-63871108D02*
X221028892Y-63109000D01*
X104635000Y-63035000D02*
X105466000Y-62204000D01*
X242038892Y-68659000D02*
X245660000Y-72280108D01*
X232461000Y-68659000D02*
X242038892Y-68659000D01*
X74027500Y-59665000D02*
X87405000Y-59665000D01*
X70265000Y-63427500D02*
X74027500Y-59665000D01*
X245660000Y-72280108D02*
X245660000Y-85290000D01*
X53755000Y-68495000D02*
X58822500Y-63427500D01*
X105466000Y-62204000D02*
X117344000Y-62204000D01*
X251580000Y-85290000D02*
X268550000Y-102260000D01*
X224653108Y-67811000D02*
X221791000Y-64948892D01*
X58822500Y-63427500D02*
X70265000Y-63427500D01*
X117344000Y-62204000D02*
X123605000Y-68465000D01*
X178070000Y-64920000D02*
X163460000Y-64920000D01*
X87405000Y-59665000D02*
X88335000Y-58735000D01*
X45215000Y-77035000D02*
X45215000Y-102245000D01*
X230510000Y-70610000D02*
X227711000Y-67811000D01*
X212760000Y-65020000D02*
X207189000Y-59449000D01*
%TO.N,Net-(D2-A)*%
X164327500Y-91682500D02*
X158510000Y-91682500D01*
X167100000Y-88910000D02*
X164327500Y-91682500D01*
%TO.N,Row1*%
X181577500Y-80612500D02*
X195130000Y-80612500D01*
X100244000Y-78624000D02*
X104495000Y-82875000D01*
X158510000Y-90282500D02*
X164362500Y-84430000D01*
X194479000Y-81263500D02*
X194479000Y-82353468D01*
X211959000Y-86890968D02*
X213157032Y-88089000D01*
X105306000Y-82064000D02*
X118054000Y-82064000D01*
X87055000Y-79477500D02*
X87908500Y-78624000D01*
X74375000Y-79477500D02*
X87055000Y-79477500D01*
X53905000Y-87965000D02*
X56451532Y-85418468D01*
X50935000Y-90935000D02*
X50935000Y-104745000D01*
X164362500Y-84430000D02*
X177760000Y-84430000D01*
X118054000Y-82064000D02*
X124155000Y-88165000D01*
X68434032Y-85418468D02*
X70175000Y-83677500D01*
X213157032Y-88089000D02*
X228639000Y-88089000D01*
X267610000Y-102457160D02*
X267610000Y-102460000D01*
X87908500Y-78624000D02*
X100244000Y-78624000D01*
X230510000Y-89960000D02*
X232841000Y-87629000D01*
X194756532Y-82631000D02*
X210091000Y-82631000D01*
X70175000Y-83677500D02*
X74375000Y-79477500D01*
X252781840Y-87629000D02*
X267610000Y-102457160D01*
X210091000Y-82631000D02*
X212610000Y-85150000D01*
X228639000Y-88089000D02*
X230510000Y-89960000D01*
X53905000Y-87965000D02*
X50935000Y-90935000D01*
X56451532Y-85418468D02*
X68434032Y-85418468D01*
X194479000Y-82353468D02*
X194756532Y-82631000D01*
X104495000Y-82875000D02*
X105306000Y-82064000D01*
X212610000Y-85150000D02*
X211959000Y-85801000D01*
X232841000Y-87629000D02*
X252781840Y-87629000D01*
X177760000Y-84430000D02*
X181577500Y-80612500D01*
X195130000Y-80612500D02*
X194479000Y-81263500D01*
X211959000Y-85801000D02*
X211959000Y-86890968D01*
%TO.N,Row2*%
X70005000Y-103635000D02*
X71404000Y-102236000D01*
X230160000Y-109270000D02*
X232621000Y-106809000D01*
X212159000Y-104651000D02*
X212810000Y-104000000D01*
X84993943Y-102236000D02*
X85346000Y-101883943D01*
X212810000Y-104000000D02*
X210769000Y-106041000D01*
X210769000Y-106041000D02*
X196960000Y-106041000D01*
X86855000Y-98985000D02*
X87766000Y-98074000D01*
X213528032Y-107110000D02*
X212159000Y-105740968D01*
X71404000Y-102236000D02*
X84993943Y-102236000D01*
X196960000Y-106041000D02*
X193010000Y-102091000D01*
X228000000Y-107110000D02*
X213528032Y-107110000D01*
X164490000Y-104100000D02*
X159140000Y-109450000D01*
X230160000Y-109270000D02*
X228000000Y-107110000D01*
X192620000Y-99380000D02*
X195170000Y-99380000D01*
X105296000Y-101774000D02*
X118841500Y-101774000D01*
X46615000Y-107815000D02*
X46605000Y-107805000D01*
X195170000Y-99380000D02*
X182530000Y-99380000D01*
X87766000Y-98074000D02*
X99814000Y-98074000D01*
X53275000Y-107815000D02*
X46615000Y-107815000D01*
X182530000Y-99380000D02*
X177810000Y-104100000D01*
X271340000Y-114830000D02*
X271610000Y-115100000D01*
X243559000Y-106809000D02*
X251580000Y-114830000D01*
X177810000Y-104100000D02*
X164490000Y-104100000D01*
X57455000Y-103635000D02*
X70005000Y-103635000D01*
X85346000Y-100494000D02*
X86855000Y-98985000D01*
X104405000Y-102665000D02*
X105296000Y-101774000D01*
X118841500Y-101774000D02*
X124205000Y-107137500D01*
X212159000Y-105740968D02*
X212159000Y-104651000D01*
X192540000Y-99460000D02*
X192620000Y-99380000D01*
X85346000Y-101883943D02*
X85346000Y-100494000D01*
X251580000Y-114830000D02*
X271340000Y-114830000D01*
X53275000Y-107815000D02*
X57455000Y-103635000D01*
X232621000Y-106809000D02*
X243559000Y-106809000D01*
X99814000Y-98074000D02*
X104405000Y-102665000D01*
%TO.N,Net-(D3-A)*%
X164430000Y-110850000D02*
X159140000Y-110850000D01*
X167410000Y-107870000D02*
X164430000Y-110850000D01*
%TO.N,Net-(D4-A)*%
X165837500Y-128872500D02*
X159460000Y-128872500D01*
X167410000Y-127300000D02*
X165837500Y-128872500D01*
%TO.N,Row3*%
X182160000Y-118490000D02*
X194930000Y-118490000D01*
X215011000Y-120279000D02*
X224008892Y-120279000D01*
X105216000Y-120774000D02*
X118291500Y-120774000D01*
X53145000Y-127505000D02*
X53145000Y-119125000D01*
X86755000Y-118735000D02*
X87656000Y-117834000D01*
X230510000Y-128320000D02*
X242070000Y-116760000D01*
X104435000Y-121555000D02*
X105216000Y-120774000D01*
X212660000Y-122630000D02*
X215011000Y-120279000D01*
X224008892Y-120279000D02*
X230510000Y-126780108D01*
X206488892Y-115849000D02*
X212660000Y-122020108D01*
X100714000Y-117834000D02*
X104435000Y-121555000D01*
X197571000Y-115849000D02*
X206488892Y-115849000D01*
X87656000Y-117834000D02*
X100714000Y-117834000D01*
X177620000Y-123030000D02*
X182160000Y-118490000D01*
X74275000Y-118735000D02*
X86755000Y-118735000D01*
X194930000Y-118490000D02*
X197571000Y-115849000D01*
X230510000Y-126780108D02*
X230510000Y-128320000D01*
X53145000Y-119125000D02*
X46405000Y-112385000D01*
X57645000Y-123005000D02*
X70005000Y-123005000D01*
X53145000Y-127505000D02*
X57645000Y-123005000D01*
X212660000Y-122020108D02*
X212660000Y-122630000D01*
X159460000Y-127472500D02*
X163902500Y-123030000D01*
X242070000Y-116760000D02*
X259900000Y-116760000D01*
X70005000Y-123005000D02*
X74275000Y-118735000D01*
X163902500Y-123030000D02*
X177620000Y-123030000D01*
X264360000Y-116760000D02*
X264490000Y-116890000D01*
X259900000Y-116760000D02*
X264360000Y-116760000D01*
X118291500Y-120774000D02*
X124195000Y-126677500D01*
%TO.N,Net-(D5-A)*%
X183830000Y-66320000D02*
X178070000Y-66320000D01*
X185780000Y-64370000D02*
X183830000Y-66320000D01*
%TO.N,Net-(D6-A)*%
X183730000Y-85830000D02*
X177760000Y-85830000D01*
X185780000Y-83780000D02*
X183730000Y-85830000D01*
%TO.N,Net-(D7-A)*%
X183470000Y-105500000D02*
X177810000Y-105500000D01*
X185770000Y-103200000D02*
X183470000Y-105500000D01*
%TO.N,Net-(D8-A)*%
X183410000Y-124430000D02*
X177620000Y-124430000D01*
X185960000Y-121880000D02*
X183410000Y-124430000D01*
%TO.N,Net-(D9-A)*%
X200600000Y-63290000D02*
X195170000Y-63290000D01*
X203140000Y-60750000D02*
X200600000Y-63290000D01*
%TO.N,Net-(D10-A)*%
X200467500Y-82012500D02*
X195130000Y-82012500D01*
X203250000Y-79230000D02*
X200467500Y-82012500D01*
%TO.N,Net-(D11-A)*%
X200450000Y-100780000D02*
X195170000Y-100780000D01*
X203140000Y-98090000D02*
X200450000Y-100780000D01*
%TO.N,Net-(D12-A)*%
X200310000Y-119890000D02*
X194930000Y-119890000D01*
X203050000Y-117150000D02*
X200310000Y-119890000D01*
%TO.N,Net-(D13-A)*%
X218480000Y-66420000D02*
X212760000Y-66420000D01*
X220490000Y-64410000D02*
X218480000Y-66420000D01*
%TO.N,Net-(D14-A)*%
X218540000Y-86550000D02*
X212610000Y-86550000D01*
X220850000Y-84240000D02*
X218540000Y-86550000D01*
%TO.N,Net-(D15-A)*%
X218740000Y-105400000D02*
X212810000Y-105400000D01*
X220850000Y-103290000D02*
X218740000Y-105400000D01*
%TO.N,Net-(D16-A)*%
X220570000Y-121580000D02*
X218120000Y-124030000D01*
X218120000Y-124030000D02*
X212660000Y-124030000D01*
%TO.N,Net-(D17-A)*%
X238600000Y-69960000D02*
X236550000Y-72010000D01*
X236550000Y-72010000D02*
X230510000Y-72010000D01*
%TO.N,Net-(D18-A)*%
X235970000Y-91360000D02*
X230510000Y-91360000D01*
X238400000Y-88930000D02*
X235970000Y-91360000D01*
%TO.N,Net-(D19-A)*%
X238200000Y-108110000D02*
X235640000Y-110670000D01*
X235640000Y-110670000D02*
X230160000Y-110670000D01*
%TO.N,Net-(D20-A)*%
X237990000Y-127480000D02*
X235750000Y-129720000D01*
X235750000Y-129720000D02*
X230510000Y-129720000D01*
%TO.N,Net-(D21-A)*%
X250430000Y-122340000D02*
X255530000Y-122340000D01*
X255530000Y-122340000D02*
X258130000Y-119740000D01*
%TO.N,Row4*%
X32955000Y-118895000D02*
X31695000Y-118895000D01*
X250430000Y-120940000D02*
X250660000Y-120940000D01*
X250660000Y-120940000D02*
X254110000Y-117490000D01*
X31695000Y-118895000D02*
X27295000Y-114495000D01*
%TO.N,Net-(D22-A)*%
X132865000Y-68815000D02*
X131815000Y-69865000D01*
X131815000Y-69865000D02*
X123605000Y-69865000D01*
%TO.N,Net-(D23-A)*%
X132155000Y-89565000D02*
X124155000Y-89565000D01*
X133205000Y-88515000D02*
X132155000Y-89565000D01*
%TO.N,Net-(D24-A)*%
X133165000Y-107615000D02*
X125127500Y-107615000D01*
X125127500Y-107615000D02*
X124205000Y-108537500D01*
%TO.N,Net-(D25-A)*%
X125127500Y-127145000D02*
X124195000Y-128077500D01*
X133165000Y-127145000D02*
X125127500Y-127145000D01*
%TO.N,Net-(D26-A)*%
X113845000Y-63505000D02*
X105565000Y-63505000D01*
X105565000Y-63505000D02*
X104635000Y-64435000D01*
%TO.N,Net-(D27-A)*%
X105405000Y-83365000D02*
X104495000Y-84275000D01*
X113525000Y-83365000D02*
X105405000Y-83365000D01*
%TO.N,Net-(D28-A)*%
X105395000Y-103075000D02*
X104405000Y-104065000D01*
X113445000Y-103075000D02*
X105395000Y-103075000D01*
%TO.N,Net-(D29-A)*%
X113505000Y-122075000D02*
X105315000Y-122075000D01*
X105315000Y-122075000D02*
X104435000Y-122955000D01*
%TO.N,Net-(D30-A)*%
X96395000Y-60145000D02*
X88325000Y-60145000D01*
X88325000Y-60145000D02*
X87405000Y-61065000D01*
%TO.N,Net-(D31-A)*%
X96135000Y-79925000D02*
X88007500Y-79925000D01*
X88007500Y-79925000D02*
X87055000Y-80877500D01*
%TO.N,Net-(D32-A)*%
X95905000Y-99375000D02*
X94895000Y-100385000D01*
X94895000Y-100385000D02*
X86855000Y-100385000D01*
%TO.N,Net-(D33-A)*%
X95815000Y-119135000D02*
X94815000Y-120135000D01*
X94815000Y-120135000D02*
X86755000Y-120135000D01*
%TO.N,Net-(D34-A)*%
X79255000Y-63935000D02*
X71157500Y-63935000D01*
X71157500Y-63935000D02*
X70265000Y-64827500D01*
%TO.N,Net-(D35-A)*%
X79255000Y-84075000D02*
X78252500Y-85077500D01*
X78252500Y-85077500D02*
X70175000Y-85077500D01*
%TO.N,Net-(D36-A)*%
X78015000Y-105035000D02*
X70005000Y-105035000D01*
X79135000Y-103915000D02*
X78015000Y-105035000D01*
%TO.N,Net-(D37-A)*%
X79095000Y-123475000D02*
X70935000Y-123475000D01*
X70935000Y-123475000D02*
X70005000Y-124405000D01*
%TO.N,Net-(D38-A)*%
X54625000Y-69025000D02*
X53755000Y-69895000D01*
X62685000Y-69025000D02*
X54625000Y-69025000D01*
%TO.N,Net-(D39-A)*%
X62575000Y-88585000D02*
X54685000Y-88585000D01*
X54685000Y-88585000D02*
X53905000Y-89365000D01*
%TO.N,Net-(D40-A)*%
X62395000Y-108285000D02*
X54205000Y-108285000D01*
X54205000Y-108285000D02*
X53275000Y-109215000D01*
%TO.N,Net-(D41-A)*%
X62115000Y-127965000D02*
X54085000Y-127965000D01*
X54085000Y-127965000D02*
X53145000Y-128905000D01*
%TO.N,Net-(D42-A)*%
X42155000Y-119275000D02*
X41135000Y-120295000D01*
X41135000Y-120295000D02*
X32955000Y-120295000D01*
%TO.N,VBAT*%
X47465000Y-92185000D02*
X48355000Y-91295000D01*
X48355000Y-99145000D02*
X48355000Y-94575000D01*
X33545000Y-102655000D02*
X30905000Y-102655000D01*
X253471108Y-108846000D02*
X254877500Y-108846000D01*
X50135000Y-100688660D02*
X47108660Y-103715000D01*
X249630000Y-100230000D02*
X252225000Y-100230000D01*
X50005000Y-94575000D02*
X50135000Y-94705000D01*
X252709000Y-102116000D02*
X252709000Y-108083892D01*
X47465000Y-100035000D02*
X47125000Y-100035000D01*
X249630000Y-100230000D02*
X249630000Y-106915000D01*
X249630000Y-106915000D02*
X250200000Y-107485000D01*
X252225000Y-100230000D02*
X253410000Y-101415000D01*
X50135000Y-94705000D02*
X50135000Y-100688660D01*
X252709000Y-108083892D02*
X253471108Y-108846000D01*
X47465000Y-100035000D02*
X48355000Y-99145000D01*
X253410000Y-101415000D02*
X252709000Y-102116000D01*
X254877500Y-108846000D02*
X261245000Y-102478500D01*
X47108660Y-103715000D02*
X34605000Y-103715000D01*
X48355000Y-94575000D02*
X50005000Y-94575000D01*
X34605000Y-103715000D02*
X33545000Y-102655000D01*
X47465000Y-100035000D02*
X47465000Y-92185000D01*
%TO.N,Column0*%
X242698943Y-101491000D02*
X244870000Y-99319943D01*
X119145000Y-75875000D02*
X69125000Y-75875000D01*
X188380000Y-100410000D02*
X189461000Y-101491000D01*
X69125000Y-75875000D02*
X65885000Y-79115000D01*
X189461000Y-101491000D02*
X242698943Y-101491000D01*
X244870000Y-99319943D02*
X244870000Y-98938500D01*
%TO.N,Column1*%
X206261000Y-98889000D02*
X243219000Y-98889000D01*
X243219000Y-98889000D02*
X243340000Y-99010000D01*
X71965000Y-76965000D02*
X64445000Y-84485000D01*
X101925000Y-76965000D02*
X71965000Y-76965000D01*
X206010000Y-99140000D02*
X206261000Y-98889000D01*
%TO.N,Column2*%
X243260000Y-100080000D02*
X243400000Y-99940000D01*
X223770000Y-100080000D02*
X243260000Y-100080000D01*
X64585000Y-101635000D02*
X64395000Y-101825000D01*
X84745000Y-101635000D02*
X64585000Y-101635000D01*
%TO.N,Column3*%
X243730000Y-105420000D02*
X243800000Y-105350000D01*
X241260000Y-105420000D02*
X243730000Y-105420000D01*
X65505000Y-105925000D02*
X65355000Y-106075000D01*
X65655000Y-106075000D02*
X65505000Y-105925000D01*
X67915000Y-106075000D02*
X65655000Y-106075000D01*
%TD*%
M02*
