%TF.GenerationSoftware,KiCad,Pcbnew,9.0.7*%
%TF.CreationDate,2026-04-05T19:33:01-07:00*%
%TF.ProjectId,SplitKeyboardCAD,53706c69-744b-4657-9962-6f6172644341,rev?*%
%TF.SameCoordinates,Original*%
%TF.FileFunction,Paste,Bot*%
%TF.FilePolarity,Positive*%
%FSLAX46Y46*%
G04 Gerber Fmt 4.6, Leading zero omitted, Abs format (unit mm)*
G04 Created by KiCad (PCBNEW 9.0.7) date 2026-04-05 19:33:01*
%MOMM*%
%LPD*%
G01*
G04 APERTURE LIST*
G04 Aperture macros list*
%AMRoundRect*
0 Rectangle with rounded corners*
0 $1 Rounding radius*
0 $2 $3 $4 $5 $6 $7 $8 $9 X,Y pos of 4 corners*
0 Add a 4 corners polygon primitive as box body*
4,1,4,$2,$3,$4,$5,$6,$7,$8,$9,$2,$3,0*
0 Add four circle primitives for the rounded corners*
1,1,$1+$1,$2,$3*
1,1,$1+$1,$4,$5*
1,1,$1+$1,$6,$7*
1,1,$1+$1,$8,$9*
0 Add four rect primitives between the rounded corners*
20,1,$1+$1,$2,$3,$4,$5,0*
20,1,$1+$1,$4,$5,$6,$7,0*
20,1,$1+$1,$6,$7,$8,$9,0*
20,1,$1+$1,$8,$9,$2,$3,0*%
G04 Aperture macros list end*
%ADD10RoundRect,0.150000X0.200000X-0.150000X0.200000X0.150000X-0.200000X0.150000X-0.200000X-0.150000X0*%
%ADD11RoundRect,0.250000X0.450000X-0.262500X0.450000X0.262500X-0.450000X0.262500X-0.450000X-0.262500X0*%
%ADD12RoundRect,0.250000X-0.450000X0.262500X-0.450000X-0.262500X0.450000X-0.262500X0.450000X0.262500X0*%
G04 APERTURE END LIST*
D10*
%TO.C,D40*%
X53275000Y-107815000D03*
X53275000Y-109215000D03*
%TD*%
%TO.C,D11*%
X195170000Y-99380000D03*
X195170000Y-100780000D03*
%TD*%
%TO.C,D22*%
X123605000Y-68465000D03*
X123605000Y-69865000D03*
%TD*%
%TO.C,D26*%
X104635000Y-63035000D03*
X104635000Y-64435000D03*
%TD*%
%TO.C,D15*%
X212810000Y-104000000D03*
X212810000Y-105400000D03*
%TD*%
%TO.C,D2*%
X158510000Y-90282500D03*
X158510000Y-91682500D03*
%TD*%
%TO.C,D6*%
X177760000Y-84430000D03*
X177760000Y-85830000D03*
%TD*%
%TO.C,D14*%
X212610000Y-85150000D03*
X212610000Y-86550000D03*
%TD*%
%TO.C,D21*%
X250430000Y-120940000D03*
X250430000Y-122340000D03*
%TD*%
%TO.C,D35*%
X70175000Y-83677500D03*
X70175000Y-85077500D03*
%TD*%
%TO.C,D36*%
X70005000Y-103635000D03*
X70005000Y-105035000D03*
%TD*%
%TO.C,D33*%
X86755000Y-118735000D03*
X86755000Y-120135000D03*
%TD*%
%TO.C,D39*%
X53905000Y-87965000D03*
X53905000Y-89365000D03*
%TD*%
%TO.C,D10*%
X195130000Y-80612500D03*
X195130000Y-82012500D03*
%TD*%
%TO.C,D16*%
X212660000Y-122630000D03*
X212660000Y-124030000D03*
%TD*%
%TO.C,D9*%
X195170000Y-61890000D03*
X195170000Y-63290000D03*
%TD*%
%TO.C,D19*%
X230160000Y-109270000D03*
X230160000Y-110670000D03*
%TD*%
D11*
%TO.C,R1*%
X249630000Y-100230000D03*
X249630000Y-98405000D03*
%TD*%
D10*
%TO.C,D42*%
X32955000Y-118895000D03*
X32955000Y-120295000D03*
%TD*%
D12*
%TO.C,R2*%
X253100000Y-95900000D03*
X253100000Y-97725000D03*
%TD*%
%TO.C,R3*%
X47465000Y-100035000D03*
X47465000Y-101860000D03*
%TD*%
D10*
%TO.C,D41*%
X53145000Y-127505000D03*
X53145000Y-128905000D03*
%TD*%
%TO.C,D30*%
X87405000Y-59665000D03*
X87405000Y-61065000D03*
%TD*%
D12*
%TO.C,R4*%
X53765000Y-98085000D03*
X53765000Y-99910000D03*
%TD*%
D10*
%TO.C,D31*%
X87055000Y-79477500D03*
X87055000Y-80877500D03*
%TD*%
%TO.C,D32*%
X86855000Y-98985000D03*
X86855000Y-100385000D03*
%TD*%
%TO.C,D8*%
X177620000Y-123030000D03*
X177620000Y-124430000D03*
%TD*%
%TO.C,D17*%
X230510000Y-70610000D03*
X230510000Y-72010000D03*
%TD*%
%TO.C,D7*%
X177810000Y-104100000D03*
X177810000Y-105500000D03*
%TD*%
%TO.C,D28*%
X104405000Y-102665000D03*
X104405000Y-104065000D03*
%TD*%
%TO.C,D24*%
X124205000Y-107137500D03*
X124205000Y-108537500D03*
%TD*%
%TO.C,D29*%
X104435000Y-121555000D03*
X104435000Y-122955000D03*
%TD*%
%TO.C,D23*%
X124155000Y-88165000D03*
X124155000Y-89565000D03*
%TD*%
%TO.C,D25*%
X124195000Y-126677500D03*
X124195000Y-128077500D03*
%TD*%
%TO.C,D5*%
X178070000Y-64920000D03*
X178070000Y-66320000D03*
%TD*%
%TO.C,D1*%
X158660000Y-69720000D03*
X158660000Y-71120000D03*
%TD*%
%TO.C,D38*%
X53755000Y-68495000D03*
X53755000Y-69895000D03*
%TD*%
%TO.C,D20*%
X230510000Y-128320000D03*
X230510000Y-129720000D03*
%TD*%
%TO.C,D18*%
X230510000Y-89960000D03*
X230510000Y-91360000D03*
%TD*%
%TO.C,D4*%
X159460000Y-127472500D03*
X159460000Y-128872500D03*
%TD*%
%TO.C,D34*%
X70265000Y-63427500D03*
X70265000Y-64827500D03*
%TD*%
%TO.C,D12*%
X194930000Y-118490000D03*
X194930000Y-119890000D03*
%TD*%
%TO.C,D13*%
X212760000Y-65020000D03*
X212760000Y-66420000D03*
%TD*%
%TO.C,D27*%
X104495000Y-82875000D03*
X104495000Y-84275000D03*
%TD*%
%TO.C,D37*%
X70005000Y-123005000D03*
X70005000Y-124405000D03*
%TD*%
%TO.C,D3*%
X159140000Y-109450000D03*
X159140000Y-110850000D03*
%TD*%
M02*
