%TF.GenerationSoftware,KiCad,Pcbnew,9.0.7*%
%TF.CreationDate,2026-04-05T19:33:01-07:00*%
%TF.ProjectId,SplitKeyboardCAD,53706c69-744b-4657-9962-6f6172644341,rev?*%
%TF.SameCoordinates,Original*%
%TF.FileFunction,Copper,L1,Top*%
%TF.FilePolarity,Positive*%
%FSLAX46Y46*%
G04 Gerber Fmt 4.6, Leading zero omitted, Abs format (unit mm)*
G04 Created by KiCad (PCBNEW 9.0.7) date 2026-04-05 19:33:01*
%MOMM*%
%LPD*%
G01*
G04 APERTURE LIST*
G04 Aperture macros list*
%AMRoundRect*
0 Rectangle with rounded corners*
0 $1 Rounding radius*
0 $2 $3 $4 $5 $6 $7 $8 $9 X,Y pos of 4 corners*
0 Add a 4 corners polygon primitive as box body*
4,1,4,$2,$3,$4,$5,$6,$7,$8,$9,$2,$3,0*
0 Add four circle primitives for the rounded corners*
1,1,$1+$1,$2,$3*
1,1,$1+$1,$4,$5*
1,1,$1+$1,$6,$7*
1,1,$1+$1,$8,$9*
0 Add four rect primitives between the rounded corners*
20,1,$1+$1,$2,$3,$4,$5,0*
20,1,$1+$1,$4,$5,$6,$7,0*
20,1,$1+$1,$6,$7,$8,$9,0*
20,1,$1+$1,$8,$9,$2,$3,0*%
G04 Aperture macros list end*
%TA.AperFunction,SMDPad,CuDef*%
%ADD10RoundRect,0.500000X-0.875000X-0.500000X0.875000X-0.500000X0.875000X0.500000X-0.875000X0.500000X0*%
%TD*%
%TA.AperFunction,ComponentPad*%
%ADD11RoundRect,0.750000X0.750000X0.750000X-0.750000X0.750000X-0.750000X-0.750000X0.750000X-0.750000X0*%
%TD*%
%TA.AperFunction,SMDPad,CuDef*%
%ADD12RoundRect,0.275000X-0.275000X0.975000X-0.275000X-0.975000X0.275000X-0.975000X0.275000X0.975000X0*%
%TD*%
%TA.AperFunction,SMDPad,CuDef*%
%ADD13C,1.700000*%
%TD*%
%TA.AperFunction,ComponentPad*%
%ADD14C,2.000000*%
%TD*%
%TA.AperFunction,ViaPad*%
%ADD15C,0.600000*%
%TD*%
%TA.AperFunction,Conductor*%
%ADD16C,0.200000*%
%TD*%
G04 APERTURE END LIST*
D10*
%TO.P,U1,1,P0.02_A0_D0*%
%TO.N,BT_PIN*%
X257635000Y-94458500D03*
%TO.P,U1,2,P0.03_A1_D1*%
%TO.N,Column0*%
X257635000Y-96998500D03*
%TO.P,U1,3,P0.28_A2_D2*%
%TO.N,Column1*%
X257635000Y-99538500D03*
%TO.P,U1,4,P0.29_A3_D3*%
%TO.N,Column2*%
X257635000Y-102078500D03*
%TO.P,U1,5,P0.04_A4_D4_SDA*%
%TO.N,Column3*%
X257635000Y-104618500D03*
%TO.P,U1,6,P0.05_A5_D5_SCL*%
%TO.N,Column4*%
X257635000Y-107158500D03*
%TO.P,U1,7,P1.11_D6_TX*%
%TO.N,Row4*%
X257635000Y-109698500D03*
%TO.P,U1,8,P1.12_D7_RX*%
%TO.N,Row3*%
X273800000Y-109698500D03*
%TO.P,U1,9,P1.13_D8_SCK*%
%TO.N,Row2*%
X273800000Y-107158500D03*
%TO.P,U1,10,P1.14_D9_MISO*%
%TO.N,Row1*%
X273800000Y-104618500D03*
%TO.P,U1,11,P1.15_D10_MOSI*%
%TO.N,Row0*%
X273800000Y-102078500D03*
%TO.P,U1,12,3V3*%
%TO.N,unconnected-(U1-3V3-Pad12)*%
X273800000Y-99538500D03*
%TO.P,U1,13,GND*%
%TO.N,GND*%
X273800000Y-96998500D03*
%TO.P,U1,14,5V*%
%TO.N,unconnected-(U1-5V-Pad14)*%
X273800000Y-94458500D03*
D11*
%TO.P,U1,15,BAT*%
%TO.N,VBAT*%
X261245000Y-102478500D03*
%TO.P,U1,16,GND*%
%TO.N,GND*%
X261245000Y-99078500D03*
D12*
%TO.P,U1,17,NFC1*%
%TO.N,unconnected-(U1-NFC1-Pad17)*%
X269500000Y-111315400D03*
%TO.P,U1,18,NFC2*%
%TO.N,unconnected-(U1-NFC2-Pad18)*%
X271405000Y-111315400D03*
D13*
%TO.P,U1,19,PA31_SWDIO*%
%TO.N,unconnected-(U1-PA31_SWDIO-Pad19)*%
X264420000Y-93510000D03*
%TO.P,U1,20,PA30_SWCLK*%
%TO.N,unconnected-(U1-PA30_SWCLK-Pad20)*%
X266960000Y-93510000D03*
%TO.P,U1,21,RESET*%
%TO.N,unconnected-(U1-RESET-Pad21)*%
X264420000Y-96050000D03*
%TO.P,U1,22,GND*%
%TO.N,unconnected-(U1-GND-Pad22)*%
X266960000Y-96050000D03*
%TD*%
D14*
%TO.P,SW10,1,1*%
%TO.N,Column2*%
X208250000Y-81330000D03*
%TO.P,SW10,2,2*%
%TO.N,Net-(D10-A)*%
X203250000Y-79230000D03*
%TD*%
%TO.P,SW9,1,1*%
%TO.N,Column2*%
X208140000Y-62850000D03*
%TO.P,SW9,2,2*%
%TO.N,Net-(D9-A)*%
X203140000Y-60750000D03*
%TD*%
%TO.P,SW32,1,1*%
%TO.N,Column2*%
X100905000Y-101475000D03*
%TO.P,SW32,2,2*%
%TO.N,Net-(D32-A)*%
X95905000Y-99375000D03*
%TD*%
%TO.P,SW12,1,1*%
%TO.N,Column2*%
X208050000Y-119250000D03*
%TO.P,SW12,2,2*%
%TO.N,Net-(D12-A)*%
X203050000Y-117150000D03*
%TD*%
%TO.P,SW26,1,1*%
%TO.N,Column1*%
X118845000Y-65605000D03*
%TO.P,SW26,2,2*%
%TO.N,Net-(D26-A)*%
X113845000Y-63505000D03*
%TD*%
%TO.P,SW38,1,1*%
%TO.N,Column4*%
X67685000Y-71125000D03*
%TO.P,SW38,2,2*%
%TO.N,Net-(D38-A)*%
X62685000Y-69025000D03*
%TD*%
%TO.P,SW14,1,1*%
%TO.N,Column3*%
X225850000Y-86340000D03*
%TO.P,SW14,2,2*%
%TO.N,Net-(D14-A)*%
X220850000Y-84240000D03*
%TD*%
%TO.P,SW24,1,1*%
%TO.N,Column0*%
X138165000Y-109715000D03*
%TO.P,SW24,2,2*%
%TO.N,Net-(D24-A)*%
X133165000Y-107615000D03*
%TD*%
%TO.P,SW28,1,1*%
%TO.N,Column1*%
X118445000Y-105175000D03*
%TO.P,SW28,2,2*%
%TO.N,Net-(D28-A)*%
X113445000Y-103075000D03*
%TD*%
%TO.P,SW5,1,1*%
%TO.N,Column1*%
X190780000Y-66470000D03*
%TO.P,SW5,2,2*%
%TO.N,Net-(D5-A)*%
X185780000Y-64370000D03*
%TD*%
%TO.P,SW7,1,1*%
%TO.N,Column1*%
X190770000Y-105300000D03*
%TO.P,SW7,2,2*%
%TO.N,Net-(D7-A)*%
X185770000Y-103200000D03*
%TD*%
%TO.P,SW6,1,1*%
%TO.N,Column1*%
X190780000Y-85880000D03*
%TO.P,SW6,2,2*%
%TO.N,Net-(D6-A)*%
X185780000Y-83780000D03*
%TD*%
%TO.P,SW29,1,1*%
%TO.N,Column1*%
X118505000Y-124175000D03*
%TO.P,SW29,2,2*%
%TO.N,Net-(D29-A)*%
X113505000Y-122075000D03*
%TD*%
%TO.P,SW27,1,1*%
%TO.N,Column1*%
X118525000Y-85465000D03*
%TO.P,SW27,2,2*%
%TO.N,Net-(D27-A)*%
X113525000Y-83365000D03*
%TD*%
%TO.P,SW41,1,1*%
%TO.N,Column4*%
X67115000Y-130065000D03*
%TO.P,SW41,2,2*%
%TO.N,Net-(D41-A)*%
X62115000Y-127965000D03*
%TD*%
%TO.P,SW22,1,1*%
%TO.N,Column0*%
X137865000Y-70915000D03*
%TO.P,SW22,2,2*%
%TO.N,Net-(D22-A)*%
X132865000Y-68815000D03*
%TD*%
%TO.P,SW30,1,1*%
%TO.N,Column2*%
X101395000Y-62245000D03*
%TO.P,SW30,2,2*%
%TO.N,Net-(D30-A)*%
X96395000Y-60145000D03*
%TD*%
%TO.P,SW37,1,1*%
%TO.N,Column3*%
X84095000Y-125575000D03*
%TO.P,SW37,2,2*%
%TO.N,Net-(D37-A)*%
X79095000Y-123475000D03*
%TD*%
D10*
%TO.P,U2,1,P0.02_A0_D0*%
%TO.N,BT_PIN*%
X27295000Y-94635000D03*
%TO.P,U2,2,P0.03_A1_D1*%
%TO.N,Column0*%
X27295000Y-97175000D03*
%TO.P,U2,3,P0.28_A2_D2*%
%TO.N,Column1*%
X27295000Y-99715000D03*
%TO.P,U2,4,P0.29_A3_D3*%
%TO.N,Column2*%
X27295000Y-102255000D03*
%TO.P,U2,5,P0.04_A4_D4_SDA*%
%TO.N,Column3*%
X27295000Y-104795000D03*
%TO.P,U2,6,P0.05_A5_D5_SCL*%
%TO.N,Column4*%
X27295000Y-107335000D03*
%TO.P,U2,7,P1.11_D6_TX*%
%TO.N,Row4*%
X27295000Y-109875000D03*
%TO.P,U2,8,P1.12_D7_RX*%
%TO.N,Row3*%
X43460000Y-109875000D03*
%TO.P,U2,9,P1.13_D8_SCK*%
%TO.N,Row2*%
X43460000Y-107335000D03*
%TO.P,U2,10,P1.14_D9_MISO*%
%TO.N,Row1*%
X43460000Y-104795000D03*
%TO.P,U2,11,P1.15_D10_MOSI*%
%TO.N,Row0*%
X43460000Y-102255000D03*
%TO.P,U2,12,3V3*%
%TO.N,unconnected-(U2-3V3-Pad12)*%
X43460000Y-99715000D03*
%TO.P,U2,13,GND*%
%TO.N,GND*%
X43460000Y-97175000D03*
%TO.P,U2,14,5V*%
%TO.N,unconnected-(U2-5V-Pad14)*%
X43460000Y-94635000D03*
D11*
%TO.P,U2,15,BAT*%
%TO.N,VBAT*%
X30905000Y-102655000D03*
%TO.P,U2,16,GND*%
%TO.N,GND*%
X30905000Y-99255000D03*
D12*
%TO.P,U2,17,NFC1*%
%TO.N,unconnected-(U2-NFC1-Pad17)*%
X39160000Y-111491900D03*
%TO.P,U2,18,NFC2*%
%TO.N,unconnected-(U2-NFC2-Pad18)*%
X41065000Y-111491900D03*
D13*
%TO.P,U2,19,PA31_SWDIO*%
%TO.N,unconnected-(U2-PA31_SWDIO-Pad19)*%
X34080000Y-93686500D03*
%TO.P,U2,20,PA30_SWCLK*%
%TO.N,unconnected-(U2-PA30_SWCLK-Pad20)*%
X36620000Y-93686500D03*
%TO.P,U2,21,RESET*%
%TO.N,unconnected-(U2-RESET-Pad21)*%
X34080000Y-96226500D03*
%TO.P,U2,22,GND*%
%TO.N,unconnected-(U2-GND-Pad22)*%
X36620000Y-96226500D03*
%TD*%
D14*
%TO.P,SW21,1,1*%
%TO.N,Column4*%
X263130000Y-121840000D03*
%TO.P,SW21,2,2*%
%TO.N,Net-(D21-A)*%
X258130000Y-119740000D03*
%TD*%
%TO.P,SW42,1,1*%
%TO.N,Column4*%
X47155000Y-121375000D03*
%TO.P,SW42,2,2*%
%TO.N,Net-(D42-A)*%
X42155000Y-119275000D03*
%TD*%
%TO.P,SW35,1,1*%
%TO.N,Column3*%
X84255000Y-86175000D03*
%TO.P,SW35,2,2*%
%TO.N,Net-(D35-A)*%
X79255000Y-84075000D03*
%TD*%
%TO.P,SW23,1,1*%
%TO.N,Column0*%
X138205000Y-90615000D03*
%TO.P,SW23,2,2*%
%TO.N,Net-(D23-A)*%
X133205000Y-88515000D03*
%TD*%
%TO.P,SW18,1,1*%
%TO.N,Column4*%
X243400000Y-91030000D03*
%TO.P,SW18,2,2*%
%TO.N,Net-(D18-A)*%
X238400000Y-88930000D03*
%TD*%
%TO.P,SW4,1,1*%
%TO.N,Column0*%
X172410000Y-129400000D03*
%TO.P,SW4,2,2*%
%TO.N,Net-(D4-A)*%
X167410000Y-127300000D03*
%TD*%
%TO.P,SW16,1,1*%
%TO.N,Column3*%
X225570000Y-123680000D03*
%TO.P,SW16,2,2*%
%TO.N,Net-(D16-A)*%
X220570000Y-121580000D03*
%TD*%
%TO.P,SW8,1,1*%
%TO.N,Column1*%
X190960000Y-123980000D03*
%TO.P,SW8,2,2*%
%TO.N,Net-(D8-A)*%
X185960000Y-121880000D03*
%TD*%
%TO.P,SW20,1,1*%
%TO.N,Column4*%
X242990000Y-129580000D03*
%TO.P,SW20,2,2*%
%TO.N,Net-(D20-A)*%
X237990000Y-127480000D03*
%TD*%
%TO.P,SW33,1,1*%
%TO.N,Column2*%
X100815000Y-121235000D03*
%TO.P,SW33,2,2*%
%TO.N,Net-(D33-A)*%
X95815000Y-119135000D03*
%TD*%
%TO.P,SW36,1,1*%
%TO.N,Column3*%
X84135000Y-106015000D03*
%TO.P,SW36,2,2*%
%TO.N,Net-(D36-A)*%
X79135000Y-103915000D03*
%TD*%
%TO.P,SW34,1,1*%
%TO.N,Column3*%
X84255000Y-66035000D03*
%TO.P,SW34,2,2*%
%TO.N,Net-(D34-A)*%
X79255000Y-63935000D03*
%TD*%
%TO.P,SW19,1,1*%
%TO.N,Column4*%
X243200000Y-110210000D03*
%TO.P,SW19,2,2*%
%TO.N,Net-(D19-A)*%
X238200000Y-108110000D03*
%TD*%
%TO.P,SW39,1,1*%
%TO.N,Column4*%
X67575000Y-90685000D03*
%TO.P,SW39,2,2*%
%TO.N,Net-(D39-A)*%
X62575000Y-88585000D03*
%TD*%
%TO.P,SW13,1,1*%
%TO.N,Column3*%
X225490000Y-66510000D03*
%TO.P,SW13,2,2*%
%TO.N,Net-(D13-A)*%
X220490000Y-64410000D03*
%TD*%
%TO.P,SW11,1,1*%
%TO.N,Column2*%
X208140000Y-100190000D03*
%TO.P,SW11,2,2*%
%TO.N,Net-(D11-A)*%
X203140000Y-98090000D03*
%TD*%
%TO.P,SW3,1,1*%
%TO.N,Column0*%
X172410000Y-109970000D03*
%TO.P,SW3,2,2*%
%TO.N,Net-(D3-A)*%
X167410000Y-107870000D03*
%TD*%
%TO.P,SW17,1,1*%
%TO.N,Column4*%
X243600000Y-72060000D03*
%TO.P,SW17,2,2*%
%TO.N,Net-(D17-A)*%
X238600000Y-69960000D03*
%TD*%
%TO.P,SW31,1,1*%
%TO.N,Column2*%
X101135000Y-82025000D03*
%TO.P,SW31,2,2*%
%TO.N,Net-(D31-A)*%
X96135000Y-79925000D03*
%TD*%
%TO.P,SW15,1,1*%
%TO.N,Column3*%
X225850000Y-105390000D03*
%TO.P,SW15,2,2*%
%TO.N,Net-(D15-A)*%
X220850000Y-103290000D03*
%TD*%
%TO.P,SW1,1,1*%
%TO.N,Column0*%
X172090000Y-71780000D03*
%TO.P,SW1,2,2*%
%TO.N,Net-(D1-A)*%
X167090000Y-69680000D03*
%TD*%
%TO.P,SW2,1,1*%
%TO.N,Column0*%
X172100000Y-91010000D03*
%TO.P,SW2,2,2*%
%TO.N,Net-(D2-A)*%
X167100000Y-88910000D03*
%TD*%
%TO.P,SW40,1,1*%
%TO.N,Column4*%
X67395000Y-110385000D03*
%TO.P,SW40,2,2*%
%TO.N,Net-(D40-A)*%
X62395000Y-108285000D03*
%TD*%
%TO.P,SW25,1,1*%
%TO.N,Column0*%
X138165000Y-129245000D03*
%TO.P,SW25,2,2*%
%TO.N,Net-(D25-A)*%
X133165000Y-127145000D03*
%TD*%
D15*
%TO.N,GND*%
X35755000Y-101895000D03*
X51685000Y-101455000D03*
%TO.N,BT_PIN*%
X51865000Y-97945000D03*
X254180000Y-94375000D03*
X29725000Y-93595000D03*
X49245000Y-96575000D03*
%TO.N,Row0*%
X268550000Y-102260000D03*
X45215000Y-102245000D03*
%TO.N,Row1*%
X50935000Y-104745000D03*
X267610000Y-102460000D03*
%TO.N,Row2*%
X193010000Y-102091000D03*
X271610000Y-115100000D03*
X192540000Y-99460000D03*
X46605000Y-107805000D03*
%TO.N,Row3*%
X264490000Y-116890000D03*
X46405000Y-112385000D03*
%TO.N,Row4*%
X254110000Y-117490000D03*
X27295000Y-114495000D03*
%TO.N,Column0*%
X119145000Y-75875000D03*
X244870000Y-98938500D03*
X65885000Y-79115000D03*
X188380000Y-100410000D03*
%TO.N,Column1*%
X243340000Y-99010000D03*
X101925000Y-76965000D03*
X64445000Y-84485000D03*
X206010000Y-99140000D03*
%TO.N,Column2*%
X243400000Y-99940000D03*
X64395000Y-101825000D03*
X223770000Y-100080000D03*
X84745000Y-101635000D03*
%TO.N,Column3*%
X65355000Y-106075000D03*
X241260000Y-105420000D03*
X67915000Y-106075000D03*
X243800000Y-105350000D03*
%TD*%
D16*
%TO.N,GND*%
X261245000Y-99078500D02*
X271720000Y-99078500D01*
X40475000Y-97175000D02*
X35755000Y-101895000D01*
X43460000Y-97175000D02*
X40475000Y-97175000D01*
X47405000Y-97175000D02*
X43460000Y-97175000D01*
X271720000Y-99078500D02*
X273800000Y-96998500D01*
X51685000Y-101455000D02*
X47405000Y-97175000D01*
%TO.N,BT_PIN*%
X254263500Y-94458500D02*
X257635000Y-94458500D01*
X29725000Y-93595000D02*
X28685000Y-94635000D01*
X254180000Y-94375000D02*
X254263500Y-94458500D01*
X50615000Y-97945000D02*
X49245000Y-96575000D01*
X51865000Y-97945000D02*
X50615000Y-97945000D01*
X28685000Y-94635000D02*
X27295000Y-94635000D01*
%TO.N,Row0*%
X268731500Y-102078500D02*
X273800000Y-102078500D01*
X43470000Y-102245000D02*
X43460000Y-102255000D01*
X45215000Y-102245000D02*
X43470000Y-102245000D01*
X268550000Y-102260000D02*
X268731500Y-102078500D01*
%TO.N,Row1*%
X50935000Y-104745000D02*
X50615000Y-104745000D01*
X50615000Y-104745000D02*
X50565000Y-104795000D01*
X269768500Y-104618500D02*
X273800000Y-104618500D01*
X267610000Y-102460000D02*
X269768500Y-104618500D01*
X50565000Y-104795000D02*
X43460000Y-104795000D01*
%TO.N,Row2*%
X275476000Y-108834500D02*
X273800000Y-107158500D01*
X46135000Y-107335000D02*
X43460000Y-107335000D01*
X193010000Y-102091000D02*
X193010000Y-99930000D01*
X271610000Y-115100000D02*
X275476000Y-111234000D01*
X275476000Y-111234000D02*
X275476000Y-108834500D01*
X46605000Y-107805000D02*
X46135000Y-107335000D01*
X193010000Y-99930000D02*
X192540000Y-99460000D01*
%TO.N,Row3*%
X264490000Y-116890000D02*
X267902606Y-116890000D01*
X273800000Y-110992606D02*
X273800000Y-109698500D01*
X46405000Y-112385000D02*
X43895000Y-109875000D01*
X267902606Y-116890000D02*
X273800000Y-110992606D01*
X43895000Y-109875000D02*
X43460000Y-109875000D01*
%TO.N,Row4*%
X254110000Y-117490000D02*
X257635000Y-113965000D01*
X27295000Y-114495000D02*
X27295000Y-109875000D01*
X257635000Y-113965000D02*
X257635000Y-109698500D01*
%TO.N,Column0*%
X135255276Y-106805276D02*
X138165000Y-109715000D01*
X172100000Y-91010000D02*
X171100000Y-92010000D01*
X138205000Y-90615000D02*
X123465000Y-75875000D01*
X171090000Y-90000000D02*
X172100000Y-91010000D01*
X65885000Y-79115000D02*
X45330058Y-79115000D01*
X172100000Y-91010000D02*
X181500000Y-100410000D01*
X171100000Y-92010000D02*
X171100000Y-108660000D01*
X244870000Y-98938500D02*
X245338500Y-98938500D01*
X45330058Y-79115000D02*
X27295000Y-97150058D01*
X245338500Y-98938500D02*
X247278500Y-96998500D01*
X137865000Y-70915000D02*
X136865000Y-71915000D01*
X136865000Y-71915000D02*
X136865000Y-89275000D01*
X27295000Y-97150058D02*
X27295000Y-97175000D01*
X136865000Y-89275000D02*
X138205000Y-90615000D01*
X138205000Y-90615000D02*
X135255276Y-93564724D01*
X137165000Y-110715000D02*
X137165000Y-128245000D01*
X181500000Y-100410000D02*
X188380000Y-100410000D01*
X171410000Y-110970000D02*
X171410000Y-128400000D01*
X172410000Y-109970000D02*
X171410000Y-110970000D01*
X172090000Y-71780000D02*
X171090000Y-72780000D01*
X137165000Y-128245000D02*
X138165000Y-129245000D01*
X123465000Y-75875000D02*
X119145000Y-75875000D01*
X171410000Y-128400000D02*
X172410000Y-129400000D01*
X247278500Y-96998500D02*
X257635000Y-96998500D01*
X138165000Y-109715000D02*
X137165000Y-110715000D01*
X171090000Y-72780000D02*
X171090000Y-90000000D01*
X171100000Y-108660000D02*
X172410000Y-109970000D01*
X135255276Y-93564724D02*
X135255276Y-106805276D01*
%TO.N,Column1*%
X117845000Y-66605000D02*
X117845000Y-84785000D01*
X64445000Y-84485000D02*
X40821942Y-84485000D01*
X117525000Y-104255000D02*
X118445000Y-105175000D01*
X117445000Y-123115000D02*
X118505000Y-124175000D01*
X28971000Y-98039000D02*
X27295000Y-99715000D01*
X189770000Y-86890000D02*
X190780000Y-85880000D01*
X243340000Y-99010000D02*
X243868500Y-99538500D01*
X194131000Y-101939000D02*
X203211000Y-101939000D01*
X190770000Y-105300000D02*
X194131000Y-101939000D01*
X118525000Y-85465000D02*
X117525000Y-86465000D01*
X189960000Y-122980000D02*
X189960000Y-106110000D01*
X118445000Y-105175000D02*
X117445000Y-106175000D01*
X110025000Y-76965000D02*
X101925000Y-76965000D01*
X40821942Y-84485000D02*
X28971000Y-96335942D01*
X118845000Y-65605000D02*
X117845000Y-66605000D01*
X190960000Y-123980000D02*
X189960000Y-122980000D01*
X243868500Y-99538500D02*
X257635000Y-99538500D01*
X189780000Y-84880000D02*
X189780000Y-67470000D01*
X117525000Y-86465000D02*
X117525000Y-104255000D01*
X203211000Y-101939000D02*
X206010000Y-99140000D01*
X117845000Y-84785000D02*
X118525000Y-85465000D01*
X189770000Y-104300000D02*
X189770000Y-86890000D01*
X28971000Y-96335942D02*
X28971000Y-98039000D01*
X190770000Y-105300000D02*
X189770000Y-104300000D01*
X189960000Y-106110000D02*
X190770000Y-105300000D01*
X118525000Y-85465000D02*
X110025000Y-76965000D01*
X190780000Y-85880000D02*
X189780000Y-84880000D01*
X117445000Y-106175000D02*
X117445000Y-123115000D01*
X189780000Y-67470000D02*
X190780000Y-66470000D01*
%TO.N,Column2*%
X42245942Y-93334000D02*
X32845000Y-102734942D01*
X32845000Y-103995000D02*
X32384000Y-104456000D01*
X223660000Y-100190000D02*
X223770000Y-100080000D01*
X29496000Y-104456000D02*
X27295000Y-102255000D01*
X64395000Y-101825000D02*
X53165058Y-101825000D01*
X99785000Y-102595000D02*
X100905000Y-101475000D01*
X32845000Y-102734942D02*
X32845000Y-103995000D01*
X207250000Y-82330000D02*
X207250000Y-99300000D01*
X99785000Y-120205000D02*
X99785000Y-102595000D01*
X101135000Y-82025000D02*
X100135000Y-81025000D01*
X207140000Y-101190000D02*
X207140000Y-118340000D01*
X207140000Y-63850000D02*
X207140000Y-80220000D01*
X100815000Y-121235000D02*
X99785000Y-120205000D01*
X208140000Y-62850000D02*
X207140000Y-63850000D01*
X207250000Y-99300000D02*
X208140000Y-100190000D01*
X207140000Y-80220000D02*
X208250000Y-81330000D01*
X207140000Y-118340000D02*
X208050000Y-119250000D01*
X44674058Y-93334000D02*
X42245942Y-93334000D01*
X100135000Y-81025000D02*
X100135000Y-63505000D01*
X245538500Y-102078500D02*
X257635000Y-102078500D01*
X243400000Y-99940000D02*
X245538500Y-102078500D01*
X99905000Y-83255000D02*
X101135000Y-82025000D01*
X100905000Y-101475000D02*
X84905000Y-101475000D01*
X84905000Y-101475000D02*
X84745000Y-101635000D01*
X99905000Y-100475000D02*
X99905000Y-83255000D01*
X100135000Y-63505000D02*
X101395000Y-62245000D01*
X53165058Y-101825000D02*
X44674058Y-93334000D01*
X208250000Y-81330000D02*
X207250000Y-82330000D01*
X32384000Y-104456000D02*
X29496000Y-104456000D01*
X208140000Y-100190000D02*
X223660000Y-100190000D01*
X100905000Y-101475000D02*
X99905000Y-100475000D01*
X208140000Y-100190000D02*
X207140000Y-101190000D01*
%TO.N,Column3*%
X29245000Y-106745000D02*
X27295000Y-104795000D01*
X224570000Y-106670000D02*
X225850000Y-105390000D01*
X68885000Y-106015000D02*
X68725000Y-105855000D01*
X224850000Y-87340000D02*
X225850000Y-86340000D01*
X54175000Y-117615000D02*
X38585000Y-117615000D01*
X224789000Y-67211000D02*
X225490000Y-66510000D01*
X83095000Y-107055000D02*
X84135000Y-106015000D01*
X38585000Y-117615000D02*
X29395000Y-108425000D01*
X53985000Y-106075000D02*
X53985000Y-117425000D01*
X224789000Y-85279000D02*
X224789000Y-67211000D01*
X29245000Y-108425000D02*
X29245000Y-106745000D01*
X244531500Y-104618500D02*
X257635000Y-104618500D01*
X224850000Y-104390000D02*
X224850000Y-87340000D01*
X225850000Y-105390000D02*
X224850000Y-104390000D01*
X83255000Y-85175000D02*
X83255000Y-67035000D01*
X225850000Y-105390000D02*
X241230000Y-105390000D01*
X29395000Y-108425000D02*
X29245000Y-108425000D01*
X225850000Y-86340000D02*
X224789000Y-85279000D01*
X84135000Y-106015000D02*
X67975000Y-106015000D01*
X83255000Y-67035000D02*
X84255000Y-66035000D01*
X83135000Y-105015000D02*
X83135000Y-87295000D01*
X84255000Y-86175000D02*
X83255000Y-85175000D01*
X241230000Y-105390000D02*
X241260000Y-105420000D01*
X84135000Y-106015000D02*
X83135000Y-105015000D01*
X53985000Y-117425000D02*
X54175000Y-117615000D01*
X84095000Y-125575000D02*
X83095000Y-124575000D01*
X83135000Y-87295000D02*
X84255000Y-86175000D01*
X225570000Y-123680000D02*
X224570000Y-122680000D01*
X224570000Y-122680000D02*
X224570000Y-106670000D01*
X65355000Y-106075000D02*
X53985000Y-106075000D01*
X243800000Y-105350000D02*
X244531500Y-104618500D01*
X83095000Y-124575000D02*
X83095000Y-107055000D01*
X67975000Y-106015000D02*
X67915000Y-106075000D01*
%TO.N,Column4*%
X66575000Y-72235000D02*
X67685000Y-71125000D01*
X250730000Y-121840000D02*
X263130000Y-121840000D01*
X66395000Y-109385000D02*
X66395000Y-91865000D01*
X50185000Y-121375000D02*
X58875000Y-130065000D01*
X66115000Y-111665000D02*
X67395000Y-110385000D01*
X242200000Y-128790000D02*
X242990000Y-129580000D01*
X263130000Y-112653500D02*
X257635000Y-107158500D01*
X242200000Y-111210000D02*
X242200000Y-128790000D01*
X242400000Y-92030000D02*
X242400000Y-109410000D01*
X242600000Y-90230000D02*
X243400000Y-91030000D01*
X58875000Y-130065000D02*
X67115000Y-130065000D01*
X243200000Y-110210000D02*
X242200000Y-111210000D01*
X41310058Y-121375000D02*
X27295000Y-107359942D01*
X242600000Y-73060000D02*
X242600000Y-90230000D01*
X242400000Y-109410000D02*
X243200000Y-110210000D01*
X67395000Y-110385000D02*
X66395000Y-109385000D01*
X66395000Y-91865000D02*
X67575000Y-90685000D01*
X263130000Y-121840000D02*
X263130000Y-112653500D01*
X242990000Y-129580000D02*
X250730000Y-121840000D01*
X66115000Y-129065000D02*
X66115000Y-111665000D01*
X66575000Y-89685000D02*
X66575000Y-72235000D01*
X243400000Y-91030000D02*
X242400000Y-92030000D01*
X27295000Y-107359942D02*
X27295000Y-107335000D01*
X243600000Y-72060000D02*
X242600000Y-73060000D01*
X47155000Y-121375000D02*
X41310058Y-121375000D01*
X67115000Y-130065000D02*
X66115000Y-129065000D01*
X47155000Y-121375000D02*
X50185000Y-121375000D01*
X67575000Y-90685000D02*
X66575000Y-89685000D01*
%TD*%
M02*
