%TF.GenerationSoftware,KiCad,Pcbnew,9.0.7*%
%TF.CreationDate,2026-04-05T19:33:01-07:00*%
%TF.ProjectId,SplitKeyboardCAD,53706c69-744b-4657-9962-6f6172644341,rev?*%
%TF.SameCoordinates,Original*%
%TF.FileFunction,Profile,NP*%
%FSLAX46Y46*%
G04 Gerber Fmt 4.6, Leading zero omitted, Abs format (unit mm)*
G04 Created by KiCad (PCBNEW 9.0.7) date 2026-04-05 19:33:01*
%MOMM*%
%LPD*%
G01*
G04 APERTURE LIST*
%TA.AperFunction,Profile*%
%ADD10C,0.050000*%
%TD*%
%ADD11C,0.150000*%
G04 APERTURE END LIST*
D10*
X147420000Y-121370000D02*
X147420000Y-129005000D01*
X152424721Y-121370000D02*
X152440000Y-129780000D01*
X149920020Y-121370000D02*
X147420000Y-121370000D01*
X149920020Y-121370000D02*
X152424721Y-121370000D01*
D11*
X149224839Y-121102261D02*
X149224839Y-121673689D01*
X149224839Y-121387975D02*
X148224839Y-121387975D01*
X148224839Y-121387975D02*
X148367696Y-121483213D01*
X148367696Y-121483213D02*
X148462934Y-121578451D01*
X148462934Y-121578451D02*
X148510553Y-121673689D01*
X149129600Y-120673689D02*
X149177220Y-120626070D01*
X149177220Y-120626070D02*
X149224839Y-120673689D01*
X149224839Y-120673689D02*
X149177220Y-120721308D01*
X149177220Y-120721308D02*
X149129600Y-120673689D01*
X149129600Y-120673689D02*
X149224839Y-120673689D01*
X148224839Y-120292737D02*
X148224839Y-119673690D01*
X148224839Y-119673690D02*
X148605791Y-120007023D01*
X148605791Y-120007023D02*
X148605791Y-119864166D01*
X148605791Y-119864166D02*
X148653410Y-119768928D01*
X148653410Y-119768928D02*
X148701029Y-119721309D01*
X148701029Y-119721309D02*
X148796267Y-119673690D01*
X148796267Y-119673690D02*
X149034362Y-119673690D01*
X149034362Y-119673690D02*
X149129600Y-119721309D01*
X149129600Y-119721309D02*
X149177220Y-119768928D01*
X149177220Y-119768928D02*
X149224839Y-119864166D01*
X149224839Y-119864166D02*
X149224839Y-120149880D01*
X149224839Y-120149880D02*
X149177220Y-120245118D01*
X149177220Y-120245118D02*
X149129600Y-120292737D01*
X148558172Y-118816547D02*
X149224839Y-118816547D01*
X148177220Y-119054642D02*
X148891505Y-119292737D01*
X148891505Y-119292737D02*
X148891505Y-118673690D01*
D10*
X149920020Y-119025000D02*
X149920020Y-119025000D01*
X149920020Y-121370000D02*
X149920020Y-121370000D01*
X149920020Y-119025000D02*
X149920020Y-121370000D01*
X149920020Y-119025000D02*
X150506441Y-120151504D01*
X149920020Y-119025000D02*
X149333599Y-120151504D01*
X149920020Y-121370000D02*
X149333599Y-120243496D01*
X149920020Y-121370000D02*
X150506441Y-120243496D01*
D11*
X155174819Y-82784761D02*
X155174819Y-83356189D01*
X155174819Y-83070475D02*
X154174819Y-83070475D01*
X154174819Y-83070475D02*
X154317676Y-83165713D01*
X154317676Y-83165713D02*
X154412914Y-83260951D01*
X154412914Y-83260951D02*
X154460533Y-83356189D01*
X155079580Y-82356189D02*
X155127200Y-82308570D01*
X155127200Y-82308570D02*
X155174819Y-82356189D01*
X155174819Y-82356189D02*
X155127200Y-82403808D01*
X155127200Y-82403808D02*
X155079580Y-82356189D01*
X155079580Y-82356189D02*
X155174819Y-82356189D01*
X154603390Y-81737142D02*
X154555771Y-81832380D01*
X154555771Y-81832380D02*
X154508152Y-81879999D01*
X154508152Y-81879999D02*
X154412914Y-81927618D01*
X154412914Y-81927618D02*
X154365295Y-81927618D01*
X154365295Y-81927618D02*
X154270057Y-81879999D01*
X154270057Y-81879999D02*
X154222438Y-81832380D01*
X154222438Y-81832380D02*
X154174819Y-81737142D01*
X154174819Y-81737142D02*
X154174819Y-81546666D01*
X154174819Y-81546666D02*
X154222438Y-81451428D01*
X154222438Y-81451428D02*
X154270057Y-81403809D01*
X154270057Y-81403809D02*
X154365295Y-81356190D01*
X154365295Y-81356190D02*
X154412914Y-81356190D01*
X154412914Y-81356190D02*
X154508152Y-81403809D01*
X154508152Y-81403809D02*
X154555771Y-81451428D01*
X154555771Y-81451428D02*
X154603390Y-81546666D01*
X154603390Y-81546666D02*
X154603390Y-81737142D01*
X154603390Y-81737142D02*
X154651009Y-81832380D01*
X154651009Y-81832380D02*
X154698628Y-81879999D01*
X154698628Y-81879999D02*
X154793866Y-81927618D01*
X154793866Y-81927618D02*
X154984342Y-81927618D01*
X154984342Y-81927618D02*
X155079580Y-81879999D01*
X155079580Y-81879999D02*
X155127200Y-81832380D01*
X155127200Y-81832380D02*
X155174819Y-81737142D01*
X155174819Y-81737142D02*
X155174819Y-81546666D01*
X155174819Y-81546666D02*
X155127200Y-81451428D01*
X155127200Y-81451428D02*
X155079580Y-81403809D01*
X155079580Y-81403809D02*
X154984342Y-81356190D01*
X154984342Y-81356190D02*
X154793866Y-81356190D01*
X154793866Y-81356190D02*
X154698628Y-81403809D01*
X154698628Y-81403809D02*
X154651009Y-81451428D01*
X154651009Y-81451428D02*
X154603390Y-81546666D01*
X154508152Y-80499047D02*
X155174819Y-80499047D01*
X154127200Y-80737142D02*
X154841485Y-80975237D01*
X154841485Y-80975237D02*
X154841485Y-80356190D01*
D10*
X150415000Y-80960000D02*
X156456420Y-80960000D01*
X156456420Y-82800000D02*
X150415000Y-82800000D01*
X155870000Y-80960000D02*
X155870000Y-82800000D01*
X155870000Y-80960000D02*
X156456421Y-82086504D01*
X155870000Y-80960000D02*
X155283579Y-82086504D01*
X155870000Y-82800000D02*
X155283579Y-81673496D01*
X155870000Y-82800000D02*
X156456421Y-81673496D01*
X147420000Y-119025000D02*
X152420040Y-119025000D01*
X147420000Y-82800000D02*
X147420000Y-90965000D01*
X152410000Y-82800000D02*
X152420000Y-90965000D01*
X147420000Y-82800000D02*
X152410000Y-82800000D01*
X152410000Y-80965000D02*
X147420000Y-80955000D01*
X230640000Y-66715000D02*
X230640000Y-60475000D01*
X267880000Y-134965000D02*
X267880000Y-119995000D01*
X53520000Y-133705000D02*
X33540000Y-133705000D01*
X104720000Y-133135000D02*
X87500000Y-133135000D01*
X152420000Y-90965000D02*
X152420000Y-119005000D01*
X67290000Y-61335000D02*
X67290000Y-58295000D01*
X152440000Y-129025000D02*
X152280000Y-143245000D01*
X85290000Y-55345000D02*
X106300000Y-55345000D01*
X213000000Y-60475000D02*
X213000000Y-56385000D01*
X211750000Y-131725000D02*
X211750000Y-136745000D01*
X177230000Y-136215000D02*
X194680000Y-136215000D01*
X152410000Y-63155000D02*
X175760000Y-63155000D01*
X213000000Y-56385000D02*
X193750000Y-56385000D01*
X70620000Y-142435000D02*
X53520000Y-142435000D01*
X248460000Y-134965000D02*
X267880000Y-134965000D01*
X147420000Y-80955000D02*
X147420000Y-63015000D01*
X147420000Y-143465000D02*
X123310000Y-143465000D01*
X247390000Y-66715000D02*
X230640000Y-66715000D01*
X67290000Y-58295000D02*
X85290000Y-58295000D01*
X87500000Y-133135000D02*
X87500000Y-137955000D01*
X211750000Y-136745000D02*
X229030000Y-136745000D01*
X104720000Y-136345000D02*
X104720000Y-133135000D01*
X70620000Y-137955000D02*
X70620000Y-142435000D01*
X277860000Y-86135000D02*
X255760000Y-86135000D01*
X193750000Y-59945000D02*
X175760000Y-59945000D01*
X152280000Y-143245000D02*
X177230000Y-143245000D01*
X229030000Y-142985000D02*
X248460000Y-142985000D01*
X147420000Y-129005000D02*
X147420000Y-143465000D01*
X53520000Y-142435000D02*
X53520000Y-133705000D01*
X123310000Y-136345000D02*
X104720000Y-136345000D01*
X267880000Y-119995000D02*
X277860000Y-119995000D01*
X229030000Y-136745000D02*
X229030000Y-142985000D01*
X123070000Y-62655000D02*
X147420000Y-63015000D01*
X123310000Y-143465000D02*
X123310000Y-136345000D01*
X175760000Y-59945000D02*
X175760000Y-63155000D01*
X106300000Y-59825000D02*
X123070000Y-59825000D01*
X106300000Y-55345000D02*
X106300000Y-59825000D01*
X193750000Y-56385000D02*
X193750000Y-59945000D01*
X277860000Y-119995000D02*
X277860000Y-86135000D01*
X194680000Y-136215000D02*
X194680000Y-131725000D01*
X255760000Y-86135000D02*
X247390000Y-66715000D01*
X24380000Y-87845000D02*
X51590000Y-61335000D01*
X87500000Y-137955000D02*
X70620000Y-137955000D01*
X230640000Y-60475000D02*
X213000000Y-60475000D01*
X194680000Y-131725000D02*
X211750000Y-131725000D01*
X85290000Y-58295000D02*
X85290000Y-55345000D01*
X51590000Y-61335000D02*
X67290000Y-61335000D01*
X33540000Y-133705000D02*
X24380000Y-115055000D01*
X248460000Y-142985000D02*
X248460000Y-134965000D01*
X147420000Y-119025000D02*
X147420000Y-90965000D01*
X123070000Y-59825000D02*
X123070000Y-62655000D01*
X152410000Y-63155000D02*
X152410000Y-80965000D01*
X24380000Y-115055000D02*
X24380000Y-87845000D01*
X177230000Y-143245000D02*
X177230000Y-136215000D01*
M02*
