%TF.GenerationSoftware,KiCad,Pcbnew,9.0.7*%
%TF.CreationDate,2026-04-05T19:33:01-07:00*%
%TF.ProjectId,SplitKeyboardCAD,53706c69-744b-4657-9962-6f6172644341,rev?*%
%TF.SameCoordinates,Original*%
%TF.FileFunction,Legend,Bot*%
%TF.FilePolarity,Positive*%
%FSLAX46Y46*%
G04 Gerber Fmt 4.6, Leading zero omitted, Abs format (unit mm)*
G04 Created by KiCad (PCBNEW 9.0.7) date 2026-04-05 19:33:01*
%MOMM*%
%LPD*%
G01*
G04 APERTURE LIST*
%ADD10C,0.150000*%
%ADD11C,0.120000*%
G04 APERTURE END LIST*
D10*
X52429819Y-107300714D02*
X51429819Y-107300714D01*
X51429819Y-107300714D02*
X51429819Y-107538809D01*
X51429819Y-107538809D02*
X51477438Y-107681666D01*
X51477438Y-107681666D02*
X51572676Y-107776904D01*
X51572676Y-107776904D02*
X51667914Y-107824523D01*
X51667914Y-107824523D02*
X51858390Y-107872142D01*
X51858390Y-107872142D02*
X52001247Y-107872142D01*
X52001247Y-107872142D02*
X52191723Y-107824523D01*
X52191723Y-107824523D02*
X52286961Y-107776904D01*
X52286961Y-107776904D02*
X52382200Y-107681666D01*
X52382200Y-107681666D02*
X52429819Y-107538809D01*
X52429819Y-107538809D02*
X52429819Y-107300714D01*
X51763152Y-108729285D02*
X52429819Y-108729285D01*
X51382200Y-108491190D02*
X52096485Y-108253095D01*
X52096485Y-108253095D02*
X52096485Y-108872142D01*
X51429819Y-109443571D02*
X51429819Y-109538809D01*
X51429819Y-109538809D02*
X51477438Y-109634047D01*
X51477438Y-109634047D02*
X51525057Y-109681666D01*
X51525057Y-109681666D02*
X51620295Y-109729285D01*
X51620295Y-109729285D02*
X51810771Y-109776904D01*
X51810771Y-109776904D02*
X52048866Y-109776904D01*
X52048866Y-109776904D02*
X52239342Y-109729285D01*
X52239342Y-109729285D02*
X52334580Y-109681666D01*
X52334580Y-109681666D02*
X52382200Y-109634047D01*
X52382200Y-109634047D02*
X52429819Y-109538809D01*
X52429819Y-109538809D02*
X52429819Y-109443571D01*
X52429819Y-109443571D02*
X52382200Y-109348333D01*
X52382200Y-109348333D02*
X52334580Y-109300714D01*
X52334580Y-109300714D02*
X52239342Y-109253095D01*
X52239342Y-109253095D02*
X52048866Y-109205476D01*
X52048866Y-109205476D02*
X51810771Y-109205476D01*
X51810771Y-109205476D02*
X51620295Y-109253095D01*
X51620295Y-109253095D02*
X51525057Y-109300714D01*
X51525057Y-109300714D02*
X51477438Y-109348333D01*
X51477438Y-109348333D02*
X51429819Y-109443571D01*
X194324819Y-98865714D02*
X193324819Y-98865714D01*
X193324819Y-98865714D02*
X193324819Y-99103809D01*
X193324819Y-99103809D02*
X193372438Y-99246666D01*
X193372438Y-99246666D02*
X193467676Y-99341904D01*
X193467676Y-99341904D02*
X193562914Y-99389523D01*
X193562914Y-99389523D02*
X193753390Y-99437142D01*
X193753390Y-99437142D02*
X193896247Y-99437142D01*
X193896247Y-99437142D02*
X194086723Y-99389523D01*
X194086723Y-99389523D02*
X194181961Y-99341904D01*
X194181961Y-99341904D02*
X194277200Y-99246666D01*
X194277200Y-99246666D02*
X194324819Y-99103809D01*
X194324819Y-99103809D02*
X194324819Y-98865714D01*
X194324819Y-100389523D02*
X194324819Y-99818095D01*
X194324819Y-100103809D02*
X193324819Y-100103809D01*
X193324819Y-100103809D02*
X193467676Y-100008571D01*
X193467676Y-100008571D02*
X193562914Y-99913333D01*
X193562914Y-99913333D02*
X193610533Y-99818095D01*
X194324819Y-101341904D02*
X194324819Y-100770476D01*
X194324819Y-101056190D02*
X193324819Y-101056190D01*
X193324819Y-101056190D02*
X193467676Y-100960952D01*
X193467676Y-100960952D02*
X193562914Y-100865714D01*
X193562914Y-100865714D02*
X193610533Y-100770476D01*
X122759819Y-67950714D02*
X121759819Y-67950714D01*
X121759819Y-67950714D02*
X121759819Y-68188809D01*
X121759819Y-68188809D02*
X121807438Y-68331666D01*
X121807438Y-68331666D02*
X121902676Y-68426904D01*
X121902676Y-68426904D02*
X121997914Y-68474523D01*
X121997914Y-68474523D02*
X122188390Y-68522142D01*
X122188390Y-68522142D02*
X122331247Y-68522142D01*
X122331247Y-68522142D02*
X122521723Y-68474523D01*
X122521723Y-68474523D02*
X122616961Y-68426904D01*
X122616961Y-68426904D02*
X122712200Y-68331666D01*
X122712200Y-68331666D02*
X122759819Y-68188809D01*
X122759819Y-68188809D02*
X122759819Y-67950714D01*
X121855057Y-68903095D02*
X121807438Y-68950714D01*
X121807438Y-68950714D02*
X121759819Y-69045952D01*
X121759819Y-69045952D02*
X121759819Y-69284047D01*
X121759819Y-69284047D02*
X121807438Y-69379285D01*
X121807438Y-69379285D02*
X121855057Y-69426904D01*
X121855057Y-69426904D02*
X121950295Y-69474523D01*
X121950295Y-69474523D02*
X122045533Y-69474523D01*
X122045533Y-69474523D02*
X122188390Y-69426904D01*
X122188390Y-69426904D02*
X122759819Y-68855476D01*
X122759819Y-68855476D02*
X122759819Y-69474523D01*
X121855057Y-69855476D02*
X121807438Y-69903095D01*
X121807438Y-69903095D02*
X121759819Y-69998333D01*
X121759819Y-69998333D02*
X121759819Y-70236428D01*
X121759819Y-70236428D02*
X121807438Y-70331666D01*
X121807438Y-70331666D02*
X121855057Y-70379285D01*
X121855057Y-70379285D02*
X121950295Y-70426904D01*
X121950295Y-70426904D02*
X122045533Y-70426904D01*
X122045533Y-70426904D02*
X122188390Y-70379285D01*
X122188390Y-70379285D02*
X122759819Y-69807857D01*
X122759819Y-69807857D02*
X122759819Y-70426904D01*
X103789819Y-62520714D02*
X102789819Y-62520714D01*
X102789819Y-62520714D02*
X102789819Y-62758809D01*
X102789819Y-62758809D02*
X102837438Y-62901666D01*
X102837438Y-62901666D02*
X102932676Y-62996904D01*
X102932676Y-62996904D02*
X103027914Y-63044523D01*
X103027914Y-63044523D02*
X103218390Y-63092142D01*
X103218390Y-63092142D02*
X103361247Y-63092142D01*
X103361247Y-63092142D02*
X103551723Y-63044523D01*
X103551723Y-63044523D02*
X103646961Y-62996904D01*
X103646961Y-62996904D02*
X103742200Y-62901666D01*
X103742200Y-62901666D02*
X103789819Y-62758809D01*
X103789819Y-62758809D02*
X103789819Y-62520714D01*
X102885057Y-63473095D02*
X102837438Y-63520714D01*
X102837438Y-63520714D02*
X102789819Y-63615952D01*
X102789819Y-63615952D02*
X102789819Y-63854047D01*
X102789819Y-63854047D02*
X102837438Y-63949285D01*
X102837438Y-63949285D02*
X102885057Y-63996904D01*
X102885057Y-63996904D02*
X102980295Y-64044523D01*
X102980295Y-64044523D02*
X103075533Y-64044523D01*
X103075533Y-64044523D02*
X103218390Y-63996904D01*
X103218390Y-63996904D02*
X103789819Y-63425476D01*
X103789819Y-63425476D02*
X103789819Y-64044523D01*
X102789819Y-64901666D02*
X102789819Y-64711190D01*
X102789819Y-64711190D02*
X102837438Y-64615952D01*
X102837438Y-64615952D02*
X102885057Y-64568333D01*
X102885057Y-64568333D02*
X103027914Y-64473095D01*
X103027914Y-64473095D02*
X103218390Y-64425476D01*
X103218390Y-64425476D02*
X103599342Y-64425476D01*
X103599342Y-64425476D02*
X103694580Y-64473095D01*
X103694580Y-64473095D02*
X103742200Y-64520714D01*
X103742200Y-64520714D02*
X103789819Y-64615952D01*
X103789819Y-64615952D02*
X103789819Y-64806428D01*
X103789819Y-64806428D02*
X103742200Y-64901666D01*
X103742200Y-64901666D02*
X103694580Y-64949285D01*
X103694580Y-64949285D02*
X103599342Y-64996904D01*
X103599342Y-64996904D02*
X103361247Y-64996904D01*
X103361247Y-64996904D02*
X103266009Y-64949285D01*
X103266009Y-64949285D02*
X103218390Y-64901666D01*
X103218390Y-64901666D02*
X103170771Y-64806428D01*
X103170771Y-64806428D02*
X103170771Y-64615952D01*
X103170771Y-64615952D02*
X103218390Y-64520714D01*
X103218390Y-64520714D02*
X103266009Y-64473095D01*
X103266009Y-64473095D02*
X103361247Y-64425476D01*
X211964819Y-103485714D02*
X210964819Y-103485714D01*
X210964819Y-103485714D02*
X210964819Y-103723809D01*
X210964819Y-103723809D02*
X211012438Y-103866666D01*
X211012438Y-103866666D02*
X211107676Y-103961904D01*
X211107676Y-103961904D02*
X211202914Y-104009523D01*
X211202914Y-104009523D02*
X211393390Y-104057142D01*
X211393390Y-104057142D02*
X211536247Y-104057142D01*
X211536247Y-104057142D02*
X211726723Y-104009523D01*
X211726723Y-104009523D02*
X211821961Y-103961904D01*
X211821961Y-103961904D02*
X211917200Y-103866666D01*
X211917200Y-103866666D02*
X211964819Y-103723809D01*
X211964819Y-103723809D02*
X211964819Y-103485714D01*
X211964819Y-105009523D02*
X211964819Y-104438095D01*
X211964819Y-104723809D02*
X210964819Y-104723809D01*
X210964819Y-104723809D02*
X211107676Y-104628571D01*
X211107676Y-104628571D02*
X211202914Y-104533333D01*
X211202914Y-104533333D02*
X211250533Y-104438095D01*
X210964819Y-105914285D02*
X210964819Y-105438095D01*
X210964819Y-105438095D02*
X211441009Y-105390476D01*
X211441009Y-105390476D02*
X211393390Y-105438095D01*
X211393390Y-105438095D02*
X211345771Y-105533333D01*
X211345771Y-105533333D02*
X211345771Y-105771428D01*
X211345771Y-105771428D02*
X211393390Y-105866666D01*
X211393390Y-105866666D02*
X211441009Y-105914285D01*
X211441009Y-105914285D02*
X211536247Y-105961904D01*
X211536247Y-105961904D02*
X211774342Y-105961904D01*
X211774342Y-105961904D02*
X211869580Y-105914285D01*
X211869580Y-105914285D02*
X211917200Y-105866666D01*
X211917200Y-105866666D02*
X211964819Y-105771428D01*
X211964819Y-105771428D02*
X211964819Y-105533333D01*
X211964819Y-105533333D02*
X211917200Y-105438095D01*
X211917200Y-105438095D02*
X211869580Y-105390476D01*
X157664819Y-90244405D02*
X156664819Y-90244405D01*
X156664819Y-90244405D02*
X156664819Y-90482500D01*
X156664819Y-90482500D02*
X156712438Y-90625357D01*
X156712438Y-90625357D02*
X156807676Y-90720595D01*
X156807676Y-90720595D02*
X156902914Y-90768214D01*
X156902914Y-90768214D02*
X157093390Y-90815833D01*
X157093390Y-90815833D02*
X157236247Y-90815833D01*
X157236247Y-90815833D02*
X157426723Y-90768214D01*
X157426723Y-90768214D02*
X157521961Y-90720595D01*
X157521961Y-90720595D02*
X157617200Y-90625357D01*
X157617200Y-90625357D02*
X157664819Y-90482500D01*
X157664819Y-90482500D02*
X157664819Y-90244405D01*
X156760057Y-91196786D02*
X156712438Y-91244405D01*
X156712438Y-91244405D02*
X156664819Y-91339643D01*
X156664819Y-91339643D02*
X156664819Y-91577738D01*
X156664819Y-91577738D02*
X156712438Y-91672976D01*
X156712438Y-91672976D02*
X156760057Y-91720595D01*
X156760057Y-91720595D02*
X156855295Y-91768214D01*
X156855295Y-91768214D02*
X156950533Y-91768214D01*
X156950533Y-91768214D02*
X157093390Y-91720595D01*
X157093390Y-91720595D02*
X157664819Y-91149167D01*
X157664819Y-91149167D02*
X157664819Y-91768214D01*
X176914819Y-84391905D02*
X175914819Y-84391905D01*
X175914819Y-84391905D02*
X175914819Y-84630000D01*
X175914819Y-84630000D02*
X175962438Y-84772857D01*
X175962438Y-84772857D02*
X176057676Y-84868095D01*
X176057676Y-84868095D02*
X176152914Y-84915714D01*
X176152914Y-84915714D02*
X176343390Y-84963333D01*
X176343390Y-84963333D02*
X176486247Y-84963333D01*
X176486247Y-84963333D02*
X176676723Y-84915714D01*
X176676723Y-84915714D02*
X176771961Y-84868095D01*
X176771961Y-84868095D02*
X176867200Y-84772857D01*
X176867200Y-84772857D02*
X176914819Y-84630000D01*
X176914819Y-84630000D02*
X176914819Y-84391905D01*
X175914819Y-85820476D02*
X175914819Y-85630000D01*
X175914819Y-85630000D02*
X175962438Y-85534762D01*
X175962438Y-85534762D02*
X176010057Y-85487143D01*
X176010057Y-85487143D02*
X176152914Y-85391905D01*
X176152914Y-85391905D02*
X176343390Y-85344286D01*
X176343390Y-85344286D02*
X176724342Y-85344286D01*
X176724342Y-85344286D02*
X176819580Y-85391905D01*
X176819580Y-85391905D02*
X176867200Y-85439524D01*
X176867200Y-85439524D02*
X176914819Y-85534762D01*
X176914819Y-85534762D02*
X176914819Y-85725238D01*
X176914819Y-85725238D02*
X176867200Y-85820476D01*
X176867200Y-85820476D02*
X176819580Y-85868095D01*
X176819580Y-85868095D02*
X176724342Y-85915714D01*
X176724342Y-85915714D02*
X176486247Y-85915714D01*
X176486247Y-85915714D02*
X176391009Y-85868095D01*
X176391009Y-85868095D02*
X176343390Y-85820476D01*
X176343390Y-85820476D02*
X176295771Y-85725238D01*
X176295771Y-85725238D02*
X176295771Y-85534762D01*
X176295771Y-85534762D02*
X176343390Y-85439524D01*
X176343390Y-85439524D02*
X176391009Y-85391905D01*
X176391009Y-85391905D02*
X176486247Y-85344286D01*
X211764819Y-84635714D02*
X210764819Y-84635714D01*
X210764819Y-84635714D02*
X210764819Y-84873809D01*
X210764819Y-84873809D02*
X210812438Y-85016666D01*
X210812438Y-85016666D02*
X210907676Y-85111904D01*
X210907676Y-85111904D02*
X211002914Y-85159523D01*
X211002914Y-85159523D02*
X211193390Y-85207142D01*
X211193390Y-85207142D02*
X211336247Y-85207142D01*
X211336247Y-85207142D02*
X211526723Y-85159523D01*
X211526723Y-85159523D02*
X211621961Y-85111904D01*
X211621961Y-85111904D02*
X211717200Y-85016666D01*
X211717200Y-85016666D02*
X211764819Y-84873809D01*
X211764819Y-84873809D02*
X211764819Y-84635714D01*
X211764819Y-86159523D02*
X211764819Y-85588095D01*
X211764819Y-85873809D02*
X210764819Y-85873809D01*
X210764819Y-85873809D02*
X210907676Y-85778571D01*
X210907676Y-85778571D02*
X211002914Y-85683333D01*
X211002914Y-85683333D02*
X211050533Y-85588095D01*
X211098152Y-87016666D02*
X211764819Y-87016666D01*
X210717200Y-86778571D02*
X211431485Y-86540476D01*
X211431485Y-86540476D02*
X211431485Y-87159523D01*
X249584819Y-120425714D02*
X248584819Y-120425714D01*
X248584819Y-120425714D02*
X248584819Y-120663809D01*
X248584819Y-120663809D02*
X248632438Y-120806666D01*
X248632438Y-120806666D02*
X248727676Y-120901904D01*
X248727676Y-120901904D02*
X248822914Y-120949523D01*
X248822914Y-120949523D02*
X249013390Y-120997142D01*
X249013390Y-120997142D02*
X249156247Y-120997142D01*
X249156247Y-120997142D02*
X249346723Y-120949523D01*
X249346723Y-120949523D02*
X249441961Y-120901904D01*
X249441961Y-120901904D02*
X249537200Y-120806666D01*
X249537200Y-120806666D02*
X249584819Y-120663809D01*
X249584819Y-120663809D02*
X249584819Y-120425714D01*
X248680057Y-121378095D02*
X248632438Y-121425714D01*
X248632438Y-121425714D02*
X248584819Y-121520952D01*
X248584819Y-121520952D02*
X248584819Y-121759047D01*
X248584819Y-121759047D02*
X248632438Y-121854285D01*
X248632438Y-121854285D02*
X248680057Y-121901904D01*
X248680057Y-121901904D02*
X248775295Y-121949523D01*
X248775295Y-121949523D02*
X248870533Y-121949523D01*
X248870533Y-121949523D02*
X249013390Y-121901904D01*
X249013390Y-121901904D02*
X249584819Y-121330476D01*
X249584819Y-121330476D02*
X249584819Y-121949523D01*
X249584819Y-122901904D02*
X249584819Y-122330476D01*
X249584819Y-122616190D02*
X248584819Y-122616190D01*
X248584819Y-122616190D02*
X248727676Y-122520952D01*
X248727676Y-122520952D02*
X248822914Y-122425714D01*
X248822914Y-122425714D02*
X248870533Y-122330476D01*
X69329819Y-83163214D02*
X68329819Y-83163214D01*
X68329819Y-83163214D02*
X68329819Y-83401309D01*
X68329819Y-83401309D02*
X68377438Y-83544166D01*
X68377438Y-83544166D02*
X68472676Y-83639404D01*
X68472676Y-83639404D02*
X68567914Y-83687023D01*
X68567914Y-83687023D02*
X68758390Y-83734642D01*
X68758390Y-83734642D02*
X68901247Y-83734642D01*
X68901247Y-83734642D02*
X69091723Y-83687023D01*
X69091723Y-83687023D02*
X69186961Y-83639404D01*
X69186961Y-83639404D02*
X69282200Y-83544166D01*
X69282200Y-83544166D02*
X69329819Y-83401309D01*
X69329819Y-83401309D02*
X69329819Y-83163214D01*
X68329819Y-84067976D02*
X68329819Y-84687023D01*
X68329819Y-84687023D02*
X68710771Y-84353690D01*
X68710771Y-84353690D02*
X68710771Y-84496547D01*
X68710771Y-84496547D02*
X68758390Y-84591785D01*
X68758390Y-84591785D02*
X68806009Y-84639404D01*
X68806009Y-84639404D02*
X68901247Y-84687023D01*
X68901247Y-84687023D02*
X69139342Y-84687023D01*
X69139342Y-84687023D02*
X69234580Y-84639404D01*
X69234580Y-84639404D02*
X69282200Y-84591785D01*
X69282200Y-84591785D02*
X69329819Y-84496547D01*
X69329819Y-84496547D02*
X69329819Y-84210833D01*
X69329819Y-84210833D02*
X69282200Y-84115595D01*
X69282200Y-84115595D02*
X69234580Y-84067976D01*
X68329819Y-85591785D02*
X68329819Y-85115595D01*
X68329819Y-85115595D02*
X68806009Y-85067976D01*
X68806009Y-85067976D02*
X68758390Y-85115595D01*
X68758390Y-85115595D02*
X68710771Y-85210833D01*
X68710771Y-85210833D02*
X68710771Y-85448928D01*
X68710771Y-85448928D02*
X68758390Y-85544166D01*
X68758390Y-85544166D02*
X68806009Y-85591785D01*
X68806009Y-85591785D02*
X68901247Y-85639404D01*
X68901247Y-85639404D02*
X69139342Y-85639404D01*
X69139342Y-85639404D02*
X69234580Y-85591785D01*
X69234580Y-85591785D02*
X69282200Y-85544166D01*
X69282200Y-85544166D02*
X69329819Y-85448928D01*
X69329819Y-85448928D02*
X69329819Y-85210833D01*
X69329819Y-85210833D02*
X69282200Y-85115595D01*
X69282200Y-85115595D02*
X69234580Y-85067976D01*
X69159819Y-103120714D02*
X68159819Y-103120714D01*
X68159819Y-103120714D02*
X68159819Y-103358809D01*
X68159819Y-103358809D02*
X68207438Y-103501666D01*
X68207438Y-103501666D02*
X68302676Y-103596904D01*
X68302676Y-103596904D02*
X68397914Y-103644523D01*
X68397914Y-103644523D02*
X68588390Y-103692142D01*
X68588390Y-103692142D02*
X68731247Y-103692142D01*
X68731247Y-103692142D02*
X68921723Y-103644523D01*
X68921723Y-103644523D02*
X69016961Y-103596904D01*
X69016961Y-103596904D02*
X69112200Y-103501666D01*
X69112200Y-103501666D02*
X69159819Y-103358809D01*
X69159819Y-103358809D02*
X69159819Y-103120714D01*
X68159819Y-104025476D02*
X68159819Y-104644523D01*
X68159819Y-104644523D02*
X68540771Y-104311190D01*
X68540771Y-104311190D02*
X68540771Y-104454047D01*
X68540771Y-104454047D02*
X68588390Y-104549285D01*
X68588390Y-104549285D02*
X68636009Y-104596904D01*
X68636009Y-104596904D02*
X68731247Y-104644523D01*
X68731247Y-104644523D02*
X68969342Y-104644523D01*
X68969342Y-104644523D02*
X69064580Y-104596904D01*
X69064580Y-104596904D02*
X69112200Y-104549285D01*
X69112200Y-104549285D02*
X69159819Y-104454047D01*
X69159819Y-104454047D02*
X69159819Y-104168333D01*
X69159819Y-104168333D02*
X69112200Y-104073095D01*
X69112200Y-104073095D02*
X69064580Y-104025476D01*
X68159819Y-105501666D02*
X68159819Y-105311190D01*
X68159819Y-105311190D02*
X68207438Y-105215952D01*
X68207438Y-105215952D02*
X68255057Y-105168333D01*
X68255057Y-105168333D02*
X68397914Y-105073095D01*
X68397914Y-105073095D02*
X68588390Y-105025476D01*
X68588390Y-105025476D02*
X68969342Y-105025476D01*
X68969342Y-105025476D02*
X69064580Y-105073095D01*
X69064580Y-105073095D02*
X69112200Y-105120714D01*
X69112200Y-105120714D02*
X69159819Y-105215952D01*
X69159819Y-105215952D02*
X69159819Y-105406428D01*
X69159819Y-105406428D02*
X69112200Y-105501666D01*
X69112200Y-105501666D02*
X69064580Y-105549285D01*
X69064580Y-105549285D02*
X68969342Y-105596904D01*
X68969342Y-105596904D02*
X68731247Y-105596904D01*
X68731247Y-105596904D02*
X68636009Y-105549285D01*
X68636009Y-105549285D02*
X68588390Y-105501666D01*
X68588390Y-105501666D02*
X68540771Y-105406428D01*
X68540771Y-105406428D02*
X68540771Y-105215952D01*
X68540771Y-105215952D02*
X68588390Y-105120714D01*
X68588390Y-105120714D02*
X68636009Y-105073095D01*
X68636009Y-105073095D02*
X68731247Y-105025476D01*
X85909819Y-118220714D02*
X84909819Y-118220714D01*
X84909819Y-118220714D02*
X84909819Y-118458809D01*
X84909819Y-118458809D02*
X84957438Y-118601666D01*
X84957438Y-118601666D02*
X85052676Y-118696904D01*
X85052676Y-118696904D02*
X85147914Y-118744523D01*
X85147914Y-118744523D02*
X85338390Y-118792142D01*
X85338390Y-118792142D02*
X85481247Y-118792142D01*
X85481247Y-118792142D02*
X85671723Y-118744523D01*
X85671723Y-118744523D02*
X85766961Y-118696904D01*
X85766961Y-118696904D02*
X85862200Y-118601666D01*
X85862200Y-118601666D02*
X85909819Y-118458809D01*
X85909819Y-118458809D02*
X85909819Y-118220714D01*
X84909819Y-119125476D02*
X84909819Y-119744523D01*
X84909819Y-119744523D02*
X85290771Y-119411190D01*
X85290771Y-119411190D02*
X85290771Y-119554047D01*
X85290771Y-119554047D02*
X85338390Y-119649285D01*
X85338390Y-119649285D02*
X85386009Y-119696904D01*
X85386009Y-119696904D02*
X85481247Y-119744523D01*
X85481247Y-119744523D02*
X85719342Y-119744523D01*
X85719342Y-119744523D02*
X85814580Y-119696904D01*
X85814580Y-119696904D02*
X85862200Y-119649285D01*
X85862200Y-119649285D02*
X85909819Y-119554047D01*
X85909819Y-119554047D02*
X85909819Y-119268333D01*
X85909819Y-119268333D02*
X85862200Y-119173095D01*
X85862200Y-119173095D02*
X85814580Y-119125476D01*
X84909819Y-120077857D02*
X84909819Y-120696904D01*
X84909819Y-120696904D02*
X85290771Y-120363571D01*
X85290771Y-120363571D02*
X85290771Y-120506428D01*
X85290771Y-120506428D02*
X85338390Y-120601666D01*
X85338390Y-120601666D02*
X85386009Y-120649285D01*
X85386009Y-120649285D02*
X85481247Y-120696904D01*
X85481247Y-120696904D02*
X85719342Y-120696904D01*
X85719342Y-120696904D02*
X85814580Y-120649285D01*
X85814580Y-120649285D02*
X85862200Y-120601666D01*
X85862200Y-120601666D02*
X85909819Y-120506428D01*
X85909819Y-120506428D02*
X85909819Y-120220714D01*
X85909819Y-120220714D02*
X85862200Y-120125476D01*
X85862200Y-120125476D02*
X85814580Y-120077857D01*
X53059819Y-87450714D02*
X52059819Y-87450714D01*
X52059819Y-87450714D02*
X52059819Y-87688809D01*
X52059819Y-87688809D02*
X52107438Y-87831666D01*
X52107438Y-87831666D02*
X52202676Y-87926904D01*
X52202676Y-87926904D02*
X52297914Y-87974523D01*
X52297914Y-87974523D02*
X52488390Y-88022142D01*
X52488390Y-88022142D02*
X52631247Y-88022142D01*
X52631247Y-88022142D02*
X52821723Y-87974523D01*
X52821723Y-87974523D02*
X52916961Y-87926904D01*
X52916961Y-87926904D02*
X53012200Y-87831666D01*
X53012200Y-87831666D02*
X53059819Y-87688809D01*
X53059819Y-87688809D02*
X53059819Y-87450714D01*
X52059819Y-88355476D02*
X52059819Y-88974523D01*
X52059819Y-88974523D02*
X52440771Y-88641190D01*
X52440771Y-88641190D02*
X52440771Y-88784047D01*
X52440771Y-88784047D02*
X52488390Y-88879285D01*
X52488390Y-88879285D02*
X52536009Y-88926904D01*
X52536009Y-88926904D02*
X52631247Y-88974523D01*
X52631247Y-88974523D02*
X52869342Y-88974523D01*
X52869342Y-88974523D02*
X52964580Y-88926904D01*
X52964580Y-88926904D02*
X53012200Y-88879285D01*
X53012200Y-88879285D02*
X53059819Y-88784047D01*
X53059819Y-88784047D02*
X53059819Y-88498333D01*
X53059819Y-88498333D02*
X53012200Y-88403095D01*
X53012200Y-88403095D02*
X52964580Y-88355476D01*
X53059819Y-89450714D02*
X53059819Y-89641190D01*
X53059819Y-89641190D02*
X53012200Y-89736428D01*
X53012200Y-89736428D02*
X52964580Y-89784047D01*
X52964580Y-89784047D02*
X52821723Y-89879285D01*
X52821723Y-89879285D02*
X52631247Y-89926904D01*
X52631247Y-89926904D02*
X52250295Y-89926904D01*
X52250295Y-89926904D02*
X52155057Y-89879285D01*
X52155057Y-89879285D02*
X52107438Y-89831666D01*
X52107438Y-89831666D02*
X52059819Y-89736428D01*
X52059819Y-89736428D02*
X52059819Y-89545952D01*
X52059819Y-89545952D02*
X52107438Y-89450714D01*
X52107438Y-89450714D02*
X52155057Y-89403095D01*
X52155057Y-89403095D02*
X52250295Y-89355476D01*
X52250295Y-89355476D02*
X52488390Y-89355476D01*
X52488390Y-89355476D02*
X52583628Y-89403095D01*
X52583628Y-89403095D02*
X52631247Y-89450714D01*
X52631247Y-89450714D02*
X52678866Y-89545952D01*
X52678866Y-89545952D02*
X52678866Y-89736428D01*
X52678866Y-89736428D02*
X52631247Y-89831666D01*
X52631247Y-89831666D02*
X52583628Y-89879285D01*
X52583628Y-89879285D02*
X52488390Y-89926904D01*
X194284819Y-80098214D02*
X193284819Y-80098214D01*
X193284819Y-80098214D02*
X193284819Y-80336309D01*
X193284819Y-80336309D02*
X193332438Y-80479166D01*
X193332438Y-80479166D02*
X193427676Y-80574404D01*
X193427676Y-80574404D02*
X193522914Y-80622023D01*
X193522914Y-80622023D02*
X193713390Y-80669642D01*
X193713390Y-80669642D02*
X193856247Y-80669642D01*
X193856247Y-80669642D02*
X194046723Y-80622023D01*
X194046723Y-80622023D02*
X194141961Y-80574404D01*
X194141961Y-80574404D02*
X194237200Y-80479166D01*
X194237200Y-80479166D02*
X194284819Y-80336309D01*
X194284819Y-80336309D02*
X194284819Y-80098214D01*
X194284819Y-81622023D02*
X194284819Y-81050595D01*
X194284819Y-81336309D02*
X193284819Y-81336309D01*
X193284819Y-81336309D02*
X193427676Y-81241071D01*
X193427676Y-81241071D02*
X193522914Y-81145833D01*
X193522914Y-81145833D02*
X193570533Y-81050595D01*
X193284819Y-82241071D02*
X193284819Y-82336309D01*
X193284819Y-82336309D02*
X193332438Y-82431547D01*
X193332438Y-82431547D02*
X193380057Y-82479166D01*
X193380057Y-82479166D02*
X193475295Y-82526785D01*
X193475295Y-82526785D02*
X193665771Y-82574404D01*
X193665771Y-82574404D02*
X193903866Y-82574404D01*
X193903866Y-82574404D02*
X194094342Y-82526785D01*
X194094342Y-82526785D02*
X194189580Y-82479166D01*
X194189580Y-82479166D02*
X194237200Y-82431547D01*
X194237200Y-82431547D02*
X194284819Y-82336309D01*
X194284819Y-82336309D02*
X194284819Y-82241071D01*
X194284819Y-82241071D02*
X194237200Y-82145833D01*
X194237200Y-82145833D02*
X194189580Y-82098214D01*
X194189580Y-82098214D02*
X194094342Y-82050595D01*
X194094342Y-82050595D02*
X193903866Y-82002976D01*
X193903866Y-82002976D02*
X193665771Y-82002976D01*
X193665771Y-82002976D02*
X193475295Y-82050595D01*
X193475295Y-82050595D02*
X193380057Y-82098214D01*
X193380057Y-82098214D02*
X193332438Y-82145833D01*
X193332438Y-82145833D02*
X193284819Y-82241071D01*
X211814819Y-122115714D02*
X210814819Y-122115714D01*
X210814819Y-122115714D02*
X210814819Y-122353809D01*
X210814819Y-122353809D02*
X210862438Y-122496666D01*
X210862438Y-122496666D02*
X210957676Y-122591904D01*
X210957676Y-122591904D02*
X211052914Y-122639523D01*
X211052914Y-122639523D02*
X211243390Y-122687142D01*
X211243390Y-122687142D02*
X211386247Y-122687142D01*
X211386247Y-122687142D02*
X211576723Y-122639523D01*
X211576723Y-122639523D02*
X211671961Y-122591904D01*
X211671961Y-122591904D02*
X211767200Y-122496666D01*
X211767200Y-122496666D02*
X211814819Y-122353809D01*
X211814819Y-122353809D02*
X211814819Y-122115714D01*
X211814819Y-123639523D02*
X211814819Y-123068095D01*
X211814819Y-123353809D02*
X210814819Y-123353809D01*
X210814819Y-123353809D02*
X210957676Y-123258571D01*
X210957676Y-123258571D02*
X211052914Y-123163333D01*
X211052914Y-123163333D02*
X211100533Y-123068095D01*
X210814819Y-124496666D02*
X210814819Y-124306190D01*
X210814819Y-124306190D02*
X210862438Y-124210952D01*
X210862438Y-124210952D02*
X210910057Y-124163333D01*
X210910057Y-124163333D02*
X211052914Y-124068095D01*
X211052914Y-124068095D02*
X211243390Y-124020476D01*
X211243390Y-124020476D02*
X211624342Y-124020476D01*
X211624342Y-124020476D02*
X211719580Y-124068095D01*
X211719580Y-124068095D02*
X211767200Y-124115714D01*
X211767200Y-124115714D02*
X211814819Y-124210952D01*
X211814819Y-124210952D02*
X211814819Y-124401428D01*
X211814819Y-124401428D02*
X211767200Y-124496666D01*
X211767200Y-124496666D02*
X211719580Y-124544285D01*
X211719580Y-124544285D02*
X211624342Y-124591904D01*
X211624342Y-124591904D02*
X211386247Y-124591904D01*
X211386247Y-124591904D02*
X211291009Y-124544285D01*
X211291009Y-124544285D02*
X211243390Y-124496666D01*
X211243390Y-124496666D02*
X211195771Y-124401428D01*
X211195771Y-124401428D02*
X211195771Y-124210952D01*
X211195771Y-124210952D02*
X211243390Y-124115714D01*
X211243390Y-124115714D02*
X211291009Y-124068095D01*
X211291009Y-124068095D02*
X211386247Y-124020476D01*
X194324819Y-61851905D02*
X193324819Y-61851905D01*
X193324819Y-61851905D02*
X193324819Y-62090000D01*
X193324819Y-62090000D02*
X193372438Y-62232857D01*
X193372438Y-62232857D02*
X193467676Y-62328095D01*
X193467676Y-62328095D02*
X193562914Y-62375714D01*
X193562914Y-62375714D02*
X193753390Y-62423333D01*
X193753390Y-62423333D02*
X193896247Y-62423333D01*
X193896247Y-62423333D02*
X194086723Y-62375714D01*
X194086723Y-62375714D02*
X194181961Y-62328095D01*
X194181961Y-62328095D02*
X194277200Y-62232857D01*
X194277200Y-62232857D02*
X194324819Y-62090000D01*
X194324819Y-62090000D02*
X194324819Y-61851905D01*
X194324819Y-62899524D02*
X194324819Y-63090000D01*
X194324819Y-63090000D02*
X194277200Y-63185238D01*
X194277200Y-63185238D02*
X194229580Y-63232857D01*
X194229580Y-63232857D02*
X194086723Y-63328095D01*
X194086723Y-63328095D02*
X193896247Y-63375714D01*
X193896247Y-63375714D02*
X193515295Y-63375714D01*
X193515295Y-63375714D02*
X193420057Y-63328095D01*
X193420057Y-63328095D02*
X193372438Y-63280476D01*
X193372438Y-63280476D02*
X193324819Y-63185238D01*
X193324819Y-63185238D02*
X193324819Y-62994762D01*
X193324819Y-62994762D02*
X193372438Y-62899524D01*
X193372438Y-62899524D02*
X193420057Y-62851905D01*
X193420057Y-62851905D02*
X193515295Y-62804286D01*
X193515295Y-62804286D02*
X193753390Y-62804286D01*
X193753390Y-62804286D02*
X193848628Y-62851905D01*
X193848628Y-62851905D02*
X193896247Y-62899524D01*
X193896247Y-62899524D02*
X193943866Y-62994762D01*
X193943866Y-62994762D02*
X193943866Y-63185238D01*
X193943866Y-63185238D02*
X193896247Y-63280476D01*
X193896247Y-63280476D02*
X193848628Y-63328095D01*
X193848628Y-63328095D02*
X193753390Y-63375714D01*
X255271904Y-105001819D02*
X254700476Y-105001819D01*
X254986190Y-106001819D02*
X254986190Y-105001819D01*
X254367142Y-106001819D02*
X254367142Y-105001819D01*
X254367142Y-105001819D02*
X253986190Y-105001819D01*
X253986190Y-105001819D02*
X253890952Y-105049438D01*
X253890952Y-105049438D02*
X253843333Y-105097057D01*
X253843333Y-105097057D02*
X253795714Y-105192295D01*
X253795714Y-105192295D02*
X253795714Y-105335152D01*
X253795714Y-105335152D02*
X253843333Y-105430390D01*
X253843333Y-105430390D02*
X253890952Y-105478009D01*
X253890952Y-105478009D02*
X253986190Y-105525628D01*
X253986190Y-105525628D02*
X254367142Y-105525628D01*
X253414761Y-105097057D02*
X253367142Y-105049438D01*
X253367142Y-105049438D02*
X253271904Y-105001819D01*
X253271904Y-105001819D02*
X253033809Y-105001819D01*
X253033809Y-105001819D02*
X252938571Y-105049438D01*
X252938571Y-105049438D02*
X252890952Y-105097057D01*
X252890952Y-105097057D02*
X252843333Y-105192295D01*
X252843333Y-105192295D02*
X252843333Y-105287533D01*
X252843333Y-105287533D02*
X252890952Y-105430390D01*
X252890952Y-105430390D02*
X253462380Y-106001819D01*
X253462380Y-106001819D02*
X252843333Y-106001819D01*
X229314819Y-108755714D02*
X228314819Y-108755714D01*
X228314819Y-108755714D02*
X228314819Y-108993809D01*
X228314819Y-108993809D02*
X228362438Y-109136666D01*
X228362438Y-109136666D02*
X228457676Y-109231904D01*
X228457676Y-109231904D02*
X228552914Y-109279523D01*
X228552914Y-109279523D02*
X228743390Y-109327142D01*
X228743390Y-109327142D02*
X228886247Y-109327142D01*
X228886247Y-109327142D02*
X229076723Y-109279523D01*
X229076723Y-109279523D02*
X229171961Y-109231904D01*
X229171961Y-109231904D02*
X229267200Y-109136666D01*
X229267200Y-109136666D02*
X229314819Y-108993809D01*
X229314819Y-108993809D02*
X229314819Y-108755714D01*
X229314819Y-110279523D02*
X229314819Y-109708095D01*
X229314819Y-109993809D02*
X228314819Y-109993809D01*
X228314819Y-109993809D02*
X228457676Y-109898571D01*
X228457676Y-109898571D02*
X228552914Y-109803333D01*
X228552914Y-109803333D02*
X228600533Y-109708095D01*
X229314819Y-110755714D02*
X229314819Y-110946190D01*
X229314819Y-110946190D02*
X229267200Y-111041428D01*
X229267200Y-111041428D02*
X229219580Y-111089047D01*
X229219580Y-111089047D02*
X229076723Y-111184285D01*
X229076723Y-111184285D02*
X228886247Y-111231904D01*
X228886247Y-111231904D02*
X228505295Y-111231904D01*
X228505295Y-111231904D02*
X228410057Y-111184285D01*
X228410057Y-111184285D02*
X228362438Y-111136666D01*
X228362438Y-111136666D02*
X228314819Y-111041428D01*
X228314819Y-111041428D02*
X228314819Y-110850952D01*
X228314819Y-110850952D02*
X228362438Y-110755714D01*
X228362438Y-110755714D02*
X228410057Y-110708095D01*
X228410057Y-110708095D02*
X228505295Y-110660476D01*
X228505295Y-110660476D02*
X228743390Y-110660476D01*
X228743390Y-110660476D02*
X228838628Y-110708095D01*
X228838628Y-110708095D02*
X228886247Y-110755714D01*
X228886247Y-110755714D02*
X228933866Y-110850952D01*
X228933866Y-110850952D02*
X228933866Y-111041428D01*
X228933866Y-111041428D02*
X228886247Y-111136666D01*
X228886247Y-111136666D02*
X228838628Y-111184285D01*
X228838628Y-111184285D02*
X228743390Y-111231904D01*
X251734819Y-99150833D02*
X251258628Y-98817500D01*
X251734819Y-98579405D02*
X250734819Y-98579405D01*
X250734819Y-98579405D02*
X250734819Y-98960357D01*
X250734819Y-98960357D02*
X250782438Y-99055595D01*
X250782438Y-99055595D02*
X250830057Y-99103214D01*
X250830057Y-99103214D02*
X250925295Y-99150833D01*
X250925295Y-99150833D02*
X251068152Y-99150833D01*
X251068152Y-99150833D02*
X251163390Y-99103214D01*
X251163390Y-99103214D02*
X251211009Y-99055595D01*
X251211009Y-99055595D02*
X251258628Y-98960357D01*
X251258628Y-98960357D02*
X251258628Y-98579405D01*
X251734819Y-100103214D02*
X251734819Y-99531786D01*
X251734819Y-99817500D02*
X250734819Y-99817500D01*
X250734819Y-99817500D02*
X250877676Y-99722262D01*
X250877676Y-99722262D02*
X250972914Y-99627024D01*
X250972914Y-99627024D02*
X251020533Y-99531786D01*
X32109819Y-118380714D02*
X31109819Y-118380714D01*
X31109819Y-118380714D02*
X31109819Y-118618809D01*
X31109819Y-118618809D02*
X31157438Y-118761666D01*
X31157438Y-118761666D02*
X31252676Y-118856904D01*
X31252676Y-118856904D02*
X31347914Y-118904523D01*
X31347914Y-118904523D02*
X31538390Y-118952142D01*
X31538390Y-118952142D02*
X31681247Y-118952142D01*
X31681247Y-118952142D02*
X31871723Y-118904523D01*
X31871723Y-118904523D02*
X31966961Y-118856904D01*
X31966961Y-118856904D02*
X32062200Y-118761666D01*
X32062200Y-118761666D02*
X32109819Y-118618809D01*
X32109819Y-118618809D02*
X32109819Y-118380714D01*
X31443152Y-119809285D02*
X32109819Y-119809285D01*
X31062200Y-119571190D02*
X31776485Y-119333095D01*
X31776485Y-119333095D02*
X31776485Y-119952142D01*
X31205057Y-120285476D02*
X31157438Y-120333095D01*
X31157438Y-120333095D02*
X31109819Y-120428333D01*
X31109819Y-120428333D02*
X31109819Y-120666428D01*
X31109819Y-120666428D02*
X31157438Y-120761666D01*
X31157438Y-120761666D02*
X31205057Y-120809285D01*
X31205057Y-120809285D02*
X31300295Y-120856904D01*
X31300295Y-120856904D02*
X31395533Y-120856904D01*
X31395533Y-120856904D02*
X31538390Y-120809285D01*
X31538390Y-120809285D02*
X32109819Y-120237857D01*
X32109819Y-120237857D02*
X32109819Y-120856904D01*
X251904819Y-96645833D02*
X251428628Y-96312500D01*
X251904819Y-96074405D02*
X250904819Y-96074405D01*
X250904819Y-96074405D02*
X250904819Y-96455357D01*
X250904819Y-96455357D02*
X250952438Y-96550595D01*
X250952438Y-96550595D02*
X251000057Y-96598214D01*
X251000057Y-96598214D02*
X251095295Y-96645833D01*
X251095295Y-96645833D02*
X251238152Y-96645833D01*
X251238152Y-96645833D02*
X251333390Y-96598214D01*
X251333390Y-96598214D02*
X251381009Y-96550595D01*
X251381009Y-96550595D02*
X251428628Y-96455357D01*
X251428628Y-96455357D02*
X251428628Y-96074405D01*
X251000057Y-97026786D02*
X250952438Y-97074405D01*
X250952438Y-97074405D02*
X250904819Y-97169643D01*
X250904819Y-97169643D02*
X250904819Y-97407738D01*
X250904819Y-97407738D02*
X250952438Y-97502976D01*
X250952438Y-97502976D02*
X251000057Y-97550595D01*
X251000057Y-97550595D02*
X251095295Y-97598214D01*
X251095295Y-97598214D02*
X251190533Y-97598214D01*
X251190533Y-97598214D02*
X251333390Y-97550595D01*
X251333390Y-97550595D02*
X251904819Y-96979167D01*
X251904819Y-96979167D02*
X251904819Y-97598214D01*
X46269819Y-100780833D02*
X45793628Y-100447500D01*
X46269819Y-100209405D02*
X45269819Y-100209405D01*
X45269819Y-100209405D02*
X45269819Y-100590357D01*
X45269819Y-100590357D02*
X45317438Y-100685595D01*
X45317438Y-100685595D02*
X45365057Y-100733214D01*
X45365057Y-100733214D02*
X45460295Y-100780833D01*
X45460295Y-100780833D02*
X45603152Y-100780833D01*
X45603152Y-100780833D02*
X45698390Y-100733214D01*
X45698390Y-100733214D02*
X45746009Y-100685595D01*
X45746009Y-100685595D02*
X45793628Y-100590357D01*
X45793628Y-100590357D02*
X45793628Y-100209405D01*
X45269819Y-101114167D02*
X45269819Y-101733214D01*
X45269819Y-101733214D02*
X45650771Y-101399881D01*
X45650771Y-101399881D02*
X45650771Y-101542738D01*
X45650771Y-101542738D02*
X45698390Y-101637976D01*
X45698390Y-101637976D02*
X45746009Y-101685595D01*
X45746009Y-101685595D02*
X45841247Y-101733214D01*
X45841247Y-101733214D02*
X46079342Y-101733214D01*
X46079342Y-101733214D02*
X46174580Y-101685595D01*
X46174580Y-101685595D02*
X46222200Y-101637976D01*
X46222200Y-101637976D02*
X46269819Y-101542738D01*
X46269819Y-101542738D02*
X46269819Y-101257024D01*
X46269819Y-101257024D02*
X46222200Y-101161786D01*
X46222200Y-101161786D02*
X46174580Y-101114167D01*
X52299819Y-126990714D02*
X51299819Y-126990714D01*
X51299819Y-126990714D02*
X51299819Y-127228809D01*
X51299819Y-127228809D02*
X51347438Y-127371666D01*
X51347438Y-127371666D02*
X51442676Y-127466904D01*
X51442676Y-127466904D02*
X51537914Y-127514523D01*
X51537914Y-127514523D02*
X51728390Y-127562142D01*
X51728390Y-127562142D02*
X51871247Y-127562142D01*
X51871247Y-127562142D02*
X52061723Y-127514523D01*
X52061723Y-127514523D02*
X52156961Y-127466904D01*
X52156961Y-127466904D02*
X52252200Y-127371666D01*
X52252200Y-127371666D02*
X52299819Y-127228809D01*
X52299819Y-127228809D02*
X52299819Y-126990714D01*
X51633152Y-128419285D02*
X52299819Y-128419285D01*
X51252200Y-128181190D02*
X51966485Y-127943095D01*
X51966485Y-127943095D02*
X51966485Y-128562142D01*
X52299819Y-129466904D02*
X52299819Y-128895476D01*
X52299819Y-129181190D02*
X51299819Y-129181190D01*
X51299819Y-129181190D02*
X51442676Y-129085952D01*
X51442676Y-129085952D02*
X51537914Y-128990714D01*
X51537914Y-128990714D02*
X51585533Y-128895476D01*
X86559819Y-59150714D02*
X85559819Y-59150714D01*
X85559819Y-59150714D02*
X85559819Y-59388809D01*
X85559819Y-59388809D02*
X85607438Y-59531666D01*
X85607438Y-59531666D02*
X85702676Y-59626904D01*
X85702676Y-59626904D02*
X85797914Y-59674523D01*
X85797914Y-59674523D02*
X85988390Y-59722142D01*
X85988390Y-59722142D02*
X86131247Y-59722142D01*
X86131247Y-59722142D02*
X86321723Y-59674523D01*
X86321723Y-59674523D02*
X86416961Y-59626904D01*
X86416961Y-59626904D02*
X86512200Y-59531666D01*
X86512200Y-59531666D02*
X86559819Y-59388809D01*
X86559819Y-59388809D02*
X86559819Y-59150714D01*
X85559819Y-60055476D02*
X85559819Y-60674523D01*
X85559819Y-60674523D02*
X85940771Y-60341190D01*
X85940771Y-60341190D02*
X85940771Y-60484047D01*
X85940771Y-60484047D02*
X85988390Y-60579285D01*
X85988390Y-60579285D02*
X86036009Y-60626904D01*
X86036009Y-60626904D02*
X86131247Y-60674523D01*
X86131247Y-60674523D02*
X86369342Y-60674523D01*
X86369342Y-60674523D02*
X86464580Y-60626904D01*
X86464580Y-60626904D02*
X86512200Y-60579285D01*
X86512200Y-60579285D02*
X86559819Y-60484047D01*
X86559819Y-60484047D02*
X86559819Y-60198333D01*
X86559819Y-60198333D02*
X86512200Y-60103095D01*
X86512200Y-60103095D02*
X86464580Y-60055476D01*
X85559819Y-61293571D02*
X85559819Y-61388809D01*
X85559819Y-61388809D02*
X85607438Y-61484047D01*
X85607438Y-61484047D02*
X85655057Y-61531666D01*
X85655057Y-61531666D02*
X85750295Y-61579285D01*
X85750295Y-61579285D02*
X85940771Y-61626904D01*
X85940771Y-61626904D02*
X86178866Y-61626904D01*
X86178866Y-61626904D02*
X86369342Y-61579285D01*
X86369342Y-61579285D02*
X86464580Y-61531666D01*
X86464580Y-61531666D02*
X86512200Y-61484047D01*
X86512200Y-61484047D02*
X86559819Y-61388809D01*
X86559819Y-61388809D02*
X86559819Y-61293571D01*
X86559819Y-61293571D02*
X86512200Y-61198333D01*
X86512200Y-61198333D02*
X86464580Y-61150714D01*
X86464580Y-61150714D02*
X86369342Y-61103095D01*
X86369342Y-61103095D02*
X86178866Y-61055476D01*
X86178866Y-61055476D02*
X85940771Y-61055476D01*
X85940771Y-61055476D02*
X85750295Y-61103095D01*
X85750295Y-61103095D02*
X85655057Y-61150714D01*
X85655057Y-61150714D02*
X85607438Y-61198333D01*
X85607438Y-61198333D02*
X85559819Y-61293571D01*
X52569819Y-98830833D02*
X52093628Y-98497500D01*
X52569819Y-98259405D02*
X51569819Y-98259405D01*
X51569819Y-98259405D02*
X51569819Y-98640357D01*
X51569819Y-98640357D02*
X51617438Y-98735595D01*
X51617438Y-98735595D02*
X51665057Y-98783214D01*
X51665057Y-98783214D02*
X51760295Y-98830833D01*
X51760295Y-98830833D02*
X51903152Y-98830833D01*
X51903152Y-98830833D02*
X51998390Y-98783214D01*
X51998390Y-98783214D02*
X52046009Y-98735595D01*
X52046009Y-98735595D02*
X52093628Y-98640357D01*
X52093628Y-98640357D02*
X52093628Y-98259405D01*
X51903152Y-99687976D02*
X52569819Y-99687976D01*
X51522200Y-99449881D02*
X52236485Y-99211786D01*
X52236485Y-99211786D02*
X52236485Y-99830833D01*
X86209819Y-78963214D02*
X85209819Y-78963214D01*
X85209819Y-78963214D02*
X85209819Y-79201309D01*
X85209819Y-79201309D02*
X85257438Y-79344166D01*
X85257438Y-79344166D02*
X85352676Y-79439404D01*
X85352676Y-79439404D02*
X85447914Y-79487023D01*
X85447914Y-79487023D02*
X85638390Y-79534642D01*
X85638390Y-79534642D02*
X85781247Y-79534642D01*
X85781247Y-79534642D02*
X85971723Y-79487023D01*
X85971723Y-79487023D02*
X86066961Y-79439404D01*
X86066961Y-79439404D02*
X86162200Y-79344166D01*
X86162200Y-79344166D02*
X86209819Y-79201309D01*
X86209819Y-79201309D02*
X86209819Y-78963214D01*
X85209819Y-79867976D02*
X85209819Y-80487023D01*
X85209819Y-80487023D02*
X85590771Y-80153690D01*
X85590771Y-80153690D02*
X85590771Y-80296547D01*
X85590771Y-80296547D02*
X85638390Y-80391785D01*
X85638390Y-80391785D02*
X85686009Y-80439404D01*
X85686009Y-80439404D02*
X85781247Y-80487023D01*
X85781247Y-80487023D02*
X86019342Y-80487023D01*
X86019342Y-80487023D02*
X86114580Y-80439404D01*
X86114580Y-80439404D02*
X86162200Y-80391785D01*
X86162200Y-80391785D02*
X86209819Y-80296547D01*
X86209819Y-80296547D02*
X86209819Y-80010833D01*
X86209819Y-80010833D02*
X86162200Y-79915595D01*
X86162200Y-79915595D02*
X86114580Y-79867976D01*
X86209819Y-81439404D02*
X86209819Y-80867976D01*
X86209819Y-81153690D02*
X85209819Y-81153690D01*
X85209819Y-81153690D02*
X85352676Y-81058452D01*
X85352676Y-81058452D02*
X85447914Y-80963214D01*
X85447914Y-80963214D02*
X85495533Y-80867976D01*
X86009819Y-98470714D02*
X85009819Y-98470714D01*
X85009819Y-98470714D02*
X85009819Y-98708809D01*
X85009819Y-98708809D02*
X85057438Y-98851666D01*
X85057438Y-98851666D02*
X85152676Y-98946904D01*
X85152676Y-98946904D02*
X85247914Y-98994523D01*
X85247914Y-98994523D02*
X85438390Y-99042142D01*
X85438390Y-99042142D02*
X85581247Y-99042142D01*
X85581247Y-99042142D02*
X85771723Y-98994523D01*
X85771723Y-98994523D02*
X85866961Y-98946904D01*
X85866961Y-98946904D02*
X85962200Y-98851666D01*
X85962200Y-98851666D02*
X86009819Y-98708809D01*
X86009819Y-98708809D02*
X86009819Y-98470714D01*
X85009819Y-99375476D02*
X85009819Y-99994523D01*
X85009819Y-99994523D02*
X85390771Y-99661190D01*
X85390771Y-99661190D02*
X85390771Y-99804047D01*
X85390771Y-99804047D02*
X85438390Y-99899285D01*
X85438390Y-99899285D02*
X85486009Y-99946904D01*
X85486009Y-99946904D02*
X85581247Y-99994523D01*
X85581247Y-99994523D02*
X85819342Y-99994523D01*
X85819342Y-99994523D02*
X85914580Y-99946904D01*
X85914580Y-99946904D02*
X85962200Y-99899285D01*
X85962200Y-99899285D02*
X86009819Y-99804047D01*
X86009819Y-99804047D02*
X86009819Y-99518333D01*
X86009819Y-99518333D02*
X85962200Y-99423095D01*
X85962200Y-99423095D02*
X85914580Y-99375476D01*
X85105057Y-100375476D02*
X85057438Y-100423095D01*
X85057438Y-100423095D02*
X85009819Y-100518333D01*
X85009819Y-100518333D02*
X85009819Y-100756428D01*
X85009819Y-100756428D02*
X85057438Y-100851666D01*
X85057438Y-100851666D02*
X85105057Y-100899285D01*
X85105057Y-100899285D02*
X85200295Y-100946904D01*
X85200295Y-100946904D02*
X85295533Y-100946904D01*
X85295533Y-100946904D02*
X85438390Y-100899285D01*
X85438390Y-100899285D02*
X86009819Y-100327857D01*
X86009819Y-100327857D02*
X86009819Y-100946904D01*
X178074819Y-122991905D02*
X177074819Y-122991905D01*
X177074819Y-122991905D02*
X177074819Y-123230000D01*
X177074819Y-123230000D02*
X177122438Y-123372857D01*
X177122438Y-123372857D02*
X177217676Y-123468095D01*
X177217676Y-123468095D02*
X177312914Y-123515714D01*
X177312914Y-123515714D02*
X177503390Y-123563333D01*
X177503390Y-123563333D02*
X177646247Y-123563333D01*
X177646247Y-123563333D02*
X177836723Y-123515714D01*
X177836723Y-123515714D02*
X177931961Y-123468095D01*
X177931961Y-123468095D02*
X178027200Y-123372857D01*
X178027200Y-123372857D02*
X178074819Y-123230000D01*
X178074819Y-123230000D02*
X178074819Y-122991905D01*
X177503390Y-124134762D02*
X177455771Y-124039524D01*
X177455771Y-124039524D02*
X177408152Y-123991905D01*
X177408152Y-123991905D02*
X177312914Y-123944286D01*
X177312914Y-123944286D02*
X177265295Y-123944286D01*
X177265295Y-123944286D02*
X177170057Y-123991905D01*
X177170057Y-123991905D02*
X177122438Y-124039524D01*
X177122438Y-124039524D02*
X177074819Y-124134762D01*
X177074819Y-124134762D02*
X177074819Y-124325238D01*
X177074819Y-124325238D02*
X177122438Y-124420476D01*
X177122438Y-124420476D02*
X177170057Y-124468095D01*
X177170057Y-124468095D02*
X177265295Y-124515714D01*
X177265295Y-124515714D02*
X177312914Y-124515714D01*
X177312914Y-124515714D02*
X177408152Y-124468095D01*
X177408152Y-124468095D02*
X177455771Y-124420476D01*
X177455771Y-124420476D02*
X177503390Y-124325238D01*
X177503390Y-124325238D02*
X177503390Y-124134762D01*
X177503390Y-124134762D02*
X177551009Y-124039524D01*
X177551009Y-124039524D02*
X177598628Y-123991905D01*
X177598628Y-123991905D02*
X177693866Y-123944286D01*
X177693866Y-123944286D02*
X177884342Y-123944286D01*
X177884342Y-123944286D02*
X177979580Y-123991905D01*
X177979580Y-123991905D02*
X178027200Y-124039524D01*
X178027200Y-124039524D02*
X178074819Y-124134762D01*
X178074819Y-124134762D02*
X178074819Y-124325238D01*
X178074819Y-124325238D02*
X178027200Y-124420476D01*
X178027200Y-124420476D02*
X177979580Y-124468095D01*
X177979580Y-124468095D02*
X177884342Y-124515714D01*
X177884342Y-124515714D02*
X177693866Y-124515714D01*
X177693866Y-124515714D02*
X177598628Y-124468095D01*
X177598628Y-124468095D02*
X177551009Y-124420476D01*
X177551009Y-124420476D02*
X177503390Y-124325238D01*
X229664819Y-70095714D02*
X228664819Y-70095714D01*
X228664819Y-70095714D02*
X228664819Y-70333809D01*
X228664819Y-70333809D02*
X228712438Y-70476666D01*
X228712438Y-70476666D02*
X228807676Y-70571904D01*
X228807676Y-70571904D02*
X228902914Y-70619523D01*
X228902914Y-70619523D02*
X229093390Y-70667142D01*
X229093390Y-70667142D02*
X229236247Y-70667142D01*
X229236247Y-70667142D02*
X229426723Y-70619523D01*
X229426723Y-70619523D02*
X229521961Y-70571904D01*
X229521961Y-70571904D02*
X229617200Y-70476666D01*
X229617200Y-70476666D02*
X229664819Y-70333809D01*
X229664819Y-70333809D02*
X229664819Y-70095714D01*
X229664819Y-71619523D02*
X229664819Y-71048095D01*
X229664819Y-71333809D02*
X228664819Y-71333809D01*
X228664819Y-71333809D02*
X228807676Y-71238571D01*
X228807676Y-71238571D02*
X228902914Y-71143333D01*
X228902914Y-71143333D02*
X228950533Y-71048095D01*
X228664819Y-71952857D02*
X228664819Y-72619523D01*
X228664819Y-72619523D02*
X229664819Y-72190952D01*
X176964819Y-104061905D02*
X175964819Y-104061905D01*
X175964819Y-104061905D02*
X175964819Y-104300000D01*
X175964819Y-104300000D02*
X176012438Y-104442857D01*
X176012438Y-104442857D02*
X176107676Y-104538095D01*
X176107676Y-104538095D02*
X176202914Y-104585714D01*
X176202914Y-104585714D02*
X176393390Y-104633333D01*
X176393390Y-104633333D02*
X176536247Y-104633333D01*
X176536247Y-104633333D02*
X176726723Y-104585714D01*
X176726723Y-104585714D02*
X176821961Y-104538095D01*
X176821961Y-104538095D02*
X176917200Y-104442857D01*
X176917200Y-104442857D02*
X176964819Y-104300000D01*
X176964819Y-104300000D02*
X176964819Y-104061905D01*
X175964819Y-104966667D02*
X175964819Y-105633333D01*
X175964819Y-105633333D02*
X176964819Y-105204762D01*
X103559819Y-102150714D02*
X102559819Y-102150714D01*
X102559819Y-102150714D02*
X102559819Y-102388809D01*
X102559819Y-102388809D02*
X102607438Y-102531666D01*
X102607438Y-102531666D02*
X102702676Y-102626904D01*
X102702676Y-102626904D02*
X102797914Y-102674523D01*
X102797914Y-102674523D02*
X102988390Y-102722142D01*
X102988390Y-102722142D02*
X103131247Y-102722142D01*
X103131247Y-102722142D02*
X103321723Y-102674523D01*
X103321723Y-102674523D02*
X103416961Y-102626904D01*
X103416961Y-102626904D02*
X103512200Y-102531666D01*
X103512200Y-102531666D02*
X103559819Y-102388809D01*
X103559819Y-102388809D02*
X103559819Y-102150714D01*
X102655057Y-103103095D02*
X102607438Y-103150714D01*
X102607438Y-103150714D02*
X102559819Y-103245952D01*
X102559819Y-103245952D02*
X102559819Y-103484047D01*
X102559819Y-103484047D02*
X102607438Y-103579285D01*
X102607438Y-103579285D02*
X102655057Y-103626904D01*
X102655057Y-103626904D02*
X102750295Y-103674523D01*
X102750295Y-103674523D02*
X102845533Y-103674523D01*
X102845533Y-103674523D02*
X102988390Y-103626904D01*
X102988390Y-103626904D02*
X103559819Y-103055476D01*
X103559819Y-103055476D02*
X103559819Y-103674523D01*
X102988390Y-104245952D02*
X102940771Y-104150714D01*
X102940771Y-104150714D02*
X102893152Y-104103095D01*
X102893152Y-104103095D02*
X102797914Y-104055476D01*
X102797914Y-104055476D02*
X102750295Y-104055476D01*
X102750295Y-104055476D02*
X102655057Y-104103095D01*
X102655057Y-104103095D02*
X102607438Y-104150714D01*
X102607438Y-104150714D02*
X102559819Y-104245952D01*
X102559819Y-104245952D02*
X102559819Y-104436428D01*
X102559819Y-104436428D02*
X102607438Y-104531666D01*
X102607438Y-104531666D02*
X102655057Y-104579285D01*
X102655057Y-104579285D02*
X102750295Y-104626904D01*
X102750295Y-104626904D02*
X102797914Y-104626904D01*
X102797914Y-104626904D02*
X102893152Y-104579285D01*
X102893152Y-104579285D02*
X102940771Y-104531666D01*
X102940771Y-104531666D02*
X102988390Y-104436428D01*
X102988390Y-104436428D02*
X102988390Y-104245952D01*
X102988390Y-104245952D02*
X103036009Y-104150714D01*
X103036009Y-104150714D02*
X103083628Y-104103095D01*
X103083628Y-104103095D02*
X103178866Y-104055476D01*
X103178866Y-104055476D02*
X103369342Y-104055476D01*
X103369342Y-104055476D02*
X103464580Y-104103095D01*
X103464580Y-104103095D02*
X103512200Y-104150714D01*
X103512200Y-104150714D02*
X103559819Y-104245952D01*
X103559819Y-104245952D02*
X103559819Y-104436428D01*
X103559819Y-104436428D02*
X103512200Y-104531666D01*
X103512200Y-104531666D02*
X103464580Y-104579285D01*
X103464580Y-104579285D02*
X103369342Y-104626904D01*
X103369342Y-104626904D02*
X103178866Y-104626904D01*
X103178866Y-104626904D02*
X103083628Y-104579285D01*
X103083628Y-104579285D02*
X103036009Y-104531666D01*
X103036009Y-104531666D02*
X102988390Y-104436428D01*
X54806904Y-90301819D02*
X54235476Y-90301819D01*
X54521190Y-91301819D02*
X54521190Y-90301819D01*
X53902142Y-91301819D02*
X53902142Y-90301819D01*
X53902142Y-90301819D02*
X53521190Y-90301819D01*
X53521190Y-90301819D02*
X53425952Y-90349438D01*
X53425952Y-90349438D02*
X53378333Y-90397057D01*
X53378333Y-90397057D02*
X53330714Y-90492295D01*
X53330714Y-90492295D02*
X53330714Y-90635152D01*
X53330714Y-90635152D02*
X53378333Y-90730390D01*
X53378333Y-90730390D02*
X53425952Y-90778009D01*
X53425952Y-90778009D02*
X53521190Y-90825628D01*
X53521190Y-90825628D02*
X53902142Y-90825628D01*
X52473571Y-90635152D02*
X52473571Y-91301819D01*
X52711666Y-90254200D02*
X52949761Y-90968485D01*
X52949761Y-90968485D02*
X52330714Y-90968485D01*
X123359819Y-106623214D02*
X122359819Y-106623214D01*
X122359819Y-106623214D02*
X122359819Y-106861309D01*
X122359819Y-106861309D02*
X122407438Y-107004166D01*
X122407438Y-107004166D02*
X122502676Y-107099404D01*
X122502676Y-107099404D02*
X122597914Y-107147023D01*
X122597914Y-107147023D02*
X122788390Y-107194642D01*
X122788390Y-107194642D02*
X122931247Y-107194642D01*
X122931247Y-107194642D02*
X123121723Y-107147023D01*
X123121723Y-107147023D02*
X123216961Y-107099404D01*
X123216961Y-107099404D02*
X123312200Y-107004166D01*
X123312200Y-107004166D02*
X123359819Y-106861309D01*
X123359819Y-106861309D02*
X123359819Y-106623214D01*
X122455057Y-107575595D02*
X122407438Y-107623214D01*
X122407438Y-107623214D02*
X122359819Y-107718452D01*
X122359819Y-107718452D02*
X122359819Y-107956547D01*
X122359819Y-107956547D02*
X122407438Y-108051785D01*
X122407438Y-108051785D02*
X122455057Y-108099404D01*
X122455057Y-108099404D02*
X122550295Y-108147023D01*
X122550295Y-108147023D02*
X122645533Y-108147023D01*
X122645533Y-108147023D02*
X122788390Y-108099404D01*
X122788390Y-108099404D02*
X123359819Y-107527976D01*
X123359819Y-107527976D02*
X123359819Y-108147023D01*
X122693152Y-109004166D02*
X123359819Y-109004166D01*
X122312200Y-108766071D02*
X123026485Y-108527976D01*
X123026485Y-108527976D02*
X123026485Y-109147023D01*
X103589819Y-121040714D02*
X102589819Y-121040714D01*
X102589819Y-121040714D02*
X102589819Y-121278809D01*
X102589819Y-121278809D02*
X102637438Y-121421666D01*
X102637438Y-121421666D02*
X102732676Y-121516904D01*
X102732676Y-121516904D02*
X102827914Y-121564523D01*
X102827914Y-121564523D02*
X103018390Y-121612142D01*
X103018390Y-121612142D02*
X103161247Y-121612142D01*
X103161247Y-121612142D02*
X103351723Y-121564523D01*
X103351723Y-121564523D02*
X103446961Y-121516904D01*
X103446961Y-121516904D02*
X103542200Y-121421666D01*
X103542200Y-121421666D02*
X103589819Y-121278809D01*
X103589819Y-121278809D02*
X103589819Y-121040714D01*
X102685057Y-121993095D02*
X102637438Y-122040714D01*
X102637438Y-122040714D02*
X102589819Y-122135952D01*
X102589819Y-122135952D02*
X102589819Y-122374047D01*
X102589819Y-122374047D02*
X102637438Y-122469285D01*
X102637438Y-122469285D02*
X102685057Y-122516904D01*
X102685057Y-122516904D02*
X102780295Y-122564523D01*
X102780295Y-122564523D02*
X102875533Y-122564523D01*
X102875533Y-122564523D02*
X103018390Y-122516904D01*
X103018390Y-122516904D02*
X103589819Y-121945476D01*
X103589819Y-121945476D02*
X103589819Y-122564523D01*
X103589819Y-123040714D02*
X103589819Y-123231190D01*
X103589819Y-123231190D02*
X103542200Y-123326428D01*
X103542200Y-123326428D02*
X103494580Y-123374047D01*
X103494580Y-123374047D02*
X103351723Y-123469285D01*
X103351723Y-123469285D02*
X103161247Y-123516904D01*
X103161247Y-123516904D02*
X102780295Y-123516904D01*
X102780295Y-123516904D02*
X102685057Y-123469285D01*
X102685057Y-123469285D02*
X102637438Y-123421666D01*
X102637438Y-123421666D02*
X102589819Y-123326428D01*
X102589819Y-123326428D02*
X102589819Y-123135952D01*
X102589819Y-123135952D02*
X102637438Y-123040714D01*
X102637438Y-123040714D02*
X102685057Y-122993095D01*
X102685057Y-122993095D02*
X102780295Y-122945476D01*
X102780295Y-122945476D02*
X103018390Y-122945476D01*
X103018390Y-122945476D02*
X103113628Y-122993095D01*
X103113628Y-122993095D02*
X103161247Y-123040714D01*
X103161247Y-123040714D02*
X103208866Y-123135952D01*
X103208866Y-123135952D02*
X103208866Y-123326428D01*
X103208866Y-123326428D02*
X103161247Y-123421666D01*
X103161247Y-123421666D02*
X103113628Y-123469285D01*
X103113628Y-123469285D02*
X103018390Y-123516904D01*
X123309819Y-87650714D02*
X122309819Y-87650714D01*
X122309819Y-87650714D02*
X122309819Y-87888809D01*
X122309819Y-87888809D02*
X122357438Y-88031666D01*
X122357438Y-88031666D02*
X122452676Y-88126904D01*
X122452676Y-88126904D02*
X122547914Y-88174523D01*
X122547914Y-88174523D02*
X122738390Y-88222142D01*
X122738390Y-88222142D02*
X122881247Y-88222142D01*
X122881247Y-88222142D02*
X123071723Y-88174523D01*
X123071723Y-88174523D02*
X123166961Y-88126904D01*
X123166961Y-88126904D02*
X123262200Y-88031666D01*
X123262200Y-88031666D02*
X123309819Y-87888809D01*
X123309819Y-87888809D02*
X123309819Y-87650714D01*
X122405057Y-88603095D02*
X122357438Y-88650714D01*
X122357438Y-88650714D02*
X122309819Y-88745952D01*
X122309819Y-88745952D02*
X122309819Y-88984047D01*
X122309819Y-88984047D02*
X122357438Y-89079285D01*
X122357438Y-89079285D02*
X122405057Y-89126904D01*
X122405057Y-89126904D02*
X122500295Y-89174523D01*
X122500295Y-89174523D02*
X122595533Y-89174523D01*
X122595533Y-89174523D02*
X122738390Y-89126904D01*
X122738390Y-89126904D02*
X123309819Y-88555476D01*
X123309819Y-88555476D02*
X123309819Y-89174523D01*
X122309819Y-89507857D02*
X122309819Y-90126904D01*
X122309819Y-90126904D02*
X122690771Y-89793571D01*
X122690771Y-89793571D02*
X122690771Y-89936428D01*
X122690771Y-89936428D02*
X122738390Y-90031666D01*
X122738390Y-90031666D02*
X122786009Y-90079285D01*
X122786009Y-90079285D02*
X122881247Y-90126904D01*
X122881247Y-90126904D02*
X123119342Y-90126904D01*
X123119342Y-90126904D02*
X123214580Y-90079285D01*
X123214580Y-90079285D02*
X123262200Y-90031666D01*
X123262200Y-90031666D02*
X123309819Y-89936428D01*
X123309819Y-89936428D02*
X123309819Y-89650714D01*
X123309819Y-89650714D02*
X123262200Y-89555476D01*
X123262200Y-89555476D02*
X123214580Y-89507857D01*
X49616904Y-88751819D02*
X49045476Y-88751819D01*
X49331190Y-89751819D02*
X49331190Y-88751819D01*
X48712142Y-89751819D02*
X48712142Y-88751819D01*
X48712142Y-88751819D02*
X48331190Y-88751819D01*
X48331190Y-88751819D02*
X48235952Y-88799438D01*
X48235952Y-88799438D02*
X48188333Y-88847057D01*
X48188333Y-88847057D02*
X48140714Y-88942295D01*
X48140714Y-88942295D02*
X48140714Y-89085152D01*
X48140714Y-89085152D02*
X48188333Y-89180390D01*
X48188333Y-89180390D02*
X48235952Y-89228009D01*
X48235952Y-89228009D02*
X48331190Y-89275628D01*
X48331190Y-89275628D02*
X48712142Y-89275628D01*
X47807380Y-88751819D02*
X47188333Y-88751819D01*
X47188333Y-88751819D02*
X47521666Y-89132771D01*
X47521666Y-89132771D02*
X47378809Y-89132771D01*
X47378809Y-89132771D02*
X47283571Y-89180390D01*
X47283571Y-89180390D02*
X47235952Y-89228009D01*
X47235952Y-89228009D02*
X47188333Y-89323247D01*
X47188333Y-89323247D02*
X47188333Y-89561342D01*
X47188333Y-89561342D02*
X47235952Y-89656580D01*
X47235952Y-89656580D02*
X47283571Y-89704200D01*
X47283571Y-89704200D02*
X47378809Y-89751819D01*
X47378809Y-89751819D02*
X47664523Y-89751819D01*
X47664523Y-89751819D02*
X47759761Y-89704200D01*
X47759761Y-89704200D02*
X47807380Y-89656580D01*
X123349819Y-126163214D02*
X122349819Y-126163214D01*
X122349819Y-126163214D02*
X122349819Y-126401309D01*
X122349819Y-126401309D02*
X122397438Y-126544166D01*
X122397438Y-126544166D02*
X122492676Y-126639404D01*
X122492676Y-126639404D02*
X122587914Y-126687023D01*
X122587914Y-126687023D02*
X122778390Y-126734642D01*
X122778390Y-126734642D02*
X122921247Y-126734642D01*
X122921247Y-126734642D02*
X123111723Y-126687023D01*
X123111723Y-126687023D02*
X123206961Y-126639404D01*
X123206961Y-126639404D02*
X123302200Y-126544166D01*
X123302200Y-126544166D02*
X123349819Y-126401309D01*
X123349819Y-126401309D02*
X123349819Y-126163214D01*
X122445057Y-127115595D02*
X122397438Y-127163214D01*
X122397438Y-127163214D02*
X122349819Y-127258452D01*
X122349819Y-127258452D02*
X122349819Y-127496547D01*
X122349819Y-127496547D02*
X122397438Y-127591785D01*
X122397438Y-127591785D02*
X122445057Y-127639404D01*
X122445057Y-127639404D02*
X122540295Y-127687023D01*
X122540295Y-127687023D02*
X122635533Y-127687023D01*
X122635533Y-127687023D02*
X122778390Y-127639404D01*
X122778390Y-127639404D02*
X123349819Y-127067976D01*
X123349819Y-127067976D02*
X123349819Y-127687023D01*
X122349819Y-128591785D02*
X122349819Y-128115595D01*
X122349819Y-128115595D02*
X122826009Y-128067976D01*
X122826009Y-128067976D02*
X122778390Y-128115595D01*
X122778390Y-128115595D02*
X122730771Y-128210833D01*
X122730771Y-128210833D02*
X122730771Y-128448928D01*
X122730771Y-128448928D02*
X122778390Y-128544166D01*
X122778390Y-128544166D02*
X122826009Y-128591785D01*
X122826009Y-128591785D02*
X122921247Y-128639404D01*
X122921247Y-128639404D02*
X123159342Y-128639404D01*
X123159342Y-128639404D02*
X123254580Y-128591785D01*
X123254580Y-128591785D02*
X123302200Y-128544166D01*
X123302200Y-128544166D02*
X123349819Y-128448928D01*
X123349819Y-128448928D02*
X123349819Y-128210833D01*
X123349819Y-128210833D02*
X123302200Y-128115595D01*
X123302200Y-128115595D02*
X123254580Y-128067976D01*
X157814819Y-69681905D02*
X156814819Y-69681905D01*
X156814819Y-69681905D02*
X156814819Y-69920000D01*
X156814819Y-69920000D02*
X156862438Y-70062857D01*
X156862438Y-70062857D02*
X156957676Y-70158095D01*
X156957676Y-70158095D02*
X157052914Y-70205714D01*
X157052914Y-70205714D02*
X157243390Y-70253333D01*
X157243390Y-70253333D02*
X157386247Y-70253333D01*
X157386247Y-70253333D02*
X157576723Y-70205714D01*
X157576723Y-70205714D02*
X157671961Y-70158095D01*
X157671961Y-70158095D02*
X157767200Y-70062857D01*
X157767200Y-70062857D02*
X157814819Y-69920000D01*
X157814819Y-69920000D02*
X157814819Y-69681905D01*
X157814819Y-71205714D02*
X157814819Y-70634286D01*
X157814819Y-70920000D02*
X156814819Y-70920000D01*
X156814819Y-70920000D02*
X156957676Y-70824762D01*
X156957676Y-70824762D02*
X157052914Y-70729524D01*
X157052914Y-70729524D02*
X157100533Y-70634286D01*
X251461904Y-104941819D02*
X250890476Y-104941819D01*
X251176190Y-105941819D02*
X251176190Y-104941819D01*
X250557142Y-105941819D02*
X250557142Y-104941819D01*
X250557142Y-104941819D02*
X250176190Y-104941819D01*
X250176190Y-104941819D02*
X250080952Y-104989438D01*
X250080952Y-104989438D02*
X250033333Y-105037057D01*
X250033333Y-105037057D02*
X249985714Y-105132295D01*
X249985714Y-105132295D02*
X249985714Y-105275152D01*
X249985714Y-105275152D02*
X250033333Y-105370390D01*
X250033333Y-105370390D02*
X250080952Y-105418009D01*
X250080952Y-105418009D02*
X250176190Y-105465628D01*
X250176190Y-105465628D02*
X250557142Y-105465628D01*
X249033333Y-105941819D02*
X249604761Y-105941819D01*
X249319047Y-105941819D02*
X249319047Y-104941819D01*
X249319047Y-104941819D02*
X249414285Y-105084676D01*
X249414285Y-105084676D02*
X249509523Y-105179914D01*
X249509523Y-105179914D02*
X249604761Y-105227533D01*
X52909819Y-67980714D02*
X51909819Y-67980714D01*
X51909819Y-67980714D02*
X51909819Y-68218809D01*
X51909819Y-68218809D02*
X51957438Y-68361666D01*
X51957438Y-68361666D02*
X52052676Y-68456904D01*
X52052676Y-68456904D02*
X52147914Y-68504523D01*
X52147914Y-68504523D02*
X52338390Y-68552142D01*
X52338390Y-68552142D02*
X52481247Y-68552142D01*
X52481247Y-68552142D02*
X52671723Y-68504523D01*
X52671723Y-68504523D02*
X52766961Y-68456904D01*
X52766961Y-68456904D02*
X52862200Y-68361666D01*
X52862200Y-68361666D02*
X52909819Y-68218809D01*
X52909819Y-68218809D02*
X52909819Y-67980714D01*
X51909819Y-68885476D02*
X51909819Y-69504523D01*
X51909819Y-69504523D02*
X52290771Y-69171190D01*
X52290771Y-69171190D02*
X52290771Y-69314047D01*
X52290771Y-69314047D02*
X52338390Y-69409285D01*
X52338390Y-69409285D02*
X52386009Y-69456904D01*
X52386009Y-69456904D02*
X52481247Y-69504523D01*
X52481247Y-69504523D02*
X52719342Y-69504523D01*
X52719342Y-69504523D02*
X52814580Y-69456904D01*
X52814580Y-69456904D02*
X52862200Y-69409285D01*
X52862200Y-69409285D02*
X52909819Y-69314047D01*
X52909819Y-69314047D02*
X52909819Y-69028333D01*
X52909819Y-69028333D02*
X52862200Y-68933095D01*
X52862200Y-68933095D02*
X52814580Y-68885476D01*
X52338390Y-70075952D02*
X52290771Y-69980714D01*
X52290771Y-69980714D02*
X52243152Y-69933095D01*
X52243152Y-69933095D02*
X52147914Y-69885476D01*
X52147914Y-69885476D02*
X52100295Y-69885476D01*
X52100295Y-69885476D02*
X52005057Y-69933095D01*
X52005057Y-69933095D02*
X51957438Y-69980714D01*
X51957438Y-69980714D02*
X51909819Y-70075952D01*
X51909819Y-70075952D02*
X51909819Y-70266428D01*
X51909819Y-70266428D02*
X51957438Y-70361666D01*
X51957438Y-70361666D02*
X52005057Y-70409285D01*
X52005057Y-70409285D02*
X52100295Y-70456904D01*
X52100295Y-70456904D02*
X52147914Y-70456904D01*
X52147914Y-70456904D02*
X52243152Y-70409285D01*
X52243152Y-70409285D02*
X52290771Y-70361666D01*
X52290771Y-70361666D02*
X52338390Y-70266428D01*
X52338390Y-70266428D02*
X52338390Y-70075952D01*
X52338390Y-70075952D02*
X52386009Y-69980714D01*
X52386009Y-69980714D02*
X52433628Y-69933095D01*
X52433628Y-69933095D02*
X52528866Y-69885476D01*
X52528866Y-69885476D02*
X52719342Y-69885476D01*
X52719342Y-69885476D02*
X52814580Y-69933095D01*
X52814580Y-69933095D02*
X52862200Y-69980714D01*
X52862200Y-69980714D02*
X52909819Y-70075952D01*
X52909819Y-70075952D02*
X52909819Y-70266428D01*
X52909819Y-70266428D02*
X52862200Y-70361666D01*
X52862200Y-70361666D02*
X52814580Y-70409285D01*
X52814580Y-70409285D02*
X52719342Y-70456904D01*
X52719342Y-70456904D02*
X52528866Y-70456904D01*
X52528866Y-70456904D02*
X52433628Y-70409285D01*
X52433628Y-70409285D02*
X52386009Y-70361666D01*
X52386009Y-70361666D02*
X52338390Y-70266428D01*
X229664819Y-127805714D02*
X228664819Y-127805714D01*
X228664819Y-127805714D02*
X228664819Y-128043809D01*
X228664819Y-128043809D02*
X228712438Y-128186666D01*
X228712438Y-128186666D02*
X228807676Y-128281904D01*
X228807676Y-128281904D02*
X228902914Y-128329523D01*
X228902914Y-128329523D02*
X229093390Y-128377142D01*
X229093390Y-128377142D02*
X229236247Y-128377142D01*
X229236247Y-128377142D02*
X229426723Y-128329523D01*
X229426723Y-128329523D02*
X229521961Y-128281904D01*
X229521961Y-128281904D02*
X229617200Y-128186666D01*
X229617200Y-128186666D02*
X229664819Y-128043809D01*
X229664819Y-128043809D02*
X229664819Y-127805714D01*
X228760057Y-128758095D02*
X228712438Y-128805714D01*
X228712438Y-128805714D02*
X228664819Y-128900952D01*
X228664819Y-128900952D02*
X228664819Y-129139047D01*
X228664819Y-129139047D02*
X228712438Y-129234285D01*
X228712438Y-129234285D02*
X228760057Y-129281904D01*
X228760057Y-129281904D02*
X228855295Y-129329523D01*
X228855295Y-129329523D02*
X228950533Y-129329523D01*
X228950533Y-129329523D02*
X229093390Y-129281904D01*
X229093390Y-129281904D02*
X229664819Y-128710476D01*
X229664819Y-128710476D02*
X229664819Y-129329523D01*
X228664819Y-129948571D02*
X228664819Y-130043809D01*
X228664819Y-130043809D02*
X228712438Y-130139047D01*
X228712438Y-130139047D02*
X228760057Y-130186666D01*
X228760057Y-130186666D02*
X228855295Y-130234285D01*
X228855295Y-130234285D02*
X229045771Y-130281904D01*
X229045771Y-130281904D02*
X229283866Y-130281904D01*
X229283866Y-130281904D02*
X229474342Y-130234285D01*
X229474342Y-130234285D02*
X229569580Y-130186666D01*
X229569580Y-130186666D02*
X229617200Y-130139047D01*
X229617200Y-130139047D02*
X229664819Y-130043809D01*
X229664819Y-130043809D02*
X229664819Y-129948571D01*
X229664819Y-129948571D02*
X229617200Y-129853333D01*
X229617200Y-129853333D02*
X229569580Y-129805714D01*
X229569580Y-129805714D02*
X229474342Y-129758095D01*
X229474342Y-129758095D02*
X229283866Y-129710476D01*
X229283866Y-129710476D02*
X229045771Y-129710476D01*
X229045771Y-129710476D02*
X228855295Y-129758095D01*
X228855295Y-129758095D02*
X228760057Y-129805714D01*
X228760057Y-129805714D02*
X228712438Y-129853333D01*
X228712438Y-129853333D02*
X228664819Y-129948571D01*
X229664819Y-89445714D02*
X228664819Y-89445714D01*
X228664819Y-89445714D02*
X228664819Y-89683809D01*
X228664819Y-89683809D02*
X228712438Y-89826666D01*
X228712438Y-89826666D02*
X228807676Y-89921904D01*
X228807676Y-89921904D02*
X228902914Y-89969523D01*
X228902914Y-89969523D02*
X229093390Y-90017142D01*
X229093390Y-90017142D02*
X229236247Y-90017142D01*
X229236247Y-90017142D02*
X229426723Y-89969523D01*
X229426723Y-89969523D02*
X229521961Y-89921904D01*
X229521961Y-89921904D02*
X229617200Y-89826666D01*
X229617200Y-89826666D02*
X229664819Y-89683809D01*
X229664819Y-89683809D02*
X229664819Y-89445714D01*
X229664819Y-90969523D02*
X229664819Y-90398095D01*
X229664819Y-90683809D02*
X228664819Y-90683809D01*
X228664819Y-90683809D02*
X228807676Y-90588571D01*
X228807676Y-90588571D02*
X228902914Y-90493333D01*
X228902914Y-90493333D02*
X228950533Y-90398095D01*
X229093390Y-91540952D02*
X229045771Y-91445714D01*
X229045771Y-91445714D02*
X228998152Y-91398095D01*
X228998152Y-91398095D02*
X228902914Y-91350476D01*
X228902914Y-91350476D02*
X228855295Y-91350476D01*
X228855295Y-91350476D02*
X228760057Y-91398095D01*
X228760057Y-91398095D02*
X228712438Y-91445714D01*
X228712438Y-91445714D02*
X228664819Y-91540952D01*
X228664819Y-91540952D02*
X228664819Y-91731428D01*
X228664819Y-91731428D02*
X228712438Y-91826666D01*
X228712438Y-91826666D02*
X228760057Y-91874285D01*
X228760057Y-91874285D02*
X228855295Y-91921904D01*
X228855295Y-91921904D02*
X228902914Y-91921904D01*
X228902914Y-91921904D02*
X228998152Y-91874285D01*
X228998152Y-91874285D02*
X229045771Y-91826666D01*
X229045771Y-91826666D02*
X229093390Y-91731428D01*
X229093390Y-91731428D02*
X229093390Y-91540952D01*
X229093390Y-91540952D02*
X229141009Y-91445714D01*
X229141009Y-91445714D02*
X229188628Y-91398095D01*
X229188628Y-91398095D02*
X229283866Y-91350476D01*
X229283866Y-91350476D02*
X229474342Y-91350476D01*
X229474342Y-91350476D02*
X229569580Y-91398095D01*
X229569580Y-91398095D02*
X229617200Y-91445714D01*
X229617200Y-91445714D02*
X229664819Y-91540952D01*
X229664819Y-91540952D02*
X229664819Y-91731428D01*
X229664819Y-91731428D02*
X229617200Y-91826666D01*
X229617200Y-91826666D02*
X229569580Y-91874285D01*
X229569580Y-91874285D02*
X229474342Y-91921904D01*
X229474342Y-91921904D02*
X229283866Y-91921904D01*
X229283866Y-91921904D02*
X229188628Y-91874285D01*
X229188628Y-91874285D02*
X229141009Y-91826666D01*
X229141009Y-91826666D02*
X229093390Y-91731428D01*
X158614819Y-127434405D02*
X157614819Y-127434405D01*
X157614819Y-127434405D02*
X157614819Y-127672500D01*
X157614819Y-127672500D02*
X157662438Y-127815357D01*
X157662438Y-127815357D02*
X157757676Y-127910595D01*
X157757676Y-127910595D02*
X157852914Y-127958214D01*
X157852914Y-127958214D02*
X158043390Y-128005833D01*
X158043390Y-128005833D02*
X158186247Y-128005833D01*
X158186247Y-128005833D02*
X158376723Y-127958214D01*
X158376723Y-127958214D02*
X158471961Y-127910595D01*
X158471961Y-127910595D02*
X158567200Y-127815357D01*
X158567200Y-127815357D02*
X158614819Y-127672500D01*
X158614819Y-127672500D02*
X158614819Y-127434405D01*
X157948152Y-128862976D02*
X158614819Y-128862976D01*
X157567200Y-128624881D02*
X158281485Y-128386786D01*
X158281485Y-128386786D02*
X158281485Y-129005833D01*
X69419819Y-62913214D02*
X68419819Y-62913214D01*
X68419819Y-62913214D02*
X68419819Y-63151309D01*
X68419819Y-63151309D02*
X68467438Y-63294166D01*
X68467438Y-63294166D02*
X68562676Y-63389404D01*
X68562676Y-63389404D02*
X68657914Y-63437023D01*
X68657914Y-63437023D02*
X68848390Y-63484642D01*
X68848390Y-63484642D02*
X68991247Y-63484642D01*
X68991247Y-63484642D02*
X69181723Y-63437023D01*
X69181723Y-63437023D02*
X69276961Y-63389404D01*
X69276961Y-63389404D02*
X69372200Y-63294166D01*
X69372200Y-63294166D02*
X69419819Y-63151309D01*
X69419819Y-63151309D02*
X69419819Y-62913214D01*
X68419819Y-63817976D02*
X68419819Y-64437023D01*
X68419819Y-64437023D02*
X68800771Y-64103690D01*
X68800771Y-64103690D02*
X68800771Y-64246547D01*
X68800771Y-64246547D02*
X68848390Y-64341785D01*
X68848390Y-64341785D02*
X68896009Y-64389404D01*
X68896009Y-64389404D02*
X68991247Y-64437023D01*
X68991247Y-64437023D02*
X69229342Y-64437023D01*
X69229342Y-64437023D02*
X69324580Y-64389404D01*
X69324580Y-64389404D02*
X69372200Y-64341785D01*
X69372200Y-64341785D02*
X69419819Y-64246547D01*
X69419819Y-64246547D02*
X69419819Y-63960833D01*
X69419819Y-63960833D02*
X69372200Y-63865595D01*
X69372200Y-63865595D02*
X69324580Y-63817976D01*
X68753152Y-65294166D02*
X69419819Y-65294166D01*
X68372200Y-65056071D02*
X69086485Y-64817976D01*
X69086485Y-64817976D02*
X69086485Y-65437023D01*
X194084819Y-117975714D02*
X193084819Y-117975714D01*
X193084819Y-117975714D02*
X193084819Y-118213809D01*
X193084819Y-118213809D02*
X193132438Y-118356666D01*
X193132438Y-118356666D02*
X193227676Y-118451904D01*
X193227676Y-118451904D02*
X193322914Y-118499523D01*
X193322914Y-118499523D02*
X193513390Y-118547142D01*
X193513390Y-118547142D02*
X193656247Y-118547142D01*
X193656247Y-118547142D02*
X193846723Y-118499523D01*
X193846723Y-118499523D02*
X193941961Y-118451904D01*
X193941961Y-118451904D02*
X194037200Y-118356666D01*
X194037200Y-118356666D02*
X194084819Y-118213809D01*
X194084819Y-118213809D02*
X194084819Y-117975714D01*
X194084819Y-119499523D02*
X194084819Y-118928095D01*
X194084819Y-119213809D02*
X193084819Y-119213809D01*
X193084819Y-119213809D02*
X193227676Y-119118571D01*
X193227676Y-119118571D02*
X193322914Y-119023333D01*
X193322914Y-119023333D02*
X193370533Y-118928095D01*
X193180057Y-119880476D02*
X193132438Y-119928095D01*
X193132438Y-119928095D02*
X193084819Y-120023333D01*
X193084819Y-120023333D02*
X193084819Y-120261428D01*
X193084819Y-120261428D02*
X193132438Y-120356666D01*
X193132438Y-120356666D02*
X193180057Y-120404285D01*
X193180057Y-120404285D02*
X193275295Y-120451904D01*
X193275295Y-120451904D02*
X193370533Y-120451904D01*
X193370533Y-120451904D02*
X193513390Y-120404285D01*
X193513390Y-120404285D02*
X194084819Y-119832857D01*
X194084819Y-119832857D02*
X194084819Y-120451904D01*
X211914819Y-64505714D02*
X210914819Y-64505714D01*
X210914819Y-64505714D02*
X210914819Y-64743809D01*
X210914819Y-64743809D02*
X210962438Y-64886666D01*
X210962438Y-64886666D02*
X211057676Y-64981904D01*
X211057676Y-64981904D02*
X211152914Y-65029523D01*
X211152914Y-65029523D02*
X211343390Y-65077142D01*
X211343390Y-65077142D02*
X211486247Y-65077142D01*
X211486247Y-65077142D02*
X211676723Y-65029523D01*
X211676723Y-65029523D02*
X211771961Y-64981904D01*
X211771961Y-64981904D02*
X211867200Y-64886666D01*
X211867200Y-64886666D02*
X211914819Y-64743809D01*
X211914819Y-64743809D02*
X211914819Y-64505714D01*
X211914819Y-66029523D02*
X211914819Y-65458095D01*
X211914819Y-65743809D02*
X210914819Y-65743809D01*
X210914819Y-65743809D02*
X211057676Y-65648571D01*
X211057676Y-65648571D02*
X211152914Y-65553333D01*
X211152914Y-65553333D02*
X211200533Y-65458095D01*
X210914819Y-66362857D02*
X210914819Y-66981904D01*
X210914819Y-66981904D02*
X211295771Y-66648571D01*
X211295771Y-66648571D02*
X211295771Y-66791428D01*
X211295771Y-66791428D02*
X211343390Y-66886666D01*
X211343390Y-66886666D02*
X211391009Y-66934285D01*
X211391009Y-66934285D02*
X211486247Y-66981904D01*
X211486247Y-66981904D02*
X211724342Y-66981904D01*
X211724342Y-66981904D02*
X211819580Y-66934285D01*
X211819580Y-66934285D02*
X211867200Y-66886666D01*
X211867200Y-66886666D02*
X211914819Y-66791428D01*
X211914819Y-66791428D02*
X211914819Y-66505714D01*
X211914819Y-66505714D02*
X211867200Y-66410476D01*
X211867200Y-66410476D02*
X211819580Y-66362857D01*
X103649819Y-82360714D02*
X102649819Y-82360714D01*
X102649819Y-82360714D02*
X102649819Y-82598809D01*
X102649819Y-82598809D02*
X102697438Y-82741666D01*
X102697438Y-82741666D02*
X102792676Y-82836904D01*
X102792676Y-82836904D02*
X102887914Y-82884523D01*
X102887914Y-82884523D02*
X103078390Y-82932142D01*
X103078390Y-82932142D02*
X103221247Y-82932142D01*
X103221247Y-82932142D02*
X103411723Y-82884523D01*
X103411723Y-82884523D02*
X103506961Y-82836904D01*
X103506961Y-82836904D02*
X103602200Y-82741666D01*
X103602200Y-82741666D02*
X103649819Y-82598809D01*
X103649819Y-82598809D02*
X103649819Y-82360714D01*
X102745057Y-83313095D02*
X102697438Y-83360714D01*
X102697438Y-83360714D02*
X102649819Y-83455952D01*
X102649819Y-83455952D02*
X102649819Y-83694047D01*
X102649819Y-83694047D02*
X102697438Y-83789285D01*
X102697438Y-83789285D02*
X102745057Y-83836904D01*
X102745057Y-83836904D02*
X102840295Y-83884523D01*
X102840295Y-83884523D02*
X102935533Y-83884523D01*
X102935533Y-83884523D02*
X103078390Y-83836904D01*
X103078390Y-83836904D02*
X103649819Y-83265476D01*
X103649819Y-83265476D02*
X103649819Y-83884523D01*
X102649819Y-84217857D02*
X102649819Y-84884523D01*
X102649819Y-84884523D02*
X103649819Y-84455952D01*
X69159819Y-122490714D02*
X68159819Y-122490714D01*
X68159819Y-122490714D02*
X68159819Y-122728809D01*
X68159819Y-122728809D02*
X68207438Y-122871666D01*
X68207438Y-122871666D02*
X68302676Y-122966904D01*
X68302676Y-122966904D02*
X68397914Y-123014523D01*
X68397914Y-123014523D02*
X68588390Y-123062142D01*
X68588390Y-123062142D02*
X68731247Y-123062142D01*
X68731247Y-123062142D02*
X68921723Y-123014523D01*
X68921723Y-123014523D02*
X69016961Y-122966904D01*
X69016961Y-122966904D02*
X69112200Y-122871666D01*
X69112200Y-122871666D02*
X69159819Y-122728809D01*
X69159819Y-122728809D02*
X69159819Y-122490714D01*
X68159819Y-123395476D02*
X68159819Y-124014523D01*
X68159819Y-124014523D02*
X68540771Y-123681190D01*
X68540771Y-123681190D02*
X68540771Y-123824047D01*
X68540771Y-123824047D02*
X68588390Y-123919285D01*
X68588390Y-123919285D02*
X68636009Y-123966904D01*
X68636009Y-123966904D02*
X68731247Y-124014523D01*
X68731247Y-124014523D02*
X68969342Y-124014523D01*
X68969342Y-124014523D02*
X69064580Y-123966904D01*
X69064580Y-123966904D02*
X69112200Y-123919285D01*
X69112200Y-123919285D02*
X69159819Y-123824047D01*
X69159819Y-123824047D02*
X69159819Y-123538333D01*
X69159819Y-123538333D02*
X69112200Y-123443095D01*
X69112200Y-123443095D02*
X69064580Y-123395476D01*
X68159819Y-124347857D02*
X68159819Y-125014523D01*
X68159819Y-125014523D02*
X69159819Y-124585952D01*
X158294819Y-109411905D02*
X157294819Y-109411905D01*
X157294819Y-109411905D02*
X157294819Y-109650000D01*
X157294819Y-109650000D02*
X157342438Y-109792857D01*
X157342438Y-109792857D02*
X157437676Y-109888095D01*
X157437676Y-109888095D02*
X157532914Y-109935714D01*
X157532914Y-109935714D02*
X157723390Y-109983333D01*
X157723390Y-109983333D02*
X157866247Y-109983333D01*
X157866247Y-109983333D02*
X158056723Y-109935714D01*
X158056723Y-109935714D02*
X158151961Y-109888095D01*
X158151961Y-109888095D02*
X158247200Y-109792857D01*
X158247200Y-109792857D02*
X158294819Y-109650000D01*
X158294819Y-109650000D02*
X158294819Y-109411905D01*
X157294819Y-110316667D02*
X157294819Y-110935714D01*
X157294819Y-110935714D02*
X157675771Y-110602381D01*
X157675771Y-110602381D02*
X157675771Y-110745238D01*
X157675771Y-110745238D02*
X157723390Y-110840476D01*
X157723390Y-110840476D02*
X157771009Y-110888095D01*
X157771009Y-110888095D02*
X157866247Y-110935714D01*
X157866247Y-110935714D02*
X158104342Y-110935714D01*
X158104342Y-110935714D02*
X158199580Y-110888095D01*
X158199580Y-110888095D02*
X158247200Y-110840476D01*
X158247200Y-110840476D02*
X158294819Y-110745238D01*
X158294819Y-110745238D02*
X158294819Y-110459524D01*
X158294819Y-110459524D02*
X158247200Y-110364286D01*
X158247200Y-110364286D02*
X158199580Y-110316667D01*
D11*
%TO.C,D40*%
X52675000Y-107255000D02*
X53875000Y-107255000D01*
X52675000Y-109215000D02*
X52675000Y-107255000D01*
X53875000Y-109215000D02*
X53875000Y-107255000D01*
%TO.C,D11*%
X194570000Y-98820000D02*
X195770000Y-98820000D01*
X194570000Y-100780000D02*
X194570000Y-98820000D01*
X195770000Y-100780000D02*
X195770000Y-98820000D01*
%TO.C,D22*%
X123005000Y-67905000D02*
X124205000Y-67905000D01*
X123005000Y-69865000D02*
X123005000Y-67905000D01*
X124205000Y-69865000D02*
X124205000Y-67905000D01*
%TO.C,D26*%
X104035000Y-62475000D02*
X105235000Y-62475000D01*
X104035000Y-64435000D02*
X104035000Y-62475000D01*
X105235000Y-64435000D02*
X105235000Y-62475000D01*
%TO.C,D15*%
X212210000Y-103440000D02*
X213410000Y-103440000D01*
X212210000Y-105400000D02*
X212210000Y-103440000D01*
X213410000Y-105400000D02*
X213410000Y-103440000D01*
%TO.C,D2*%
X157910000Y-89722500D02*
X159110000Y-89722500D01*
X157910000Y-91682500D02*
X157910000Y-89722500D01*
X159110000Y-91682500D02*
X159110000Y-89722500D01*
%TO.C,D6*%
X177160000Y-83870000D02*
X178360000Y-83870000D01*
X177160000Y-85830000D02*
X177160000Y-83870000D01*
X178360000Y-85830000D02*
X178360000Y-83870000D01*
%TO.C,D14*%
X212010000Y-84590000D02*
X213210000Y-84590000D01*
X212010000Y-86550000D02*
X212010000Y-84590000D01*
X213210000Y-86550000D02*
X213210000Y-84590000D01*
%TO.C,D21*%
X249830000Y-120380000D02*
X251030000Y-120380000D01*
X249830000Y-122340000D02*
X249830000Y-120380000D01*
X251030000Y-122340000D02*
X251030000Y-120380000D01*
%TO.C,D35*%
X69575000Y-83117500D02*
X70775000Y-83117500D01*
X69575000Y-85077500D02*
X69575000Y-83117500D01*
X70775000Y-85077500D02*
X70775000Y-83117500D01*
%TO.C,D36*%
X69405000Y-103075000D02*
X70605000Y-103075000D01*
X69405000Y-105035000D02*
X69405000Y-103075000D01*
X70605000Y-105035000D02*
X70605000Y-103075000D01*
%TO.C,D33*%
X86155000Y-118175000D02*
X87355000Y-118175000D01*
X86155000Y-120135000D02*
X86155000Y-118175000D01*
X87355000Y-120135000D02*
X87355000Y-118175000D01*
%TO.C,D39*%
X53305000Y-87405000D02*
X54505000Y-87405000D01*
X53305000Y-89365000D02*
X53305000Y-87405000D01*
X54505000Y-89365000D02*
X54505000Y-87405000D01*
%TO.C,D10*%
X194530000Y-80052500D02*
X195730000Y-80052500D01*
X194530000Y-82012500D02*
X194530000Y-80052500D01*
X195730000Y-82012500D02*
X195730000Y-80052500D01*
%TO.C,D16*%
X212060000Y-122070000D02*
X213260000Y-122070000D01*
X212060000Y-124030000D02*
X212060000Y-122070000D01*
X213260000Y-124030000D02*
X213260000Y-122070000D01*
%TO.C,D9*%
X194570000Y-61330000D02*
X195770000Y-61330000D01*
X194570000Y-63290000D02*
X194570000Y-61330000D01*
X195770000Y-63290000D02*
X195770000Y-61330000D01*
%TO.C,TP2*%
X255210000Y-107545000D02*
G75*
G02*
X252810000Y-107545000I-1200000J0D01*
G01*
X252810000Y-107545000D02*
G75*
G02*
X255210000Y-107545000I1200000J0D01*
G01*
%TO.C,D19*%
X229560000Y-108710000D02*
X230760000Y-108710000D01*
X229560000Y-110670000D02*
X229560000Y-108710000D01*
X230760000Y-110670000D02*
X230760000Y-108710000D01*
%TO.C,R1*%
X248895000Y-99544564D02*
X248895000Y-99090436D01*
X250365000Y-99544564D02*
X250365000Y-99090436D01*
%TO.C,D42*%
X32355000Y-118335000D02*
X33555000Y-118335000D01*
X32355000Y-120295000D02*
X32355000Y-118335000D01*
X33555000Y-120295000D02*
X33555000Y-118335000D01*
%TO.C,R2*%
X252365000Y-96585436D02*
X252365000Y-97039564D01*
X253835000Y-96585436D02*
X253835000Y-97039564D01*
%TO.C,R3*%
X46730000Y-100720436D02*
X46730000Y-101174564D01*
X48200000Y-100720436D02*
X48200000Y-101174564D01*
%TO.C,D41*%
X52545000Y-126945000D02*
X53745000Y-126945000D01*
X52545000Y-128905000D02*
X52545000Y-126945000D01*
X53745000Y-128905000D02*
X53745000Y-126945000D01*
%TO.C,D30*%
X86805000Y-59105000D02*
X88005000Y-59105000D01*
X86805000Y-61065000D02*
X86805000Y-59105000D01*
X88005000Y-61065000D02*
X88005000Y-59105000D01*
%TO.C,R4*%
X53030000Y-98770436D02*
X53030000Y-99224564D01*
X54500000Y-98770436D02*
X54500000Y-99224564D01*
%TO.C,D31*%
X86455000Y-78917500D02*
X87655000Y-78917500D01*
X86455000Y-80877500D02*
X86455000Y-78917500D01*
X87655000Y-80877500D02*
X87655000Y-78917500D01*
%TO.C,D32*%
X86255000Y-98425000D02*
X87455000Y-98425000D01*
X86255000Y-100385000D02*
X86255000Y-98425000D01*
X87455000Y-100385000D02*
X87455000Y-98425000D01*
%TO.C,D8*%
X177020000Y-122470000D02*
X178220000Y-122470000D01*
X177020000Y-124430000D02*
X177020000Y-122470000D01*
X178220000Y-124430000D02*
X178220000Y-122470000D01*
%TO.C,D17*%
X229910000Y-70050000D02*
X231110000Y-70050000D01*
X229910000Y-72010000D02*
X229910000Y-70050000D01*
X231110000Y-72010000D02*
X231110000Y-70050000D01*
%TO.C,D7*%
X177210000Y-103540000D02*
X178410000Y-103540000D01*
X177210000Y-105500000D02*
X177210000Y-103540000D01*
X178410000Y-105500000D02*
X178410000Y-103540000D01*
%TO.C,D28*%
X103805000Y-102105000D02*
X105005000Y-102105000D01*
X103805000Y-104065000D02*
X103805000Y-102105000D01*
X105005000Y-104065000D02*
X105005000Y-102105000D01*
%TO.C,TP4*%
X54745000Y-92845000D02*
G75*
G02*
X52345000Y-92845000I-1200000J0D01*
G01*
X52345000Y-92845000D02*
G75*
G02*
X54745000Y-92845000I1200000J0D01*
G01*
%TO.C,D24*%
X123605000Y-106577500D02*
X124805000Y-106577500D01*
X123605000Y-108537500D02*
X123605000Y-106577500D01*
X124805000Y-108537500D02*
X124805000Y-106577500D01*
%TO.C,D29*%
X103835000Y-120995000D02*
X105035000Y-120995000D01*
X103835000Y-122955000D02*
X103835000Y-120995000D01*
X105035000Y-122955000D02*
X105035000Y-120995000D01*
%TO.C,D23*%
X123555000Y-87605000D02*
X124755000Y-87605000D01*
X123555000Y-89565000D02*
X123555000Y-87605000D01*
X124755000Y-89565000D02*
X124755000Y-87605000D01*
%TO.C,TP3*%
X49555000Y-91295000D02*
G75*
G02*
X47155000Y-91295000I-1200000J0D01*
G01*
X47155000Y-91295000D02*
G75*
G02*
X49555000Y-91295000I1200000J0D01*
G01*
%TO.C,D25*%
X123595000Y-126117500D02*
X124795000Y-126117500D01*
X123595000Y-128077500D02*
X123595000Y-126117500D01*
X124795000Y-128077500D02*
X124795000Y-126117500D01*
%TO.C,D5*%
X177470000Y-64360000D02*
X178670000Y-64360000D01*
X177470000Y-66320000D02*
X177470000Y-64360000D01*
X178670000Y-66320000D02*
X178670000Y-64360000D01*
%TO.C,D1*%
X158060000Y-69160000D02*
X159260000Y-69160000D01*
X158060000Y-71120000D02*
X158060000Y-69160000D01*
X159260000Y-71120000D02*
X159260000Y-69160000D01*
%TO.C,TP1*%
X251400000Y-107485000D02*
G75*
G02*
X249000000Y-107485000I-1200000J0D01*
G01*
X249000000Y-107485000D02*
G75*
G02*
X251400000Y-107485000I1200000J0D01*
G01*
%TO.C,D38*%
X53155000Y-67935000D02*
X54355000Y-67935000D01*
X53155000Y-69895000D02*
X53155000Y-67935000D01*
X54355000Y-69895000D02*
X54355000Y-67935000D01*
%TO.C,D20*%
X229910000Y-127760000D02*
X231110000Y-127760000D01*
X229910000Y-129720000D02*
X229910000Y-127760000D01*
X231110000Y-129720000D02*
X231110000Y-127760000D01*
%TO.C,D18*%
X229910000Y-89400000D02*
X231110000Y-89400000D01*
X229910000Y-91360000D02*
X229910000Y-89400000D01*
X231110000Y-91360000D02*
X231110000Y-89400000D01*
%TO.C,D4*%
X158860000Y-126912500D02*
X160060000Y-126912500D01*
X158860000Y-128872500D02*
X158860000Y-126912500D01*
X160060000Y-128872500D02*
X160060000Y-126912500D01*
%TO.C,D34*%
X69665000Y-62867500D02*
X70865000Y-62867500D01*
X69665000Y-64827500D02*
X69665000Y-62867500D01*
X70865000Y-64827500D02*
X70865000Y-62867500D01*
%TO.C,D12*%
X194330000Y-117930000D02*
X195530000Y-117930000D01*
X194330000Y-119890000D02*
X194330000Y-117930000D01*
X195530000Y-119890000D02*
X195530000Y-117930000D01*
%TO.C,D13*%
X212160000Y-64460000D02*
X213360000Y-64460000D01*
X212160000Y-66420000D02*
X212160000Y-64460000D01*
X213360000Y-66420000D02*
X213360000Y-64460000D01*
%TO.C,D27*%
X103895000Y-82315000D02*
X105095000Y-82315000D01*
X103895000Y-84275000D02*
X103895000Y-82315000D01*
X105095000Y-84275000D02*
X105095000Y-82315000D01*
%TO.C,D37*%
X69405000Y-122445000D02*
X70605000Y-122445000D01*
X69405000Y-124405000D02*
X69405000Y-122445000D01*
X70605000Y-124405000D02*
X70605000Y-122445000D01*
%TO.C,D3*%
X158540000Y-108890000D02*
X159740000Y-108890000D01*
X158540000Y-110850000D02*
X158540000Y-108890000D01*
X159740000Y-110850000D02*
X159740000Y-108890000D01*
%TD*%
M02*
