M48
; DRILL file {KiCad 9.0.7} date 2026-04-05T19:33:12-0700
; FORMAT={-:-/ absolute / metric / decimal}
; #@! TF.CreationDate,2026-04-05T19:33:12-07:00
; #@! TF.GenerationSoftware,Kicad,Pcbnew,9.0.7
; #@! TF.FileFunction,NonPlated,1,2,NPTH
FMAT,2
METRIC
; #@! TA.AperFunction,NonPlated,NPTH,ComponentDrill
T1C1.700
; #@! TA.AperFunction,NonPlated,NPTH,ComponentDrill
T2C3.400
%
G90
G05
T1
X36.655Y-125.175
X47.655Y-125.175
X56.615Y-133.865
X56.895Y-114.185
X57.075Y-94.485
X57.185Y-74.925
X67.615Y-133.865
X67.895Y-114.185
X68.075Y-94.485
X68.185Y-74.925
X73.595Y-129.375
X73.635Y-109.815
X73.755Y-69.835
X73.755Y-89.975
X84.595Y-129.375
X84.635Y-109.815
X84.755Y-69.835
X84.755Y-89.975
X90.315Y-125.035
X90.405Y-105.275
X90.635Y-85.825
X90.895Y-66.045
X101.315Y-125.035
X101.405Y-105.275
X101.635Y-85.825
X101.895Y-66.045
X107.945Y-108.975
X108.005Y-127.975
X108.025Y-89.265
X108.345Y-69.405
X118.945Y-108.975
X119.005Y-127.975
X119.025Y-89.265
X119.345Y-69.405
X127.365Y-74.715
X127.665Y-113.515
X127.665Y-133.045
X127.705Y-94.415
X138.365Y-74.715
X138.665Y-113.515
X138.665Y-133.045
X138.705Y-94.415
X161.59Y-75.58
X161.6Y-94.81
X161.91Y-113.77
X161.91Y-133.2
X172.59Y-75.58
X172.6Y-94.81
X172.91Y-113.77
X172.91Y-133.2
X180.27Y-109.1
X180.28Y-70.27
X180.28Y-89.68
X180.46Y-127.78
X191.27Y-109.1
X191.28Y-70.27
X191.28Y-89.68
X191.46Y-127.78
X197.55Y-123.05
X197.64Y-66.65
X197.64Y-103.99
X197.75Y-85.13
X208.55Y-123.05
X208.64Y-66.65
X208.64Y-103.99
X208.75Y-85.13
X214.99Y-70.31
X215.07Y-127.48
X215.35Y-90.14
X215.35Y-109.19
X225.99Y-70.31
X226.07Y-127.48
X226.35Y-90.14
X226.35Y-109.19
X232.49Y-133.38
X232.7Y-114.01
X232.9Y-94.83
X233.1Y-75.86
X243.49Y-133.38
X243.7Y-114.01
X243.9Y-94.83
X244.1Y-75.86
X252.63Y-125.64
X263.63Y-125.64
T2
X42.155Y-125.175
X62.115Y-133.865
X62.395Y-114.185
X62.575Y-94.485
X62.685Y-74.925
X79.095Y-129.375
X79.135Y-109.815
X79.255Y-69.835
X79.255Y-89.975
X95.815Y-125.035
X95.905Y-105.275
X96.135Y-85.825
X96.395Y-66.045
X113.445Y-108.975
X113.505Y-127.975
X113.525Y-89.265
X113.845Y-69.405
X132.865Y-74.715
X133.165Y-113.515
X133.165Y-133.045
X133.205Y-94.415
X167.09Y-75.58
X167.1Y-94.81
X167.41Y-113.77
X167.41Y-133.2
X185.77Y-109.1
X185.78Y-70.27
X185.78Y-89.68
X185.96Y-127.78
X203.05Y-123.05
X203.14Y-66.65
X203.14Y-103.99
X203.25Y-85.13
X220.49Y-70.31
X220.57Y-127.48
X220.85Y-90.14
X220.85Y-109.19
X237.99Y-133.38
X238.2Y-114.01
X238.4Y-94.83
X238.6Y-75.86
X258.13Y-125.64
M30
