M48
; DRILL file {KiCad 9.0.7} date 2026-04-05T19:33:12-0700
; FORMAT={-:-/ absolute / metric / decimal}
; #@! TF.CreationDate,2026-04-05T19:33:12-07:00
; #@! TF.GenerationSoftware,Kicad,Pcbnew,9.0.7
; #@! TF.FileFunction,Plated,1,2,PTH
FMAT,2
METRIC
; #@! TA.AperFunction,Plated,PTH,ViaDrill
T1C0.300
; #@! TA.AperFunction,Plated,PTH,ComponentDrill
T2C1.200
; #@! TA.AperFunction,Plated,PTH,ComponentDrill
T3C2.500
%
G90
G05
T1
X27.295Y-114.495
X29.725Y-93.595
X35.755Y-101.895
X45.215Y-102.245
X46.405Y-112.385
X46.605Y-107.805
X49.245Y-96.575
X50.935Y-104.745
X51.685Y-101.455
X51.865Y-97.945
X64.395Y-101.825
X64.445Y-84.485
X65.355Y-106.075
X65.885Y-79.115
X67.915Y-106.075
X84.745Y-101.635
X101.925Y-76.965
X119.145Y-75.875
X188.38Y-100.41
X192.54Y-99.46
X193.01Y-102.091
X206.01Y-99.14
X223.77Y-100.08
X241.26Y-105.42
X243.34Y-99.01
X243.4Y-99.94
X243.8Y-105.35
X244.87Y-98.938
X254.11Y-117.49
X254.18Y-94.375
X264.49Y-116.89
X267.61Y-102.46
X268.55Y-102.26
X271.61Y-115.1
T2
X42.155Y-119.275
X47.155Y-121.375
X62.115Y-127.965
X62.395Y-108.285
X62.575Y-88.585
X62.685Y-69.025
X67.115Y-130.065
X67.395Y-110.385
X67.575Y-90.685
X67.685Y-71.125
X79.095Y-123.475
X79.135Y-103.915
X79.255Y-63.935
X79.255Y-84.075
X84.095Y-125.575
X84.135Y-106.015
X84.255Y-66.035
X84.255Y-86.175
X95.815Y-119.135
X95.905Y-99.375
X96.135Y-79.925
X96.395Y-60.145
X100.815Y-121.235
X100.905Y-101.475
X101.135Y-82.025
X101.395Y-62.245
X113.445Y-103.075
X113.505Y-122.075
X113.525Y-83.365
X113.845Y-63.505
X118.445Y-105.175
X118.505Y-124.175
X118.525Y-85.465
X118.845Y-65.605
X132.865Y-68.815
X133.165Y-107.615
X133.165Y-127.145
X133.205Y-88.515
X137.865Y-70.915
X138.165Y-109.715
X138.165Y-129.245
X138.205Y-90.615
X167.09Y-69.68
X167.1Y-88.91
X167.41Y-107.87
X167.41Y-127.3
X172.09Y-71.78
X172.1Y-91.01
X172.41Y-109.97
X172.41Y-129.4
X185.77Y-103.2
X185.78Y-64.37
X185.78Y-83.78
X185.96Y-121.88
X190.77Y-105.3
X190.78Y-66.47
X190.78Y-85.88
X190.96Y-123.98
X203.05Y-117.15
X203.14Y-60.75
X203.14Y-98.09
X203.25Y-79.23
X208.05Y-119.25
X208.14Y-62.85
X208.14Y-100.19
X208.25Y-81.33
X220.49Y-64.41
X220.57Y-121.58
X220.85Y-84.24
X220.85Y-103.29
X225.49Y-66.51
X225.57Y-123.68
X225.85Y-86.34
X225.85Y-105.39
X237.99Y-127.48
X238.2Y-108.11
X238.4Y-88.93
X238.6Y-69.96
X242.99Y-129.58
X243.2Y-110.21
X243.4Y-91.03
X243.6Y-72.06
X258.13Y-119.74
X263.13Y-121.84
T3
X30.905Y-99.255
X30.905Y-102.655
X261.245Y-99.078
X261.245Y-102.478
M30
