%TF.GenerationSoftware,KiCad,Pcbnew,9.0.7*%
%TF.CreationDate,2026-04-05T19:33:01-07:00*%
%TF.ProjectId,SplitKeyboardCAD,53706c69-744b-4657-9962-6f6172644341,rev?*%
%TF.SameCoordinates,Original*%
%TF.FileFunction,Paste,Top*%
%TF.FilePolarity,Positive*%
%FSLAX46Y46*%
G04 Gerber Fmt 4.6, Leading zero omitted, Abs format (unit mm)*
G04 Created by KiCad (PCBNEW 9.0.7) date 2026-04-05 19:33:01*
%MOMM*%
%LPD*%
G01*
G04 APERTURE LIST*
G04 Aperture macros list*
%AMRoundRect*
0 Rectangle with rounded corners*
0 $1 Rounding radius*
0 $2 $3 $4 $5 $6 $7 $8 $9 X,Y pos of 4 corners*
0 Add a 4 corners polygon primitive as box body*
4,1,4,$2,$3,$4,$5,$6,$7,$8,$9,$2,$3,0*
0 Add four circle primitives for the rounded corners*
1,1,$1+$1,$2,$3*
1,1,$1+$1,$4,$5*
1,1,$1+$1,$6,$7*
1,1,$1+$1,$8,$9*
0 Add four rect primitives between the rounded corners*
20,1,$1+$1,$2,$3,$4,$5,0*
20,1,$1+$1,$4,$5,$6,$7,0*
20,1,$1+$1,$6,$7,$8,$9,0*
20,1,$1+$1,$8,$9,$2,$3,0*%
G04 Aperture macros list end*
%ADD10RoundRect,0.500000X-0.875000X-0.500000X0.875000X-0.500000X0.875000X0.500000X-0.875000X0.500000X0*%
%ADD11RoundRect,0.275000X-0.275000X0.975000X-0.275000X-0.975000X0.275000X-0.975000X0.275000X0.975000X0*%
%ADD12C,1.700000*%
G04 APERTURE END LIST*
D10*
%TO.C,U1*%
X257635000Y-94458500D03*
X257635000Y-96998500D03*
X257635000Y-99538500D03*
X257635000Y-102078500D03*
X257635000Y-104618500D03*
X257635000Y-107158500D03*
X257635000Y-109698500D03*
X273800000Y-109698500D03*
X273800000Y-107158500D03*
X273800000Y-104618500D03*
X273800000Y-102078500D03*
X273800000Y-99538500D03*
X273800000Y-96998500D03*
X273800000Y-94458500D03*
D11*
X269500000Y-111315400D03*
X271405000Y-111315400D03*
D12*
X264420000Y-93510000D03*
X266960000Y-93510000D03*
X264420000Y-96050000D03*
X266960000Y-96050000D03*
%TD*%
D10*
%TO.C,U2*%
X27295000Y-94635000D03*
X27295000Y-97175000D03*
X27295000Y-99715000D03*
X27295000Y-102255000D03*
X27295000Y-104795000D03*
X27295000Y-107335000D03*
X27295000Y-109875000D03*
X43460000Y-109875000D03*
X43460000Y-107335000D03*
X43460000Y-104795000D03*
X43460000Y-102255000D03*
X43460000Y-99715000D03*
X43460000Y-97175000D03*
X43460000Y-94635000D03*
D11*
X39160000Y-111491900D03*
X41065000Y-111491900D03*
D12*
X34080000Y-93686500D03*
X36620000Y-93686500D03*
X34080000Y-96226500D03*
X36620000Y-96226500D03*
%TD*%
M02*
