%TF.GenerationSoftware,KiCad,Pcbnew,9.0.7*%
%TF.CreationDate,2026-04-05T19:33:01-07:00*%
%TF.ProjectId,SplitKeyboardCAD,53706c69-744b-4657-9962-6f6172644341,rev?*%
%TF.SameCoordinates,Original*%
%TF.FileFunction,Soldermask,Bot*%
%TF.FilePolarity,Negative*%
%FSLAX46Y46*%
G04 Gerber Fmt 4.6, Leading zero omitted, Abs format (unit mm)*
G04 Created by KiCad (PCBNEW 9.0.7) date 2026-04-05 19:33:01*
%MOMM*%
%LPD*%
G01*
G04 APERTURE LIST*
G04 Aperture macros list*
%AMRoundRect*
0 Rectangle with rounded corners*
0 $1 Rounding radius*
0 $2 $3 $4 $5 $6 $7 $8 $9 X,Y pos of 4 corners*
0 Add a 4 corners polygon primitive as box body*
4,1,4,$2,$3,$4,$5,$6,$7,$8,$9,$2,$3,0*
0 Add four circle primitives for the rounded corners*
1,1,$1+$1,$2,$3*
1,1,$1+$1,$4,$5*
1,1,$1+$1,$6,$7*
1,1,$1+$1,$8,$9*
0 Add four rect primitives between the rounded corners*
20,1,$1+$1,$2,$3,$4,$5,0*
20,1,$1+$1,$4,$5,$6,$7,0*
20,1,$1+$1,$6,$7,$8,$9,0*
20,1,$1+$1,$8,$9,$2,$3,0*%
G04 Aperture macros list end*
%ADD10RoundRect,0.775400X0.775400X0.775400X-0.775400X0.775400X-0.775400X-0.775400X0.775400X-0.775400X0*%
%ADD11C,1.700000*%
%ADD12C,3.400000*%
%ADD13C,2.000000*%
%ADD14RoundRect,0.150000X0.200000X-0.150000X0.200000X0.150000X-0.200000X0.150000X-0.200000X-0.150000X0*%
%ADD15RoundRect,0.250000X0.450000X-0.262500X0.450000X0.262500X-0.450000X0.262500X-0.450000X-0.262500X0*%
%ADD16RoundRect,0.250000X-0.450000X0.262500X-0.450000X-0.262500X0.450000X-0.262500X0.450000X0.262500X0*%
G04 APERTURE END LIST*
D10*
%TO.C,U1*%
X261245000Y-102478500D03*
X261245000Y-99078500D03*
%TD*%
D11*
%TO.C,SW10*%
X208750000Y-85130000D03*
D12*
X203250000Y-85130000D03*
D11*
X197750000Y-85130000D03*
D13*
X208250000Y-81330000D03*
X203250000Y-79230000D03*
%TD*%
D11*
%TO.C,SW9*%
X208640000Y-66650000D03*
D12*
X203140000Y-66650000D03*
D11*
X197640000Y-66650000D03*
D13*
X208140000Y-62850000D03*
X203140000Y-60750000D03*
%TD*%
D11*
%TO.C,SW32*%
X101405000Y-105275000D03*
D12*
X95905000Y-105275000D03*
D11*
X90405000Y-105275000D03*
D13*
X100905000Y-101475000D03*
X95905000Y-99375000D03*
%TD*%
D11*
%TO.C,SW12*%
X208550000Y-123050000D03*
D12*
X203050000Y-123050000D03*
D11*
X197550000Y-123050000D03*
D13*
X208050000Y-119250000D03*
X203050000Y-117150000D03*
%TD*%
D11*
%TO.C,SW26*%
X119345000Y-69405000D03*
D12*
X113845000Y-69405000D03*
D11*
X108345000Y-69405000D03*
D13*
X118845000Y-65605000D03*
X113845000Y-63505000D03*
%TD*%
D11*
%TO.C,SW38*%
X68185000Y-74925000D03*
D12*
X62685000Y-74925000D03*
D11*
X57185000Y-74925000D03*
D13*
X67685000Y-71125000D03*
X62685000Y-69025000D03*
%TD*%
D11*
%TO.C,SW14*%
X226350000Y-90140000D03*
D12*
X220850000Y-90140000D03*
D11*
X215350000Y-90140000D03*
D13*
X225850000Y-86340000D03*
X220850000Y-84240000D03*
%TD*%
D11*
%TO.C,SW24*%
X138665000Y-113515000D03*
D12*
X133165000Y-113515000D03*
D11*
X127665000Y-113515000D03*
D13*
X138165000Y-109715000D03*
X133165000Y-107615000D03*
%TD*%
D11*
%TO.C,SW28*%
X118945000Y-108975000D03*
D12*
X113445000Y-108975000D03*
D11*
X107945000Y-108975000D03*
D13*
X118445000Y-105175000D03*
X113445000Y-103075000D03*
%TD*%
D11*
%TO.C,SW5*%
X191280000Y-70270000D03*
D12*
X185780000Y-70270000D03*
D11*
X180280000Y-70270000D03*
D13*
X190780000Y-66470000D03*
X185780000Y-64370000D03*
%TD*%
D11*
%TO.C,SW7*%
X191270000Y-109100000D03*
D12*
X185770000Y-109100000D03*
D11*
X180270000Y-109100000D03*
D13*
X190770000Y-105300000D03*
X185770000Y-103200000D03*
%TD*%
D11*
%TO.C,SW6*%
X191280000Y-89680000D03*
D12*
X185780000Y-89680000D03*
D11*
X180280000Y-89680000D03*
D13*
X190780000Y-85880000D03*
X185780000Y-83780000D03*
%TD*%
D11*
%TO.C,SW29*%
X119005000Y-127975000D03*
D12*
X113505000Y-127975000D03*
D11*
X108005000Y-127975000D03*
D13*
X118505000Y-124175000D03*
X113505000Y-122075000D03*
%TD*%
D11*
%TO.C,SW27*%
X119025000Y-89265000D03*
D12*
X113525000Y-89265000D03*
D11*
X108025000Y-89265000D03*
D13*
X118525000Y-85465000D03*
X113525000Y-83365000D03*
%TD*%
D11*
%TO.C,SW41*%
X67615000Y-133865000D03*
D12*
X62115000Y-133865000D03*
D11*
X56615000Y-133865000D03*
D13*
X67115000Y-130065000D03*
X62115000Y-127965000D03*
%TD*%
D11*
%TO.C,SW22*%
X138365000Y-74715000D03*
D12*
X132865000Y-74715000D03*
D11*
X127365000Y-74715000D03*
D13*
X137865000Y-70915000D03*
X132865000Y-68815000D03*
%TD*%
D11*
%TO.C,SW30*%
X101895000Y-66045000D03*
D12*
X96395000Y-66045000D03*
D11*
X90895000Y-66045000D03*
D13*
X101395000Y-62245000D03*
X96395000Y-60145000D03*
%TD*%
D11*
%TO.C,SW37*%
X84595000Y-129375000D03*
D12*
X79095000Y-129375000D03*
D11*
X73595000Y-129375000D03*
D13*
X84095000Y-125575000D03*
X79095000Y-123475000D03*
%TD*%
D10*
%TO.C,U2*%
X30905000Y-102655000D03*
X30905000Y-99255000D03*
%TD*%
D11*
%TO.C,SW21*%
X263630000Y-125640000D03*
D12*
X258130000Y-125640000D03*
D11*
X252630000Y-125640000D03*
D13*
X263130000Y-121840000D03*
X258130000Y-119740000D03*
%TD*%
D11*
%TO.C,SW42*%
X47655000Y-125175000D03*
D12*
X42155000Y-125175000D03*
D11*
X36655000Y-125175000D03*
D13*
X47155000Y-121375000D03*
X42155000Y-119275000D03*
%TD*%
D11*
%TO.C,SW35*%
X84755000Y-89975000D03*
D12*
X79255000Y-89975000D03*
D11*
X73755000Y-89975000D03*
D13*
X84255000Y-86175000D03*
X79255000Y-84075000D03*
%TD*%
D11*
%TO.C,SW23*%
X138705000Y-94415000D03*
D12*
X133205000Y-94415000D03*
D11*
X127705000Y-94415000D03*
D13*
X138205000Y-90615000D03*
X133205000Y-88515000D03*
%TD*%
D11*
%TO.C,SW18*%
X243900000Y-94830000D03*
D12*
X238400000Y-94830000D03*
D11*
X232900000Y-94830000D03*
D13*
X243400000Y-91030000D03*
X238400000Y-88930000D03*
%TD*%
D11*
%TO.C,SW4*%
X172910000Y-133200000D03*
D12*
X167410000Y-133200000D03*
D11*
X161910000Y-133200000D03*
D13*
X172410000Y-129400000D03*
X167410000Y-127300000D03*
%TD*%
D11*
%TO.C,SW16*%
X226070000Y-127480000D03*
D12*
X220570000Y-127480000D03*
D11*
X215070000Y-127480000D03*
D13*
X225570000Y-123680000D03*
X220570000Y-121580000D03*
%TD*%
D11*
%TO.C,SW8*%
X191460000Y-127780000D03*
D12*
X185960000Y-127780000D03*
D11*
X180460000Y-127780000D03*
D13*
X190960000Y-123980000D03*
X185960000Y-121880000D03*
%TD*%
D11*
%TO.C,SW20*%
X243490000Y-133380000D03*
D12*
X237990000Y-133380000D03*
D11*
X232490000Y-133380000D03*
D13*
X242990000Y-129580000D03*
X237990000Y-127480000D03*
%TD*%
D11*
%TO.C,SW33*%
X101315000Y-125035000D03*
D12*
X95815000Y-125035000D03*
D11*
X90315000Y-125035000D03*
D13*
X100815000Y-121235000D03*
X95815000Y-119135000D03*
%TD*%
D11*
%TO.C,SW36*%
X84635000Y-109815000D03*
D12*
X79135000Y-109815000D03*
D11*
X73635000Y-109815000D03*
D13*
X84135000Y-106015000D03*
X79135000Y-103915000D03*
%TD*%
D11*
%TO.C,SW34*%
X84755000Y-69835000D03*
D12*
X79255000Y-69835000D03*
D11*
X73755000Y-69835000D03*
D13*
X84255000Y-66035000D03*
X79255000Y-63935000D03*
%TD*%
D11*
%TO.C,SW19*%
X243700000Y-114010000D03*
D12*
X238200000Y-114010000D03*
D11*
X232700000Y-114010000D03*
D13*
X243200000Y-110210000D03*
X238200000Y-108110000D03*
%TD*%
D11*
%TO.C,SW39*%
X68075000Y-94485000D03*
D12*
X62575000Y-94485000D03*
D11*
X57075000Y-94485000D03*
D13*
X67575000Y-90685000D03*
X62575000Y-88585000D03*
%TD*%
D11*
%TO.C,SW13*%
X225990000Y-70310000D03*
D12*
X220490000Y-70310000D03*
D11*
X214990000Y-70310000D03*
D13*
X225490000Y-66510000D03*
X220490000Y-64410000D03*
%TD*%
D11*
%TO.C,SW11*%
X208640000Y-103990000D03*
D12*
X203140000Y-103990000D03*
D11*
X197640000Y-103990000D03*
D13*
X208140000Y-100190000D03*
X203140000Y-98090000D03*
%TD*%
D11*
%TO.C,SW3*%
X172910000Y-113770000D03*
D12*
X167410000Y-113770000D03*
D11*
X161910000Y-113770000D03*
D13*
X172410000Y-109970000D03*
X167410000Y-107870000D03*
%TD*%
D11*
%TO.C,SW17*%
X244100000Y-75860000D03*
D12*
X238600000Y-75860000D03*
D11*
X233100000Y-75860000D03*
D13*
X243600000Y-72060000D03*
X238600000Y-69960000D03*
%TD*%
D11*
%TO.C,SW31*%
X101635000Y-85825000D03*
D12*
X96135000Y-85825000D03*
D11*
X90635000Y-85825000D03*
D13*
X101135000Y-82025000D03*
X96135000Y-79925000D03*
%TD*%
D11*
%TO.C,SW15*%
X226350000Y-109190000D03*
D12*
X220850000Y-109190000D03*
D11*
X215350000Y-109190000D03*
D13*
X225850000Y-105390000D03*
X220850000Y-103290000D03*
%TD*%
D11*
%TO.C,SW1*%
X172590000Y-75580000D03*
D12*
X167090000Y-75580000D03*
D11*
X161590000Y-75580000D03*
D13*
X172090000Y-71780000D03*
X167090000Y-69680000D03*
%TD*%
D11*
%TO.C,SW2*%
X172600000Y-94810000D03*
D12*
X167100000Y-94810000D03*
D11*
X161600000Y-94810000D03*
D13*
X172100000Y-91010000D03*
X167100000Y-88910000D03*
%TD*%
D11*
%TO.C,SW40*%
X67895000Y-114185000D03*
D12*
X62395000Y-114185000D03*
D11*
X56895000Y-114185000D03*
D13*
X67395000Y-110385000D03*
X62395000Y-108285000D03*
%TD*%
D11*
%TO.C,SW25*%
X138665000Y-133045000D03*
D12*
X133165000Y-133045000D03*
D11*
X127665000Y-133045000D03*
D13*
X138165000Y-129245000D03*
X133165000Y-127145000D03*
%TD*%
D14*
%TO.C,D40*%
X53275000Y-107815000D03*
X53275000Y-109215000D03*
%TD*%
%TO.C,D11*%
X195170000Y-99380000D03*
X195170000Y-100780000D03*
%TD*%
%TO.C,D22*%
X123605000Y-68465000D03*
X123605000Y-69865000D03*
%TD*%
%TO.C,D26*%
X104635000Y-63035000D03*
X104635000Y-64435000D03*
%TD*%
%TO.C,D15*%
X212810000Y-104000000D03*
X212810000Y-105400000D03*
%TD*%
%TO.C,D2*%
X158510000Y-90282500D03*
X158510000Y-91682500D03*
%TD*%
%TO.C,D6*%
X177760000Y-84430000D03*
X177760000Y-85830000D03*
%TD*%
%TO.C,D14*%
X212610000Y-85150000D03*
X212610000Y-86550000D03*
%TD*%
%TO.C,D21*%
X250430000Y-120940000D03*
X250430000Y-122340000D03*
%TD*%
%TO.C,D35*%
X70175000Y-83677500D03*
X70175000Y-85077500D03*
%TD*%
%TO.C,D36*%
X70005000Y-103635000D03*
X70005000Y-105035000D03*
%TD*%
%TO.C,D33*%
X86755000Y-118735000D03*
X86755000Y-120135000D03*
%TD*%
%TO.C,D39*%
X53905000Y-87965000D03*
X53905000Y-89365000D03*
%TD*%
%TO.C,D10*%
X195130000Y-80612500D03*
X195130000Y-82012500D03*
%TD*%
%TO.C,D16*%
X212660000Y-122630000D03*
X212660000Y-124030000D03*
%TD*%
%TO.C,D9*%
X195170000Y-61890000D03*
X195170000Y-63290000D03*
%TD*%
D13*
%TO.C,TP2*%
X254010000Y-107545000D03*
%TD*%
D14*
%TO.C,D19*%
X230160000Y-109270000D03*
X230160000Y-110670000D03*
%TD*%
D15*
%TO.C,R1*%
X249630000Y-100230000D03*
X249630000Y-98405000D03*
%TD*%
D14*
%TO.C,D42*%
X32955000Y-118895000D03*
X32955000Y-120295000D03*
%TD*%
D16*
%TO.C,R2*%
X253100000Y-95900000D03*
X253100000Y-97725000D03*
%TD*%
%TO.C,R3*%
X47465000Y-100035000D03*
X47465000Y-101860000D03*
%TD*%
D14*
%TO.C,D41*%
X53145000Y-127505000D03*
X53145000Y-128905000D03*
%TD*%
%TO.C,D30*%
X87405000Y-59665000D03*
X87405000Y-61065000D03*
%TD*%
D16*
%TO.C,R4*%
X53765000Y-98085000D03*
X53765000Y-99910000D03*
%TD*%
D14*
%TO.C,D31*%
X87055000Y-79477500D03*
X87055000Y-80877500D03*
%TD*%
%TO.C,D32*%
X86855000Y-98985000D03*
X86855000Y-100385000D03*
%TD*%
%TO.C,D8*%
X177620000Y-123030000D03*
X177620000Y-124430000D03*
%TD*%
%TO.C,D17*%
X230510000Y-70610000D03*
X230510000Y-72010000D03*
%TD*%
%TO.C,D7*%
X177810000Y-104100000D03*
X177810000Y-105500000D03*
%TD*%
%TO.C,D28*%
X104405000Y-102665000D03*
X104405000Y-104065000D03*
%TD*%
D13*
%TO.C,TP4*%
X53545000Y-92845000D03*
%TD*%
D14*
%TO.C,D24*%
X124205000Y-107137500D03*
X124205000Y-108537500D03*
%TD*%
%TO.C,D29*%
X104435000Y-121555000D03*
X104435000Y-122955000D03*
%TD*%
%TO.C,D23*%
X124155000Y-88165000D03*
X124155000Y-89565000D03*
%TD*%
D13*
%TO.C,TP3*%
X48355000Y-91295000D03*
%TD*%
D14*
%TO.C,D25*%
X124195000Y-126677500D03*
X124195000Y-128077500D03*
%TD*%
%TO.C,D5*%
X178070000Y-64920000D03*
X178070000Y-66320000D03*
%TD*%
%TO.C,D1*%
X158660000Y-69720000D03*
X158660000Y-71120000D03*
%TD*%
D13*
%TO.C,TP1*%
X250200000Y-107485000D03*
%TD*%
D14*
%TO.C,D38*%
X53755000Y-68495000D03*
X53755000Y-69895000D03*
%TD*%
%TO.C,D20*%
X230510000Y-128320000D03*
X230510000Y-129720000D03*
%TD*%
%TO.C,D18*%
X230510000Y-89960000D03*
X230510000Y-91360000D03*
%TD*%
%TO.C,D4*%
X159460000Y-127472500D03*
X159460000Y-128872500D03*
%TD*%
%TO.C,D34*%
X70265000Y-63427500D03*
X70265000Y-64827500D03*
%TD*%
%TO.C,D12*%
X194930000Y-118490000D03*
X194930000Y-119890000D03*
%TD*%
%TO.C,D13*%
X212760000Y-65020000D03*
X212760000Y-66420000D03*
%TD*%
%TO.C,D27*%
X104495000Y-82875000D03*
X104495000Y-84275000D03*
%TD*%
%TO.C,D37*%
X70005000Y-123005000D03*
X70005000Y-124405000D03*
%TD*%
%TO.C,D3*%
X159140000Y-109450000D03*
X159140000Y-110850000D03*
%TD*%
M02*
